<?xml version="1.0" encoding="utf-8"?>
<!-- Generator: Adobe Illustrator 21.0.0, SVG Export Plug-In . SVG Version: 6.00 Build 0)  -->
<svg version="1.1" id="Layer_1" xmlns="http://www.w3.org/2000/svg" xmlns:xlink="http://www.w3.org/1999/xlink" x="0px" y="0px"
	 viewBox="0 0 72.3 72.2" style="enable-background:new 0 0 72.3 72.2;" xml:space="preserve">
<style type="text/css">
	.st0{fill:#41484D;}
	.st1{fill:#B4EDBA;}
	.st2{fill:#D7B21C;}
	.st3{fill:#FAC605;}
	.st4{fill:#B3B3B3;}
	.st5{fill:#67AEB5;}
</style>
<path class="st0" d="M72.3,19.3c-0.1-2.5-0.8-4.9-1.8-7.1c-1.1-2.6-2.8-4.9-4.9-6.8c-1.5-1.3-3-2.6-4.9-3.3c-0.3,0-2.5-1.1-2.8-1.2
	C56.6,0.6,55.4,0.1,54,0c-0.5,0-1,0-1.4,0c-0.6,0-1.1-0.1-1.7,0.1c-0.5-0.2-1.1-0.1-1.7,0c-2.5,0.4-5,1.1-7.3,2.4
	c-4.8,2.7-8.1,6.6-9.8,11.8c-0.2,0.6-0.9,3.6-0.9,3.9c0,1.1-0.1,2.2,0,3.3c0,3.4,1,6.5,2.7,9.5c0.6,1.1,1.4,2,2,3.1
	c-0.8,0.8-1.5,1.6-2.3,2.3c-0.1,0.3-0.4,0.4-0.3,0.7c0.9,0.5,1.3,1.4,2.2,1.9c1-0.7,1.7-1.8,2.7-2.5c0.3,0,0.5,0.2,0.6,0.3
	c2.3,1.8,4.8,3,7.7,3.8c2.8,0.8,5.6,0.8,8.4,0.4c3.9-0.6,7.4-2.3,10.4-4.9c2.3-2.1,4.2-4.6,5.4-7.4C72,25.6,72.5,22.5,72.3,19.3z
	 M36.6,26c-0.6-0.4-0.5-1.1-0.5-1.7c0-0.8,0-1.5,0-2.3c-0.5,0.3-0.4,1.1-1.1,0.9c0.1,2.1,1,4,1.9,5.8c0.2,0.4,0.2,1.1,0.9,1.2
	C37.4,28.6,36.7,26,36.6,26z M37.8,30L37.8,30z M46.7,4.3c-2.2,0.6-4.2,1.8-6,3.3c-2.1,1.8-3.7,4-4.7,6.7c-0.7,1.8-1.3,3.7-1,5.7
	c1.1,0,1.3-0.8,1.3-1.5c0-1,0.4-1.8,0.7-2.7c0.7-2.2,1.9-4,3.4-5.6c1.2-1.4,2.6-2.6,4.3-3.4c1.4-0.7,2.8-1.3,4.4-1.6
	c0.3-0.5,0.8-0.8,1-1.4C48.8,3.6,47.8,4,46.7,4.3z M56.8,5.1c-0.3-0.2-0.3-0.4-0.3-0.7c-0.2-0.1-0.5-0.2-0.7-0.3
	c-0.5,0.1-0.9-0.3-1.5-0.2c-0.1-0.2-0.2-0.2-0.4-0.1c0,0.2,0.2,0.3,0.3,0.4c0.1,0.2,0.2,0.3,0.3,0.4c0.9,0.5,1.4,1.4,2.1,2.1
	c0.6,0.5,0.9,0.5,1.5-0.2C57.7,5.9,57.3,5.4,56.8,5.1z"/>
<path class="st1" d="M66.4,29.2c-2.3,3.9-5.8,6.7-10.4,7.8c-6.4,1.5-11.9-0.1-16.6-4.7c-0.4-0.4-1.8-2.4-1.8-2.5
	c-0.3-1.2-1.6-4.9-1.6-5.6c0-0.8,0-1.5,0-2.3c-0.5,0.3-0.4,1.1-1.1,0.9c-0.2-0.1-0.3-2.1,0-2.9c1.1,0,1.3-0.8,1.3-1.5
	c0-1,0.4-1.8,0.7-2.7c0.6-2.2,1.9-4,3.4-5.6c1.2-1.4,2.6-2.6,4.3-3.4c0.2-0.1,0.4-0.2,0.6-0.3c1.6-0.8,4.4-2.1,4.7-2.6
	c0,0,0,0,0-0.1c0.3-0.1,0.7-0.1,1-0.3c0.3-0.1,0.5-0.1,0.8,0l2.1,0.4c0,0.2,0.2,0.3,0.3,0.4c0-0.1,0-0.2,0-0.3
	c0.5,0,0.9,0.4,1.5,0.2c0.2,0.1,0.5,0.2,0.7,0.3c1.4,0.2,2.6,0.9,3.8,1.5c2.4,1.4,4.4,3.2,5.9,5.6c0.9,1.5,1.6,3.1,2.1,4.8
	C69.4,20.8,68.8,25.2,66.4,29.2z"/>
<path class="st2" d="M24.1,54c-0.1,0.5-0.5,0.7-0.8,0.9c-0.3,0.3-0.6,0.5-0.6,0.9c-0.7,0.9-1.5,1.7-2.3,2.4c-1.1,1-2.1,2.1-3.1,3.1
	c-2.3,2.3-4.6,4.6-7,6.9c-1.1,1-2.1,2.1-3.2,3.2c-0.9,0.9-2.1,0.9-3,0.5c-1.6-0.7-2.8-2-3.8-3.6C-0.2,67.5,0,66,0.5,65.5
	c0.1,0,0.3,0,0.4,0c0,0.3,0.1,0.7-0.2,0.9c-0.4,0.3-0.3,0.6-0.1,1c0.4,1,1.3,1.6,1.9,2.4c1,1.3,2.2,1.7,3.7,1.5
	c0.1,0,0.2-0.1,0.3-0.1c0.9-1.1,2.2-2,3.2-3.4c-0.9-0.1-1.5-0.6-2.1-0.7c-1.3-0.3-2.3-1-3.5-1.4c-1.1-0.4-2.2-1.1-3.3-0.1
	c-0.1-0.4,0.3-0.6,0.5-0.9c1-0.9,2-1.9,2.9-2.9c0.2-0.3,0.4-0.6,0.9-0.5C5.2,61.6,5,61.8,5.4,62c1.1,0.5,2.2,0.9,3.3,1.5
	c0.9,0.5,2,0.6,2.8,1.2c0.5,0.4,1.1,0.3,1.5-0.1c0.6-0.5,1.3-1.1,1.7-1.7c-0.1-0.6-0.6-0.7-1-0.8c-2.2-0.9-4.5-1.8-6.7-2.7
	C7,59.2,7.1,59,7.2,59c1.1-0.9,2-2.1,3.2-2.9c0,0.6,0.5,0.8,0.9,0.9c0.7,0.1,1.2,0.6,1.8,0.8c1.3,0.4,2.6,0.9,3.8,1.5
	c0.9,0.4,1.6,0.4,2.3-0.5c0.4-0.5,0.9-0.8,1.5-1.4c-2.1-0.9-3.9-1.7-5.7-2.4c-0.8-0.3-1.6-1-2.6-0.8c1-1.3,2.2-2.5,3.6-3.4
	c0,0.3,0.1,0.5,0.5,0.6c1.5,0.6,3,1.4,4.5,1.9C22.1,53.4,23,54,24.1,54z"/>
<path class="st3" d="M36.5,40.9c0,1.1-1,2.5-2.1,3c0.1-0.2,0.3-0.4,0.4-0.6c-0.3-0.1-0.5-0.2-0.8-0.3c-1.8-0.7-3.5-1.4-5.3-2.2
	c-0.7-0.3-1.5-0.5-2.1-1c0.1-0.1,0.1-0.2,0.2-0.3c0.8-1,1.8-1.7,2.6-2.6c0.3-0.4,1-0.7,1.8-0.7c0.9,0,1.5,0.4,2.2,0.9
	c0.9,0.5,1.3,1.4,2.2,1.9C36.1,39.5,36.5,40.1,36.5,40.9z"/>
<path class="st3" d="M32,46.3c-0.3,0.8-0.9,1.3-1.6,1.8l0,0l-0.1,0.1c-0.3,0-0.5,0.1-0.4,0.4l0,0c-0.1,0-0.3,0-0.4,0
	c-0.1,0-0.2,0-0.3-0.1l0,0c-0.2-0.1-0.4-0.3-0.6-0.4c-2.2-0.5-4.1-1.8-6.3-2.5c-0.3-0.1-0.4-0.3-0.5-0.6c0-0.3,0-0.6,0.3-0.7
	c0.7-0.3,1.1-0.9,1.7-1.3c1.3-0.1,2.3,0.7,3.4,1.1C28.7,45,30.3,45.7,32,46.3z"/>
<path class="st2" d="M35.1,43.4c-0.2,0.2-0.6,0.3-0.7,0.5c-0.1,0.1-0.2,0.2-0.2,0.2c0,0.3-0.2,0.5-0.5,0.5l0,0
	c-0.1,0.1-0.1,0.2-0.2,0.2S33.3,45,33.3,45l0,0c-0.1,0.1-0.2,0.2-0.2,0.2c-0.1,0.1-0.2,0.2-0.2,0.2c-0.1,0.1-0.2,0.2-0.2,0.2l0,0
	c-0.1,0.1-0.2,0.2-0.2,0.2c-0.1,0.1-0.2,0.2-0.2,0.2l0,0c-1.7-0.6-3.3-1.3-5-2c-1.1-0.5-2.1-1.3-3.4-1.1c0.8-1.4,2-2.3,3.1-3.3
	c0.6,0.5,1.4,0.7,2.1,1c1.7,0.8,3.5,1.5,5.3,2.2C34.3,43.1,34.8,43.3,35.1,43.4z"/>
<path class="st3" d="M33,45.3c0.1-0.1,0.2-0.2,0.2-0.2"/>
<path class="st4" d="M53.6,30.4c0.5,0.7,1,1.1,1.7,1.2c1.8,0.4,3.4,0.4,5.1-0.7c2.4-1.5,3.4-3.6,3.2-6.3c-0.1-1.1-0.4-2.2-1.5-2.8
	c-0.7,0.5-1.1,1.1-1.4,1.9c-0.4,1-1.1,2-1.9,2.7c-1.2,1.2-2.6,2.1-4.1,2.9C54.4,29.7,54,30,53.6,30.4z"/>
<path class="st5" d="M50,3.6C50,3.7,50,3.7,50,3.6c-0.3,0.6-3.1,1.9-4.7,2.7c-0.2,0.1-0.5,0.2-0.6,0.3c-1.7,0.8-3.1,2-4.3,3.4
	c-1.5,1.7-2.7,3.4-3.4,5.6c-0.3,0.9-0.7,1.7-0.7,2.7c0,0.3-0.2,3.9-0.2,4.1c0,0,0,0,0,0.1c0,0.2,0,0.8,0,0.9c0,0.3,0,0.5,0,0.8
	c0,0.6,1.3,4.3,1.6,5.6c-0.7-0.1-2.6-4.9-2.8-7c0,0,0,0,0.1,0c-0.3-0.5-0.3-0.9-0.3-1.1c-0.1-0.3,0.2-2.1,0.2-2.5
	c0-0.1,0.5-3.4,1.1-5c1-2.6,2.6-4.9,4.7-6.7c1.8-1.5,3.7-2.7,6-3.3C47.8,4,48.8,3.6,50,3.6z"/>
<path class="st3" d="M1.1,65.5c1.1-1,2.2-0.3,3.3,0.1C5.6,66,6.6,66.8,7.9,67c0.6,0.1,1.1,0.7,2.1,0.7c-1,1.4-2.2,2.3-3.2,3.4
	c-0.1,0-0.2,0.1-0.3,0.1C5,71.5,3.7,71,2.8,69.8c-0.6-0.8-1.5-1.4-1.9-2.4c-0.2-0.4-0.3-0.7,0.1-1C1.2,66.2,1,65.8,1.1,65.5
	L1.1,65.5z"/>
<path class="st3" d="M10.6,55.9c0.5-0.8,1.3-1.3,1.9-1.9c1-0.2,1.7,0.4,2.6,0.8c1.8,0.7,3.7,1.5,5.7,2.4c-0.6,0.5-1.2,0.9-1.5,1.4
	c-0.6,0.9-1.4,0.9-2.3,0.5c-1.2-0.6-2.5-1.1-3.8-1.5c-0.6-0.2-1.1-0.6-1.8-0.8C11.2,56.7,10.7,56.4,10.6,55.9z"/>
<path class="st3" d="M26,52.1c-0.5,0.8-1.3,1.2-1.9,1.9c-1.1,0-2-0.6-3-1c-1.5-0.5-3-1.3-4.5-1.9c-0.3-0.1-0.4-0.3-0.5-0.6
	c0.6-0.6,1.2-1.3,1.9-1.9c0.4,0.1,0.8,0.2,1.2,0.2c0.9,0,1.5,0.7,2.3,0.9c1.3,0.4,2.6,1,3.8,1.5C25.6,51.4,26,51.6,26,52.1z"/>
<path class="st3" d="M7.3,59.2c2.2,0.9,4.5,1.8,6.7,2.7c0.4,0.2,0.9,0.2,1,0.8c-0.4,0.7-1.1,1.2-1.7,1.7c-0.4,0.4-1,0.5-1.5,0.1
	C11,63.9,9.9,63.7,9,63.3c-1.1-0.5-2.2-1-3.3-1.5c-0.4-0.2-0.2-0.5-0.3-0.7l0,0c0.4,0,0.5-0.1,0.5-0.5l0,0c0.4,0,0.5-0.1,0.5-0.5
	l0,0c0.4,0,0.5-0.1,0.5-0.5l0,0C7.2,59.8,7.3,59.6,7.3,59.2L7.3,59.2z"/>
<path class="st2" d="M29.3,48.8C29.4,48.8,29.4,48.7,29.3,48.8c-0.3,0-0.5-0.4-0.9-0.5c-2.2-0.6-4.1-1.8-6.3-2.5
	c-0.3-0.1-0.4-0.3-0.6-0.6c-0.2,0.1-0.4,0-0.6,0.2c-1,1.1-2.3,1.9-3,3.3c0.4,0.1,0.8,0.2,1.2,0.2c0.9,0,1.5,0.7,2.3,0.9
	c1.3,0.4,2.6,1,3.8,1.5c0.2,0.1,0.6,0.3,0.7,0.6c-0.1,0.6,0.8,0.8,1,0.2c0.1-0.2,0.3-0.4,0.5-0.5c0.2-0.2,0.4-0.5,0.7-0.7
	c0.5-0.4,0.8-0.8,1.2-1.2C29.5,49.4,29.5,49,29.3,48.8z"/>
<path class="st2" d="M7.3,59.2c0,0.3-0.1,0.5-0.5,0.5C6.8,59.4,6.9,59.2,7.3,59.2z"/>
<path class="st2" d="M6.8,59.7c0,0.4-0.1,0.5-0.5,0.5C6.3,59.9,6.5,59.7,6.8,59.7z"/>
<path class="st2" d="M6.3,60.2c0,0.4-0.1,0.5-0.5,0.5C5.8,60.4,6,60.2,6.3,60.2z"/>
<path class="st2" d="M5.8,60.7c0,0.3-0.1,0.5-0.5,0.5C5.4,60.8,5.5,60.7,5.8,60.7z"/>
<path class="st1" d="M54.3,3.8c0,0.1,0,0.2,0,0.3C54.1,4,54,3.9,53.9,3.7C54.1,3.5,54.2,3.6,54.3,3.8z"/>
<path class="st2" d="M23.3,54c-0.4,0.4-0.8,0.7-1.2,1c-0.5,0.4,0.2,1.1,0.7,0.7c0.4-0.3,0.8-0.7,1.2-1C24.5,54.3,23.8,53.6,23.3,54z
	"/>
<path class="st3" d="M25.5,51.8c-0.4,0.5-0.9,1-1.3,1.5c-0.1,0-0.2-0.1-0.2-0.1c-0.6-0.2-0.9,0.7-0.3,1c0.1,0.1,0.3,0.1,0.4,0.2
	c0.2,0.1,0.3,0,0.4-0.1c0.1,0,0.1,0,0.2-0.1c0.5-0.5,1-1.1,1.5-1.6C26.7,52.1,26,51.4,25.5,51.8z"/>
<path class="st3" d="M30.3,47.9C30.3,47.9,30.3,47.8,30.3,47.9c-0.3-0.5-0.8-0.3-1,0c-0.4,0.1-0.5,0.7-0.1,0.9
	c0.1,0.1,0.2,0.1,0.3,0.1c0.3,0,0.5-0.1,0.6-0.3"/>
<path class="st3" d="M7.7,59.8c0-0.3-0.2-0.7-0.6-0.6c-0.7,0.2-1.2,1-1.7,1.6l0,0c-0.1,0.1-0.2,0.2-0.2,0.3C5,61.5,5.4,62,5.9,61.7
	c0.1-0.1,0.3-0.2,0.4-0.3C6.9,61,7.4,60.5,7.7,59.8L7.7,59.8C7.7,60,7.7,59.9,7.7,59.8C7.7,59.9,7.7,59.8,7.7,59.8z"/>
<path class="st2" d="M1.3,64.9c-0.3,0.2-0.6,0.4-0.7,0.8c-0.3,0.6,0.6,1.1,0.9,0.5c0.1-0.2,0.2-0.3,0.4-0.4
	C2.3,65.5,1.8,64.6,1.3,64.9z"/>
</svg>
