<?xml version="1.0" encoding="utf-8"?>
<!-- Generator: Adobe Illustrator 21.0.0, SVG Export Plug-In . SVG Version: 6.00 Build 0)  -->
<svg version="1.1" id="Layer_1" xmlns="http://www.w3.org/2000/svg" xmlns:xlink="http://www.w3.org/1999/xlink" x="0px" y="0px"
	 viewBox="0 0 72 69.7" style="enable-background:new 0 0 72 69.7;" xml:space="preserve">
<style type="text/css">
	.st0{fill:#67AEB5;}
	.st1{fill:#D97509;}
	.st2{fill:#FAC605;}
	.st3{fill:#EBE9E5;}
	.st4{fill:#F58440;}
	.st5{fill:#D7B21C;}
	.st6{fill:#EE7D08;}
</style>
<g>
	<path class="st0" d="M66.5,39.9c1.1,1.2,2.2,2.4,3.1,3.8c1.4,2.3,2.2,4.8,2.4,7.5c0.2,2,0,4-0.5,5.9c-0.9,3.2-2.6,6-5.1,8.2
		c-1.5,1.3-3.1,2.4-5,3.1c-3.4,1.3-6.7,1.7-10.3,0.8c-3.4-0.8-6.2-2.6-8.6-5c-0.2-0.1-0.3-0.2-0.5-0.3c0.1-0.9,0.1-1.8,0-2.7
		c-0.2-1.8,0.5-3.6,0.6-5.4c0-0.1,0-0.2,0-0.2c0.9-1.5,1.3-3.2,2.2-4.8c0.8-1.5,2.1-2.7,3-4.1c0.8-1.4,2.3-2,3.5-3
		c0.5-0.4,1.2-0.9,1.9-1.2c1.1-0.6,2.3-0.8,3.4-1.4c0.9-0.5,1.9-0.2,2.7-0.9c2,0,4-0.8,6.1-0.5c0.3,0,0.6,0,0.9-0.1
		C66.5,39.5,66.5,39.7,66.5,39.9z M62.9,49.9c0,1.4,1,2.5,2.2,2.4c1.3-0.1,2.3-0.9,2.3-2.4c0-1.3-1.1-2.3-2.4-2.3
		C63.8,47.6,62.9,48.6,62.9,49.9z"/>
	<path class="st0" d="M22.2,61.5c-2,0.7-4.1,1-6.2,0.8c-1.7-0.1-3.4-0.5-5-1.2c-1.1-0.4-2.1-0.9-3-1.5c-2.8-1.8-4.9-4-6.2-7
		c-0.2-0.4-0.4-0.8-0.7-1.2c0-0.5,0-1.1-0.5-1.5l0,0C0,48.5,0.8,47,0.2,45.6c0-0.1,0.1-0.2,0-0.2c-0.2-1,0.2-1.9,0.1-2.9
		c0.3-2.9,1.6-5.3,3.3-7.6c1.1-1.6,2.5-2.8,4.1-3.9c0.8-0.5,1.7-1.1,2.8-1.3c0,0.7,0,1.4,0,2c0,1.5-0.4,3-0.2,4.4
		c0.3,1.9,0,3.8,0.5,5.7c0.4,1.4,0.8,2.8,1.3,4.1c1,2.8,2.6,5.4,4.5,7.7c1.7,2.1,3.8,3.9,6,5.6c0.1,0.1,0.3,0.1,0.4,0.2
		c0.7,0.2,1,0.7,1,1.4C23.1,60.7,22.7,61.4,22.2,61.5z M1.7,47c-0.1,0-0.3,0-0.3,0.2C1.5,47.2,1.7,47.2,1.7,47c0.1,0,0.3,0,0.4-0.3
		C1.9,46.9,1.8,47,1.7,47z M2.7,42.5C1.9,42.5,1,43.3,1,44c0,0.8,1.1,1.9,1.8,1.9c0.7,0,1.7-0.8,1.7-1.5C4.6,43.6,3.5,42.5,2.7,42.5
		z M3,41.2c0.9,1,1.7,1.8,2.5,2.5C5.8,43.6,6,43.4,6,43.2c-0.5-0.6-1-1.1-1.4-1.6c0-0.5,0.5-0.8,0.2-1.3C4.1,40.2,3.8,41,3,41.2z"/>
	<path class="st1" d="M23.8,60.9c0.1-0.7-0.3-1.2-1-1.4c-0.1,0-0.3-0.1-0.4-0.2c-2.1-1.7-4.2-3.4-6-5.6c-1.9-2.3-3.5-4.9-4.5-7.7
		c-0.5-1.3-0.9-2.7-1.3-4.1c-0.5-1.9-0.3-3.8-0.5-5.7c-0.2-1.4,0.2-2.9,0.2-4.4c0-0.7,0-1.4,0-2c0.3,0,0.4-0.3,0.6-0.6
		c0.2-0.9,0.5-1.8,0.8-2.7c0.7-2.4,1.9-4.6,3.2-6.6c1.8-2.8,4.2-5.1,6.8-7.1c0.7-0.5,1.4-0.8,2-1.4c0.7-0.1,1-0.8,1.8-0.8
		c0.3,0.1,0.6-0.1,0.9-0.2c0.9-0.4,1.8-0.9,2.7-1.2c0.9-0.3,1.8-0.6,2.8-0.8s1.9-0.5,2.9-0.6c1.2-0.1,2.5,0,3.7,0
		c-0.1,0.6-0.6,0.4-0.9,0.4c-1.5,0-2.9-0.1-4.2,0.9c-0.1,0.1-0.3,0.1-0.5,0.1c-0.7-0.1-1.2,0.2-1.8,0.5c-0.5,0.3-1.1,0.7-1.7,0.9
		c-1.5,0.6-2.9,1.5-4.1,2.5c-1.6,1.3-3.2,2.6-4.5,4.2c-0.6,0.7-1.2,1.4-1.7,2.1c-0.9,1.2-1.6,2.5-2.1,3.8c-0.2,0.5-0.7,0.8-0.8,1.4
		c-0.4,1.4-0.7,2.7-1.4,4c-0.1,0.1-0.1,0.3-0.1,0.5c0,0.5-0.2,1-0.2,1.5c0,0.9-0.5,1.6-0.6,2.4c-0.1,3.3,0.1,6.6,0.9,9.8
		c0.1,0.5,0.5,1,0.5,1.5c0,1.1,0.4,2,0.9,2.8c0.9,1.4,1.4,3,2.4,4.3c0.6,0.8,1.3,1.7,1.9,2.6c1.8,2.4,4.2,4.2,6.6,5.9
		c1.4,1,3,1.7,4.6,2.3c1.8,0.7,3.5,1.4,5.5,1.3c0,0,0.1,0.1,0.1,0.2c0,0.1-0.1,0.2-0.2,0.3c-1.7,0-3.5,0.1-5.2-0.5
		c-0.3-0.1-0.7-0.2-1-0.3c-1.2-0.3-2.3-0.7-3.5-1.2c-0.8-0.3-1.5-1-2.5-1C24.4,60.3,24.4,60.3,23.8,60.9z"/>
	<path class="st0" d="M27,9.1c1.1-2.3,2.8-4.2,4.8-5.7c1.4-1.1,3-1.9,4.7-2.5C39.2,0,42-0.3,44.8,0.2c1.3,0.2,2.6,0.5,3.8,1.1
		c2.1,0.9,4,2.2,5.6,3.9c2,2.1,3.3,4.5,4.2,7.2c0.3,0.8,0.4,1.7,0.4,2.6c-0.5,0-0.9-0.1-1.3-0.5c-1.6-1.8-3.6-2.9-5.6-4.1
		c-2.1-1.2-4.3-2-6.6-2.5c-1.2-0.3-2.3-0.8-3.6-0.6c-0.2,0-0.5,0-0.6-0.1c-0.5-0.5-1-0.3-1.6-0.3c-1,0-1.9,0-2.9,0
		c-0.3,0-0.6-0.1-0.8,0.1c-0.4,0.4-0.9,0.3-1.3,0.3c-0.3,0-0.7-0.1-0.9,0.1c-1,0.7-2.3,0-3.2,0.9c-0.8-0.1-1.5,0.3-2.2,0.7
		C27.8,9.1,27.5,9.1,27,9.1z"/>
	<path class="st2" d="M59.1,15.8c1-0.4,1.9,0,2.8,0.1c2.3,0.5,4.3,1.6,5.8,3.3c1.3,1.5,2.1,3.2,2.7,5.2c0.6,1.9,0.3,3.6-0.2,5.4
		c-0.4,1.6-1.1,3.1-2.4,4.2c-0.4,0-0.6,0.6-1.1,0.5c-0.1-2.1-0.2-4.2-0.8-6.2c-0.2-0.8-0.7-1.5-0.8-2.2c-0.4-2-1.6-3.7-2.5-5.4
		c-0.9-1.6-2.1-3-3.3-4.4C59.2,16.1,59.2,16,59.1,15.8z"/>
	<path class="st2" d="M23.7,11.4c-0.6,0.6-1.3,0.9-2,1.4c-2.7,2-5,4.3-6.8,7.1c-1.4,2-2.5,4.2-3.2,6.6c-0.3,0.9-0.5,1.8-0.8,2.7
		c0.3-1.6-0.8-2.9-1.2-4.4c-0.5-2.4-0.6-4.7,0.4-7.1c1-2.3,2.5-3.9,4.5-5.3c0.8-0.6,1.7-1,2.6-1.2c1.6-0.4,3.3-1,5-0.3
		C22.8,11.2,23.4,10.9,23.7,11.4z"/>
	<path class="st3" d="M0.2,42.5c0.1,1-0.3,1.9-0.1,2.9c0,0.1-0.1,0.2,0,0.2C0.7,47,0,48.5,0.5,49.9L0.2,42.5z"/>
	<path class="st4" d="M59.1,15.8c0.1,0.2,0.2,0.4,0.2,0.5c-0.6,0.1-1.1-0.3-1.4-0.7c-1.1-1.4-2.8-2-3.9-3.4
		c-0.1-0.1-0.3-0.1-0.4-0.2c-1.5-0.7-2.9-1.5-4.4-2.2c-1.3-0.6-2.7-1.3-4.3-1.2c-0.1-0.7-0.6-0.4-1-0.4c-0.3,0-0.6,0-0.9,0
		c0-0.4-0.3-0.5-0.7-0.5c-1,0-2,0-3,0c-0.3,0-0.6,0-0.9,0c-1.2,0-2.5-0.1-3.7,0c-1,0.1-1.9,0.4-2.9,0.6c-0.9,0.2-1.9,0.5-2.8,0.8
		s-1.8,0.8-2.7,1.2c-0.3,0.1-0.6,0.3-0.9,0.2c0.4-0.6,1.4-0.6,1.5-1.4c0.4,0,0.8,0,1.2-0.3c0.7-0.4,1.3-0.8,2.2-0.7
		c0.9-0.8,2.3-0.1,3.2-0.9c0.2-0.2,0.6,0,0.9-0.1c0.5,0,1,0.1,1.3-0.3c0.2-0.2,0.5-0.1,0.8-0.1c1,0,1.9,0,2.9,0
		c0.5,0,1.1-0.2,1.6,0.3c0.1,0.1,0.4,0.1,0.6,0.1c1.3-0.2,2.4,0.3,3.6,0.6c2.3,0.5,4.6,1.3,6.6,2.5s4,2.3,5.6,4.1
		c0.4,0.4,0.8,0.5,1.3,0.5C59.1,15.2,59,15.5,59.1,15.8z"/>
	<path class="st5" d="M23.8,60.9c0.6-0.6,0.6-0.6,1.2,0c-0.7,0-1,0.7-1.8,0.6c0.2,0.8,0.5,1.5,1,2c0.9,0.9,1.8,1.8,2.7,2.7
		c0.2,0.2,0.4,0.4,0.7,0.5c1,0.4,2,0.8,3,1.1c1.1,0.3,2.1,0.2,3.1,0.4c0.7,0.1,1-0.5,1.6-0.5c1.4,0.1,2.7-0.5,3.7-1.4
		c0.4-0.4,0.8-0.8,1.3-1.1c0.4-0.2,1-0.6,1.1-1.3c0.2,0,0.3,0,0.5,0c0.2,0.1,0.3,0.2,0.5,0.3c-0.5,0.1-0.7,0.5-1,0.8
		c-1.4,1.6-3.1,2.8-5.1,3.5c-1.8,0.6-3.6,0.9-5.5,0.2c-1.1-0.4-2.2-0.5-3.2-1.1c-1.8-1-3.4-2.2-4.3-4.1c-0.3-0.7-0.9-1.2-1.3-1.9
		C22.7,61.4,23.1,60.7,23.8,60.9z"/>
	<path class="st4" d="M66.8,34.5c0.5,0.1,0.6-0.5,1.1-0.5c-1,1.2-0.8,2.7-0.9,4.1c0,0.6,0.2,1.3-0.4,1.7c0-0.2,0-0.4,0-0.5
		C66.4,37.7,66.9,36.2,66.8,34.5z"/>
	<path class="st3" d="M0.5,49.9C0.9,50.3,1,50.8,1,51.4C0.5,51,0.5,50.4,0.5,49.9z"/>
	<path class="st6" d="M66.8,34.5c0.1,1.6-0.3,3.2-0.3,4.8c-0.3,0.1-0.6,0.1-0.9,0.1c-2.1-0.3-4.1,0.5-6.1,0.5
		c-0.8,0.6-1.9,0.4-2.7,0.9c-1.1,0.6-2.3,0.9-3.4,1.4c-0.7,0.4-1.4,0.8-1.9,1.2c-1.2,1-2.7,1.7-3.5,3c-0.9,1.4-2.1,2.6-3,4.1
		c-0.8,1.6-1.3,3.3-2.2,4.8c0,0.1,0,0.2,0,0.2c-0.1,1.8-0.8,3.5-0.6,5.4c0.1,0.9,0.1,1.8,0,2.7c-0.2,0-0.3,0-0.5,0c-1,0-2-0.1-3,0.2
		c-0.4,0.1-0.9,0.2-1.3-0.2c0.1-0.1,0.2-0.1,0.2-0.3l-0.1-0.2c-2,0.1-3.7-0.7-5.5-1.3c-1.6-0.6-3.2-1.4-4.6-2.3
		c-2.4-1.7-4.8-3.5-6.6-5.9c-0.6-0.9-1.3-1.7-1.9-2.6c-1-1.3-1.5-3-2.4-4.3C16,46,15.6,45,15.6,43.9c0-0.5-0.4-1-0.5-1.5
		c-0.8-3.2-1-6.5-0.9-9.8c0-0.8,0.6-1.5,0.6-2.4c0-0.5,0.2-1,0.2-1.5c0-0.2,0-0.3,0.1-0.5c0.7-1.2,1-2.6,1.4-4
		c0.1-0.5,0.6-0.8,0.8-1.4c0.6-1.3,1.3-2.7,2.1-3.8c0.5-0.7,1.2-1.4,1.7-2.1c1.3-1.6,2.9-2.9,4.5-4.2c1.2-1,2.6-1.9,4.1-2.5
		c0.6-0.2,1.1-0.6,1.7-0.9c0.5-0.3,1.1-0.6,1.8-0.5c0.1,0,0.3,0,0.5-0.1c1.3-1,2.7-0.8,4.2-0.9c0.4,0,0.9,0.2,0.9-0.4
		c0.3,0,0.6,0,0.9,0c0,0.4,0.3,0.5,0.7,0.5c1,0,2,0,2.9,0c0.3,0,0.6,0,0.9,0c0.1,0.7,0.6,0.4,1,0.4c1.6-0.2,2.9,0.5,4.3,1.2
		c1.5,0.7,2.9,1.5,4.4,2.2c0.1,0.1,0.3,0.1,0.4,0.2c1.1,1.4,2.8,2,3.9,3.4c0.3,0.4,0.8,0.8,1.4,0.7c1.2,1.4,2.4,2.8,3.3,4.4
		c0.9,1.7,2.1,3.4,2.5,5.4c0.2,0.8,0.6,1.5,0.8,2.2C66.6,30.4,66.6,32.4,66.8,34.5z M41.5,28.1c0.1-1.3,0-2.5-0.2-3.7
		c-0.4-2.2-1.3-4-3.5-5c-0.7-0.3-1.3-0.8-2.1-1.1c-1.3-0.5-2.7-0.9-4.1-1c-2.2-0.1-4.2,0.3-6.2,1.1c-1.6,0.7-3,1.7-4.2,2.9
		S19,24,18.4,25.6c-0.5,1.4-0.9,2.7-0.9,4.3c0,1.8,0.2,3.5,0.8,5.1c0.7,1.9,1.8,3.6,3.3,5c1.1,1.1,2.4,1.9,3.9,2.6
		c1.2,0.5,2.4,0.7,3.6,1.1c1.3,0.4,2.4-0.4,3.5-0.9c3.1-1.4,5.3-3.8,7-6.7c0.4-0.6,0.7-1.3,0.9-1.9C41.3,32.2,41.8,30.2,41.5,28.1z
		 M62.9,29.3c0.1-2.9-2.4-5.5-5.4-5.6c-2.8-0.1-5.6,2.2-5.6,5.5s2.5,5.6,5.4,5.6C60.4,34.8,62.9,32.5,62.9,29.3z M36.9,15.7
		c2.1,0.6,3.3-0.8,2.6-2.9c-0.4-0.1-0.9-0.2-1.2,0.3c0.1,0.8,0.1,0.8-0.4,1.5c-0.3,0.2-0.8-0.1-1.2,0.4c0,0.1,0,0.3,0,0.5
		C36.8,15.5,36.8,15.6,36.9,15.7z M37.3,9.9c-1.4-0.3-2.1,0.2-2.6,1.2c-0.3,0.6-0.2,1.2,0,1.8c0.4,0.1,0.7,0.2,1.1-0.2
		c-0.3-1.3,0.4-1.7,1.6-1.8C37.5,10.6,37.5,10.2,37.3,9.9z"/>
	<path class="st0" d="M2.7,42.5c0.8,0,1.9,1.2,1.8,1.9c0,0.7-1,1.5-1.7,1.5C2,45.9,1,44.8,1,44C1,43.3,1.9,42.4,2.7,42.5z M2.5,43
		c-1,0.7-1,1.4,0,2c0.3,0.2,0.7,0.2,1-0.1s0.3-0.7,0-1C3.2,43.6,2.9,43.1,2.5,43z"/>
	<path class="st0" d="M3,41.2c0.8-0.2,1.1-1,1.8-1c0.3,0.5-0.2,0.8-0.2,1.3C5,42,5.5,42.6,6,43.1c0,0.3-0.1,0.4-0.5,0.5
		C4.7,43,3.9,42.2,3,41.2z"/>
	<path class="st3" d="M1.7,47c0,0.2-0.2,0.2-0.3,0.2C1.4,47,1.6,47.1,1.7,47L1.7,47z"/>
	<path class="st3" d="M1.7,47c0.1-0.1,0.2-0.1,0.4-0.3C2,47.1,1.8,47,1.7,47L1.7,47z"/>
	<path class="st2" d="M37.2,63.8c0.4,0.4,0.9,0.3,1.3,0.2c1-0.3,2-0.1,3-0.2c-0.1,0.6-0.7,1-1.1,1.3c-0.5,0.3-0.9,0.7-1.3,1.1
		c-1,1-2.3,1.5-3.7,1.4c-0.6,0-1,0.6-1.6,0.5c-1-0.2-2-0.1-3.1-0.4c-1-0.3-2-0.7-3-1.1c-0.3-0.1-0.5-0.3-0.7-0.5
		c-0.9-0.9-1.8-1.8-2.7-2.7c-0.5-0.5-0.8-1.2-1-2c0.7,0,1.1-0.7,1.8-0.6c1,0,1.7,0.7,2.5,1c1.1,0.4,2.3,0.8,3.5,1.2
		c0.3,0.1,0.7,0.1,1,0.3C33.7,64,35.5,63.8,37.2,63.8z"/>
	<path class="st1" d="M43,8.1c-1,0-2,0-2.9,0c-0.3,0-0.6,0-0.7-0.5c1,0,2,0,3,0C42.7,7.7,43,7.7,43,8.1z"/>
	<path class="st1" d="M44.9,8.6c-0.4-0.1-0.9,0.2-1-0.4C44.3,8.2,44.9,7.9,44.9,8.6z"/>
	<path class="st2" d="M41.5,28.1c0.2,2.1-0.3,4.1-1,6c-0.3,0.6-0.6,1.3-0.9,1.9c-1.7,2.9-3.9,5.2-7,6.7c-1.1,0.5-2.2,1.3-3.5,0.9
		c-1.2-0.3-2.5-0.6-3.6-1.1c-1.5-0.6-2.8-1.5-3.9-2.6c-1.5-1.4-2.6-3.1-3.3-5c-0.6-1.7-0.8-3.4-0.8-5.1c0-1.5,0.5-2.9,0.9-4.3
		c0.6-1.7,1.6-3.1,2.8-4.3c1.2-1.2,2.5-2.2,4.2-2.9c2-0.8,4.1-1.2,6.2-1.1c1.4,0.1,2.8,0.5,4.1,1c0.8,0.3,1.4,0.8,2.1,1.1
		c2.1,1,3,2.9,3.5,5C41.5,25.6,41.7,26.8,41.5,28.1z"/>
	<path class="st6" d="M36.9,15.7c0-0.1-0.1-0.2-0.1-0.3c0-0.2,0-0.4,0-0.5c0.3-0.4,0.8-0.1,1.2-0.4c0.5-0.7,0.5-0.7,0.4-1.5
		c0.3-0.5,0.7-0.3,1.2-0.3C40.2,14.9,39,16.3,36.9,15.7z"/>
	<path class="st6" d="M37.3,9.9c0.2,0.4,0.2,0.7,0.1,1.1c-1.2,0-1.9,0.5-1.6,1.8c-0.4,0.4-0.7,0.3-1.1,0.2c-0.2-0.6-0.3-1.3,0-1.8
		C35.2,10.1,35.9,9.6,37.3,9.9z"/>
	<path class="st0" d="M2.5,43c0.5,0.2,0.7,0.6,1,0.9c0.2,0.3,0.2,0.7,0,1c-0.3,0.3-0.6,0.3-1,0.1C1.5,44.4,1.5,43.7,2.5,43z"/>
</g>
</svg>
