<?xml version="1.0" encoding="utf-8"?>
<!-- Generator: Adobe Illustrator 21.0.0, SVG Export Plug-In . SVG Version: 6.00 Build 0)  -->
<svg version="1.1" id="Layer_1" xmlns="http://www.w3.org/2000/svg" xmlns:xlink="http://www.w3.org/1999/xlink" x="0px" y="0px"
	 viewBox="0 0 64.7 72.3" style="enable-background:new 0 0 64.7 72.3;" xml:space="preserve">
<style type="text/css">
	.st0{fill:#D7B21C;}
	.st1{fill:#FAC605;}
	.st2{fill:#A3BB07;}
	.st3{fill:#EBE9E5;}
	.st4{fill:none;}
	.st5{fill:#F58440;}
	.st6{fill:#B4EDBA;}
	.st7{fill:#C62216;}
</style>
<g>
	<g>
		<path class="st0" d="M43.2,55.5c-0.1,0.3-0.1,0.5-0.2,0.8c-0.3,1.2-0.5,2.4-1.1,3.4c-0.2,0.7-0.5,1.5-0.8,2.2
			c-0.5,1.5-1,2.9-1.8,4.2C38.2,68,37,70,35,71.2c-2,1.3-3.7,1.4-5.8,0.1c-2-1.3-3.2-3.1-4.3-5.1c-1.1-2-1.8-4.1-2.5-6.3
			c-0.4-1.3-0.7-2.7-1-4c-0.1-0.2-0.1-0.5-0.4-0.7c-1.1,0-2.2,0.4-3.3,1c0-1,0.1-2.1-0.2-3.1c0.9-0.6,2.1-0.6,3.2-1.2
			c-0.3-2.5-0.9-5-0.8-7.5c0-0.3-0.1-0.5,0.2-0.9c1,0.4,1.9,1.2,2.8,1.7c-0.2,2,0.2,3.8,0.8,5.8c1.6-0.6,2.9-1.3,4.4-1.8
			c0.2,0,0.3-0.1,0.3-0.2c0.1,0,0.2-0.1,0.2-0.2c1,0.3,1.9,0.7,2.7,1.2c0,0,0.1,0,0.1,0.1h0.1c0,0,0,0,0.1,0l0,0
			c0.1,0.1,0.1,0.1,0.2,0.2c-0.1,0.1-0.2,0.2-0.2,0.3c0.1,0.2,0,0.4-0.2,0.5c0,0,0,0-0.1,0c-1.4,0.6-2.8,1.2-4.1,1.8
			c-0.3,0.1-0.5,0.2-0.8,0.2l0,0c-0.1,0-0.1,0-0.1,0c-0.3,0.1-0.5,0.1-0.8,0.2c-0.4,0.2-0.8,0.4-1.2,0.6L24.2,54
			c-0.1,1.7,0.6,3.2,1,4.7c0.3,1.4,0.8,2.7,1.4,4c0.7,1.8,1.6,3.4,2.8,4.9c1.5,1.8,3.3,1.9,5,0.5c0.9-0.8,1.6-1.8,2.2-2.9
			c0.7-1.3,1.3-2.7,1.8-4.1c0.8-2.2,1.4-4.5,1.8-6.8c0.1,0,0.2-0.1,0.2-0.2c0.9,0.2,1.8,0.4,2.7,0.8V55
			C43.2,55.1,43.3,55.3,43.2,55.5z"/>
		<path class="st0" d="M31.8,50.3L31.8,50.3c-0.1,0-0.2-0.1-0.2-0.1C31.6,50.2,31.7,50.2,31.8,50.3z"/>
		<path class="st0" d="M40.3,54.1c0,0.1-0.1,0.2-0.2,0.2c0-0.1,0-0.1,0-0.2C40.2,54.1,40.3,54.1,40.3,54.1z"/>
		<polygon class="st0" points="28.4,49.1 28.4,49.1 28.4,49 		"/>
	</g>
	<path class="st0" d="M36.5,24.3c-0.3,0-0.5-0.1-0.7-0.3c-1-1-2.3-1.5-3.5-2c0.1-0.2,0.2-0.3,0.3-0.4c1,0.5,2.1,1,3.1,1.6
		c0.1,0.1,0.2,0.1,0.3,0.3C36.1,23.9,36.6,23.9,36.5,24.3z"/>
	<path class="st0" d="M63.7,23.5L63.7,23.5C63.7,23.5,63.6,23.5,63.7,23.5L63.7,23.5z"/>
	<g>
		<path class="st1" d="M63.9,49.5c0-0.6-0.2-1.1-0.5-1.6c0-0.1-0.1-0.2-0.2-0.3c-0.1-0.2-0.2-0.4-0.3-0.5c-0.3-0.1-0.2-0.4-0.3-0.6
			c-0.4-0.6-0.7-1.2-1-1.9l0,0c-0.1-0.2-0.2-0.3-0.3-0.5c-0.7-1-1.5-1.9-2.3-2.8v0.1c-0.1,0-0.2,0-0.3,0c0-0.1,0-0.2,0-0.2
			c0-0.1,0-0.1,0-0.2v-0.1c-0.2-0.2-0.3-0.4-0.5-0.6l0,0c-0.1,0-0.1-0.1-0.2-0.1c-0.1,0.1-0.1,0.1-0.2,0.1c0-0.1,0-0.1,0.1-0.2
			c-0.1,0-0.1-0.1-0.1-0.1l0,0c-0.3-0.3-0.5-0.6-0.8-0.9l0,0l0,0l0,0h-0.1l0,0v-0.5c-0.8-0.9-1.8-1.8-2.7-2.6l0,0h-0.1
			C54,36,54,35.9,54,35.9l0,0c-0.1,0-0.1,0-0.2,0s-0.1-0.1-0.2-0.1l0,0h-0.1c0-0.1-0.1-0.2-0.1-0.3c-0.3-0.7-1-1-1.7-1.4
			c-0.1-0.1-0.1-0.2-0.2-0.3c-0.1-0.2-0.3-0.4-0.4-0.5c-0.5-0.5-1.2-0.8-1.7-1.3c-0.6-0.5-1.3-0.9-2.1-1.2l0,0
			c-0.3-0.2-0.5-0.3-0.7-0.5c-0.7-0.4-1.3-0.9-1.8-1.5c-1.1-0.3-2.1-1-2.9-1.8v-0.1c0,0,0,0,0-0.1c-0.6,0.2-5.1-3-5.4-3.2
			c0.1,0.4,0.5,0.5,0.5,0.9c-0.3,0-0.5-0.1-0.7-0.3c-1-1-2.3-1.5-3.5-2c0.1-0.2,0.2-0.3,0.3-0.4c0,0,0,0,0-0.1c-0.1,0-0.1,0-0.2,0
			s-0.1-0.1-0.2-0.1c-0.1-0.1-0.2-0.1-0.2-0.1c-0.2-0.1-0.3-0.1-0.5-0.2c0,0-0.1-0.1-0.2-0.1c-1-0.3-7.2-2.7-7.4-2.9
			c-0.9-0.1-1.7-0.3-2.6-0.6c0-0.3,0-0.5,0-0.7c-0.2,0.2-0.4,0.4-0.8,0.2c-0.9-0.4-1.8-0.6-2.8-0.8c0.1,0.3,0,0.7-0.5,0.7
			c-0.3,0-0.4-0.2-0.5-0.4c-0.1,0.9,0.2,1.8-0.5,2.5c0.7-0.1,1.4,0.2,2.1,0.4c0.8,0.2,1.5,0.6,2.3,0.8c1,0,1.9,0.5,2.8,0.9
			c0.1,0,0.1,0,0.2,0.1c0.1,0,0.1,0.1,0.2,0.1c0.3,0.1,0.6,0.1,0.9,0.1c0.2,0.3,0.4,0.4,0.7,0.6c0,0,0.3,0.1,0.5,0.2
			c0.3,0.1,0.6,0.2,1,0.2l0,0c0,0.1,0.1,0.2,0.1,0.3c0.2,0.1,0.3,0.1,0.5,0.2c0.1,0,0.3,0,0.4,0l0,0c0,0.1,0,0.1,0,0.2
			c0.6,0.2,1.1,0.5,1.7,0.7l0,0c0.5,0.2,1.1,0.5,1.6,0.7l0,0c0.3,0.1,0.6,0.2,1,0.3c0.2,0.1,0.4,0.1,0.4,0.3v0.1
			c0.9,0.5,3.1,1.8,3.4,2c1,0.2,1.9,0.5,2.4,1.4c1.1,0.3,2,1.1,2.9,1.7c0.1,0.1,0.2,0.2,0.4,0.2c0.6,0.4,1.2,0.7,1.8,1.1
			c0.1,0,0.1,0,0.2,0.1c0.2,0.2,0.5,0.4,0.8,0.5s0.3,0.4,0.2,0.6c0.2-0.2,0.5,0,0.7,0.1c1.3,1,2.8,1.8,3.9,3.1c0.7,0.5,1.3,1,2,1.5
			c0.1,0,0.2,0.1,0.2,0.2l0,0c0.1,0.1,0.2,0.2,0.3,0.3l0,0l0,0c0.5,0.5,1,1,1.6,1.4c0.2,0.2,0.3,0.3,0.4,0.5l0.1,0.1
			c0,0.1,0.1,0.1,0.1,0.2c0,0.1,0.1,0.2,0.2,0.3l0,0l1.1,1l0.8,1l0,0c0.3,0.3,0.6,0.6,0.9,1c0.2,0.2,0.4,0.4,0.6,0.7l0,0
			c0.1,0.1,0.2,0.2,0.2,0.3l0,0c0,0.1,0.1,0.1,0.2,0.2l0,0l0,0c0.3,0.3,0.5,0.5,0.8,0.9c0.1,0.1,0.1,0.3,0.2,0.4l0,0
			c0.1,0.1,0.2,0.3,0.2,0.4c0.1,0,0.3,0.1,0.3,0.2c0.2,0.1,0.2,0.3,0.2,0.5l0,0l0,0c0.1,0.2,0.2,0.4,0.5,0.5l0,0l0,0
			c0,0.8,0.8,1.3,0.7,2.1c0,0.1,0,0.2,0.1,0.3c0.1,0.8-0.1,1.4-0.4,2.1l0,0c-0.1,0.2-0.3,0.5-0.5,0.7c-0.7,0.9-1.8,1.1-2.8,1.3
			c-0.5,0.1-1,0.1-1.5,0.1c-0.1-0.1-0.2-0.2-0.4-0.2c-2.5-0.1-5-0.3-7.5-0.7c-0.3-0.1-0.6-0.1-0.9-0.1c-1.1-0.3-2.2-0.7-3.3-1
			c0-0.3-0.1-0.6-0.1-0.8c-0.2,0.1-0.2,0.4-0.5,0.5c-0.8-0.2-1.7-0.3-2.4-1c-1,0.2-1.7-0.5-2.5-0.8C37.8,50,36.8,49.7,36,49
			c-1-0.2-1.9-0.8-2.7-1.3c-0.2-0.1-0.1,0.4-0.5-0.5c-1.7-0.2-3-1.4-4.4-2.1c-1.2-0.6-2.3-1.2-3.4-1.9c-0.6-0.4-1.2-0.8-1.7-1.3
			c-0.5-0.4-0.5-0.8-0.5-1.5c-0.1,0.4,0.1,0.8-0.1,1.3c-0.9-0.8-2.1-1.2-2.8-2.2c-1.7-0.8-3.2-1.9-4.4-3.3V36
			c-0.4-0.3-0.8-0.5-1.2-0.8c-0.4-0.3-0.8-0.5-1.1-1c-0.2-0.1-0.5-0.1-0.7-0.3c-2.6-2.3-5-4.9-7-7.8C4.7,25,4,23.7,3.7,22.3
			c-0.4-2.2,0.2-3.5,2.5-4.1c0.2,0,0.3-0.1,0.5-0.1v-2.8c-0.3-0.2-0.5,0-0.7,0.1c-0.9-0.1-1.6,0.3-2.4,0.6c-1.8,0.8-2.7,2.2-3.1,4
			c-0.3,1.5,0.1,3,0.6,4.3c1,2.6,2.6,4.9,4.4,6.9c1.6,1.7,4.9,5.1,4.8,5.2c0.1-0.1,0.3,0,0.4,0.1c0,0,0.1,0,0.1-0.1
			c0.7,0.6,1.3,1.4,2.3,1.7c-0.1,0.3,0,0,0,0c0.5,0.6,0.6,0.8,1.1,1.2c1.8,1.5,3.8,2.8,5.7,4.2c0.4,0.3,0,0,0.4,0.3
			c1,0.4,1.9,1.2,2.8,1.7c1.7,1,3.4,2,5.1,2.9c0.3,0.1,0.4,0.3,0.5,0.6l0,0c1,0.3,1.9,0.7,2.7,1.2l0,0c0.1,0,0.2-0.1,0.3-0.1
			c0.4-0.1,0.7,0.3,0.6,0.6l0,0h0.1l0.1,0.1c0.3,0.2,0.5,0.3,0.8,0.5c2.1,1.2,4.3,2.3,6.6,3.3c0.1,0,0.2,0.1,0.3,0
			c0-0.1,0-0.1,0-0.2c0.1,0,0.1,0,0.2,0c0.9,0.2,1.8,0.4,2.7,0.8v0.1c0.2,0.1,0.3,0.3,0.2,0.5c-0.1,0.3-0.1,0.5-0.2,0.8
			c0.1-0.2,0.2-0.5,0.3-0.7c0.6-0.2,0.9,0.3,1.4,0.4c1.2,0.6,2.4,1,3.8,1.1c1.1,0.2,2.3,0.3,3.5,0.3c3.8,0.5,7.7,0.8,10.2-2.1
			c0.9-0.7,1.4-1.8,1.6-3C64,51.4,63.9,50.4,63.9,49.5z M54.7,54.8c-0.1,0-0.3,0.1-0.3-0.2c0,0,0.2,0,0.3,0
			C54.8,54.7,54.8,54.8,54.7,54.8z"/>
		<path class="st1" d="M17.3,16.9c-0.3,0-0.4-0.2-0.5-0.4c0-0.1,0.1-0.2,0.1-0.3c0.2,0,0.4,0,0.6,0c0,0,0,0,0.1,0s0.1,0,0.2,0
			C17.9,16.5,17.8,16.9,17.3,16.9z"/>
		<path class="st1" d="M31.3,24.5c-0.5-0.2-1.1-0.4-1.6-0.7C30.2,24,30.8,24.2,31.3,24.5z"/>
		<path class="st1" d="M36.5,24.3c-0.3,0-0.5-0.1-0.7-0.3c-1-1-2.3-1.5-3.5-2c0.1-0.2,0.2-0.3,0.3-0.4c1,0.5,2.1,1,3.1,1.6
			c0.1,0.1,0.2,0.1,0.3,0.3C36.1,23.9,36.6,23.9,36.5,24.3z"/>
		<path class="st1" d="M41.5,26.7L41.5,26.7C41.5,26.6,41.5,26.6,41.5,26.7L41.5,26.7z"/>
		<path class="st1" d="M44.7,32.9L44.7,32.9c-0.4-0.4-0.8-0.8-1.2-1.2c0.1,0,0.1,0,0.2,0.1c0.2,0.2,0.5,0.4,0.8,0.5
			C44.8,32.4,44.8,32.7,44.7,32.9z"/>
		<path class="st1" d="M53.3,35.6L53.3,35.6c-0.1-0.1-0.2-0.2-0.2-0.3C53.2,35.5,53.3,35.6,53.3,35.6z"/>
		<path class="st1" d="M53.9,35.9L53.9,35.9L53.9,35.9C53.8,36,53.8,35.9,53.9,35.9L53.9,35.9C53.8,35.9,53.8,35.9,53.9,35.9z"/>
		<path class="st1" d="M55.2,41.6L55.2,41.6L55.2,41.6z"/>
		<path class="st1" d="M53.8,40.2L53.8,40.2L53.8,40.2z"/>
	</g>
	<path class="st2" d="M17.7,16c-0.3-0.1-0.5-0.2-0.8-0.2c-0.1-0.1-0.1-0.2-0.1-0.3c-0.9-2.8-3.7-4.2-5.7-3.9c-1.6,0.2-2.9,1-3.9,2.3
		c-0.4,0.6-0.7,1.3-1.7,1.3c0,0.1,0,0.1,0.1,0.2c0.2-0.1,0.4-0.3,0.7-0.1v2.8c0.9,3.1,3.3,4.8,6.4,4.2c1.7-0.3,3.1-1.3,3.8-3.1
		c0.7-0.7,0.4-1.6,0.5-2.5c0-0.1,0.1-0.2,0.1-0.3c0.2,0,0.4,0,0.6,0c0,0,0,0,0.1,0s0.1,0,0.1-0.1l0,0C17.7,16,17.7,16,17.7,16z
		 M13.4,17.1c-0.8,0-1.8-0.9-1.8-1.7c0-0.9,0.8-1.8,1.8-1.8c0.8,0,1.7,0.9,1.7,1.8C15.1,16.2,14.2,17.1,13.4,17.1z"/>
	<path class="st2" d="M63.4,23.8c-0.8-0.5-1.6-1-2.4-1.4c-1.5-0.3-2.9-0.2-4.3,0.5c-2.1,1.1-3.5,4.3-2.3,6.8
		c0.2,0.5,0.4,0.9,0.7,1.4c0.9,0.4,1.5,1.1,2.3,1.6c0.8,0.4,1.7,0.3,2.6,0.3c2.3-0.1,4.6-2.4,4.7-4.9C64.8,26.4,64.2,25.1,63.4,23.8
		z M63,26.5c0,0.1,0,0.1-0.1,0.2c0,0.3-0.1,0.5-0.4,0.5c-0.8,0.7-1.6,0.7-2.3,0c-0.9-0.9-0.8-1.6,0.3-2.9c0.5-0.1,1-0.2,1.5-0.1
		C63.1,24.8,63.3,25.3,63,26.5z"/>
	<path class="st2" d="M17.6,53.1c-0.8-0.8-1.5-1.9-2.6-2.4c-2.8-1.3-6.1-0.3-7.3,2.7c-0.1,0.4-0.5,0.7-0.5,1.1
		c-0.1,1,0.3,1.9,0.3,2.8c0.2,0.4,0.3,0.7,0.6,1c1.4,2,3.7,3.1,6.4,2c1.9-0.8,3.1-2.1,3.3-4.2C17.8,55.2,17.9,54.1,17.6,53.1z
		 M14.6,55.6c-1,0-1.9-0.8-1.8-1.8c0-0.9,0.9-1.8,1.8-1.8c1,0,1.8,0.8,1.8,1.8C16.3,54.7,15.5,55.5,14.6,55.6z"/>
	<path class="st0" d="M12.9,37.9c-0.1,0.3-0.7,0.6-0.8,0.7c-2.9,2.5-5.6,5.3-7.6,8.7c-0.8,1.2-1.4,2.6-1.4,4.1
		c0,1.2,0.5,2.1,1.6,2.5c0.8,0.3,1.6,0.7,2.5,0.7c-0.1,1,0.3,1.9,0.3,2.8c-2.5,0-4.7-0.7-6.4-2.8c-1.1-1.4-1.3-3-0.9-4.6
		c0.6-3,2.3-5.5,4.3-7.9c1.4-1.8,3-3.4,4.6-4.9c0.1,0,0.1-0.1,0.2-0.2c0.2-0.1,0.3-0.2,0.5-0.2c0.2-0.2,0.4-0.3,0.7-0.5
		c0,0,0.1,0,0.1-0.1C11.2,36.8,11.9,37.6,12.9,37.9z"/>
	<path class="st0" d="M64,19.7c-0.4-1.8-1.4-3-2.9-3.8c-1.4-0.7-2.9-1.1-4.4-1.1c-1.7,0-3.3,0-5,0.3c-1.6,0.3-3.1,0.6-4.6,0.9
		c-1.2,0.3-2.5,0.7-3.7,1.1c-0.7-1-0.7-2.3-1.1-3.4c-0.9-2.9-1.7-5.9-3.4-8.5c-0.7-1-1.3-2.1-2.2-2.8l0,0c-0.3-0.5-1-0.9-1.4-1.3
		c-0.5-0.4-1-0.8-1.6-0.8c0-0.1-0.1-0.1-0.2-0.2c-0.8-0.2-1.5-0.2-2.1,0.1c-0.7,0-1.4,0.1-2,0.6c-0.7,0.5-1.1,1.2-1.9,1.7
		c-0.2,0.1-0.2,0.2-0.2,0.4l0,0c-0.4,0.4-0.6,0.9-1.1,1.2c-0.6,1.1-1.3,2.2-1.8,3.3c-0.6,1.4-1.1,2.9-1.6,4.4c-0.6,1.6-1,3.3-1.2,5
		c0,0.2,0,0.5,0,0.7c0.8,0.3,1.7,0.5,2.6,0.6c0.3-1.2,0.6-2.4,0.9-3.6c0.6-2.5,1.4-4.9,2.6-7.1c0.3-0.6,0.5-1.2,0.9-1.7l0,0
		c0.1,0,0.1-0.1,0.2-0.1l0.1-0.1l0,0c0.2-0.3,0.4-0.5,0.6-0.8c0.1-0.1,0.2-0.2,0.2-0.3c0,0,0.4-0.1,0.5-0.3c0,0,0,0,0-0.1
		c0.7-0.2,1.6-0.3,2.1-0.3c1.9,0,2.7,1,3.6,2.2c0,0.1,0,0.2,0.1,0.2c1.1,1.2,1.5,2.6,2.1,4.1c0.4,1.1,0.8,2.3,1.1,3.5
		c0.4,1.3,0.7,2.5,1,3.8c0.1,0.3,0,0.6-0.2,0.9c-2.4,1-4.9,1.9-7.2,3.1c0,0,0,0,0,0.1c1,0.5,2.1,1,3.1,1.6c0.1,0.1,0.2,0.1,0.3,0.3
		c0,0,0-0.1,0-0.2c1.3-0.9,2.9-1.5,4.7-2c0.2,1.4,0.4,2.7,0.6,4c0,0.2,0.1,0.4,0.1,0.5c0.2,0.2,0.1,0.5,0.1,0.7v0.1v0.1v0.1
		c0.8,0.8,1.7,1.5,2.9,1.8c0.1-1.8-0.2-3.6-0.5-5.3c-0.2-1-0.2-2.1-0.3-3.2c2-0.7,4-1.2,6.1-1.7c2.5-0.6,5-0.6,7.6-0.6
		c1,0,1.8,0.3,2.6,0.8c0.7,0.4,1.2,1,1.1,2c0,0.6,0,1.2-0.1,1.8c0.8,0.5,1.6,0.9,2.4,1.4c0.1-0.1,0.2-0.2,0.3-0.3l0,0
		C63.8,22.3,64.2,21.1,64,19.7z M28.3,2L28.3,2L28.3,2L28.3,2L28.3,2z M29.1,2.4L29.1,2.4c-0.2,0.2-0.5,0.4-0.7,0.6
		c0-0.1,0-0.2,0.1-0.3c0.2-0.2,0.4-0.5,0.6-0.7c0,0.1,0.1,0.2,0.1,0.3C29.1,2.3,29.1,2.3,29.1,2.4z"/>
	<path class="st0" d="M29.1,2.2c0,0,0,0.1,0,0.2l0,0c-0.2,0.2-0.5,0.4-0.7,0.6c0-0.1,0-0.2,0.1-0.3c0.2-0.2,0.4-0.5,0.6-0.7
		C29,2,29.1,2.1,29.1,2.2z"/>
	<path class="st0" d="M57.4,32.7c-0.6,0.7-1.2,1.4-1.9,2c-0.1,0.1-0.2,0.2-0.3,0.2c-0.4,0-0.6,0.3-0.8,0.5c-0.1,0.2-0.2,0.4-0.5,0.4
		h-0.1l0,0l0,0l0,0c-0.1,0-0.1,0-0.2,0s-0.1-0.1-0.2-0.1l0,0c-0.1-0.1-0.2-0.2-0.3-0.3c-0.3-0.7-1-1-1.7-1.4
		c-0.1-0.1-0.1-0.2-0.2-0.3c0.2,0.1,0.3,0.2,0.5,0.3c0.9-0.5,1.6-1.2,2.3-1.9c0.3-0.4,0.6-0.8,1.2-1C56,31.5,56.6,32.1,57.4,32.7z"
		/>
	<path class="st2" d="M63.7,23.6L63.7,23.6C63.7,23.5,63.6,23.5,63.7,23.6L63.7,23.6C63.7,23.5,63.7,23.6,63.7,23.6z"/>
	<path class="st0" d="M32.7,25.2c-0.9-0.3-1.7,0.3-2.4,0.7c-2,1.1-4,2.3-5.9,3.5c-0.4,0.3-0.9,0.5-1.3,0.8c-0.5,0.3-0.5,0.8-0.5,1.3
		c-0.3,2.5-0.1,4.9-0.2,7.4c0,0.5,0.1,2.3-0.1,2.8c-0.9-0.8-2.1-1.2-2.8-2.2V33c-0.4,0.1-0.7,0.1-0.9,0.4c-1.2,0.9-2.3,1.8-3.5,2.6
		c-1.1-0.8-1.5-0.9-2.2-1.9c2.1-1.6,4.2-3.1,6.4-4.7c0.4-0.3,0.6-0.6,0.7-1.1s0.2-1.1,0.2-1.7c0-1.7,0.2-3.3,0.6-5
		c0.1-0.4,0.1-0.9,0.1-1.4c1,0,1.9,0.5,2.8,0.9c0.1,0,0.1,0,0.2,0.1l0,0c-0.5,1.8-0.8,3.6-0.7,5.6c1.5-0.9,2.8-1.7,4.2-2.4
		c0.7-0.3,0.9-0.8,0.9-1.4c0.6,0.2,1.1,0.5,1.7,0.7l0,0c0.5,0.3,1.1,0.5,1.6,0.7l0,0c0.3,0.1,0.6,0.2,1,0.3c0.2,0.1,0.4,0.1,0.4,0.3
		C32.7,25.2,32.7,25.2,32.7,25.2z"/>
	<path class="st0" d="M51.8,38c-0.1-0.1-0.2-0.2-0.3-0.3l0,0c-0.1-0.1-0.1-0.1-0.2-0.2c-0.7-0.5-1.3-1-2-1.5
		c-0.4,0.8-1.2,1.2-1.9,1.6c-0.8,0.5-1.4,1.5-2.7,1.7c0-2.2,0-4.3-0.1-6.4l0,0c-0.3-0.5-0.7-0.9-1.1-1.3c-0.5-0.4-1.2-0.8-1.8-1.1
		c0,0.2,0,0.5,0,0.7c0.1,3,0.1,6,0,9c0,0.9-0.3,1.6-1.2,2.1c-2.7,1.7-5.4,3.2-8.2,4.7c0.1,0.7,2.2,1.5,3.2,1.8
		c0.3-0.6,0.9-0.7,1.4-1c1.4-0.9,2.8-1.6,4.4-2.5c0.1,2-0.5,3.8-0.6,5.6c0.7,0.6,1.5,0.8,2.4,1c0.3-0.1,0.3-0.4,0.5-0.5
		c0.3-2.4,0.8-4.8,0.8-7.2c0-0.4,0.1-0.8,0.4-1c1.4-1,2.7-2,4.1-2.9c0.1-0.1,0.2-0.2,0.3-0.4c0.4-0.3,0.8-0.6,1.2-0.9c0,0,0,0,0-0.1
		c0.1,0,0.2-0.1,0.3-0.1l0,0c0,0,0,0,0-0.1c0,0,0.1,0,0.1-0.1h0.1c0.3-0.3,0.5-0.3,0.5-0.5C51.7,38.1,51.7,38.1,51.8,38L51.8,38z"/>
	<path class="st3" d="M28.6,48.8c0.2,0-0.2,0.1-0.2,0.2c-0.1,0.1-0.2,0.1-0.3,0.2c-1.5,0.5-2.8,1.2-4.4,1.8c-0.6-1.9-1-3.8-0.8-5.8
		c1.7,1,3.4,2,5.1,2.9C28.3,48.3,28.5,48.5,28.6,48.8z"/>
	<path class="st4" d="M28.6,48.8L28.6,48.8c0,0.1-0.1,0.2-0.2,0.2"/>
	<path class="st1" d="M41.4,26C41.4,26,41.4,25.9,41.4,26c0.3,0.1,0.2,0.4,0.2,0.6l-0.1-0.1L41.4,26z"/>
	<path class="st3" d="M49.3,36.1c-0.4,0.8-1.2,1.2-1.9,1.6c-0.8,0.5-1.4,1.5-2.7,1.7c0-2.2,0-4.3-0.1-6.4l0,0l0.1-0.1
		c0.2-0.2,0.5,0,0.7,0.1C46.7,34,48.2,34.8,49.3,36.1z"/>
	<path class="st1" d="M38.4,28.6L36,27.2C37,27.4,37.9,27.7,38.4,28.6z"/>
	<path class="st0" d="M27.5,22.9c-0.2,0-0.4,0-0.5-0.2C27.2,22.7,27.3,22.8,27.5,22.9z"/>
	<path class="st5" d="M58.9,41.3L58.9,41.3L58.9,41.3c-0.1,0.1-0.2,0.1-0.3,0.1c0-0.1,0-0.2,0-0.2c0-0.1,0-0.1,0-0.2
		c0.1,0,0.1,0,0.1,0l0,0L58.9,41.3z"/>
	<path class="st3" d="M15.1,15.3c0,0.9-0.9,1.8-1.7,1.8c-0.8,0-1.8-0.9-1.8-1.7c0-0.9,0.8-1.8,1.8-1.8
		C14.2,13.5,15.1,14.4,15.1,15.3z"/>
	<path class="st3" d="M63,26.5c0,0.1,0,0.1-0.1,0.2c-0.4,0-0.5,0.2-0.4,0.5c-0.8,0.7-1.6,0.7-2.3,0c-0.9-0.9-0.8-2.3,0.3-2.9
		c0.5-0.1,1-0.2,1.5-0.1C63.1,24.8,63.3,25.3,63,26.5z"/>
	<path class="st3" d="M16.4,53.8c0,0.9-0.8,1.7-1.8,1.7s-1.9-0.8-1.8-1.8c0-0.9,0.9-1.7,1.8-1.8C15.6,52,16.4,52.8,16.4,53.8z"/>
	<path class="st0" d="M29.1,2.2c0,0,0,0.1,0,0.2l0,0c-0.2,0.2-0.5,0.4-0.7,0.6c0-0.1,0-0.2,0.1-0.3c0.2-0.2,0.4-0.5,0.6-0.7
		C29,2,29.1,2.1,29.1,2.2z"/>
	<polygon class="st2" points="28.3,2 28.3,2 28.3,2 	"/>
	<polygon class="st2" points="28.3,2 28.3,2 28.3,2 	"/>
	<path class="st6" d="M57.8,40.1c-0.1,0.1-0.1,0.1-0.2,0.1c0-0.1,0-0.1,0.1-0.2C57.8,40,57.8,40,57.8,40.1z"/>
	<path class="st4" d="M59.6,46.6c0,0.2,0,0.3,0.1,0.5c0,0.1,0,0.2-0.1,0.3"/>
	<path class="st0" d="M59.8,47.1L59.8,47.1L59.8,47.1L59.8,47.1z"/>
	<polygon class="st0" points="60.3,47.6 60.3,47.6 60.3,47.6 	"/>
	<path class="st0" d="M54.8,54.7c0,0.1,0,0.1,0,0.2c-0.1,0-0.3,0.1-0.3-0.2C54.4,54.6,54.6,54.7,54.8,54.7z"/>
	<path class="st0" d="M59.8,47.1c0-0.2,0-0.4-0.2-0.5L59.8,47.1z"/>
	<path class="st0" d="M59.8,47.1L59.8,47.1L59.8,47.1z"/>
	<path class="st4" d="M10,36.2c-0.1,0.2-0.3,0.4-0.3,0.6c0.2-0.2,0.4-0.3,0.7-0.5C10.3,36.1,10.2,36.1,10,36.2z M31.6,49.9
		c-0.1,0-0.2,0.1-0.3,0.1l0,0c0,0,0.1,0,0.1,0.1h0.1c0,0,0,0,0.1,0l0,0c0.1,0,0.2,0.1,0.2,0.1c0.1,0,0.2,0.1,0.3,0.1c0,0,0,0,0.1,0
		l0,0C32.3,50.1,32,49.7,31.6,49.9z M32.4,50.5L32.4,50.5l-0.2-0.1c0.3,0.2,0.6,0.4,1,0.5C32.9,50.8,32.7,50.7,32.4,50.5z
		 M54.4,54.7c0,0.2,0.2,0.2,0.3,0.2c0-0.1,0-0.1,0-0.2C54.6,54.7,54.4,54.6,54.4,54.7z M59.8,47.1L59.8,47.1 M60.3,47.6L60.3,47.6
		L60.3,47.6L60.3,47.6L60.3,47.6z"/>
	<path class="st6" d="M62.9,47.1c-0.3-0.1-0.2-0.4-0.3-0.6c0.1,0,0.2,0.1,0.2,0.1v0.1C62.9,46.8,62.9,46.9,62.9,47.1z"/>
	<path class="st6" d="M61,49.7L61,49.7z"/>
	<path class="st7" d="M32.1,43.1C28,43.4,24.9,39.4,25,36c0.1-3.6,3.1-7.1,7.2-7c3.9,0.1,7,3.1,7,7.1C39.3,39.9,36.1,43.4,32.1,43.1
		z M35.9,36.2c0.9,0,1.8-0.7,1.8-1.6c0-0.9-0.8-1.9-1.7-1.9c-1,0-1.7,0.7-1.7,1.7C34.3,35.5,34.9,36.2,35.9,36.2z"/>
	<path class="st3" d="M35.9,36.2c-1,0-1.7-0.7-1.6-1.8c0-1,0.7-1.7,1.7-1.7c0.9,0,1.8,0.9,1.7,1.9C37.7,35.5,36.9,36.2,35.9,36.2z"
		/>
	<polygon class="st0" points="28.3,2 28.3,2 28.3,2 	"/>
	<path class="st0" d="M29.1,2.2c0,0,0,0.1,0,0.2l0,0c-0.2,0.2-0.5,0.4-0.7,0.6c0-0.1,0-0.2,0.1-0.3c0.2-0.2,0.4-0.5,0.6-0.7
		C29,2,29.1,2.1,29.1,2.2z"/>
	<path class="st1" d="M17.3,16.9c-0.3,0-0.4-0.2-0.5-0.4c-0.1-0.3,0.1-0.6,0.5-0.6c0.2,0,0.3,0.1,0.4,0.2c0,0,0,0.1,0.1,0.1
		C17.9,16.5,17.8,16.9,17.3,16.9z"/>
	<path class="st1" d="M23.8,21.4c-0.1,0-0.1,0-0.2-0.1l0,0c0,0-0.1,0-0.1-0.1C23.6,21.2,23.6,21.2,23.8,21.4
		C23.7,21.3,23.7,21.3,23.8,21.4z"/>
	<path class="st1" d="M25.5,22c-0.6-0.2-1.1-0.5-1.7-0.7c0.3,0.1,0.6,0.1,0.9,0.1C25,21.7,25.2,21.9,25.5,22z"/>
	<path class="st1" d="M27,22.7c-0.4-0.2-0.7-0.3-1.1-0.5c0.3,0.1,0.6,0.2,1,0.2l0,0C26.9,22.5,27,22.6,27,22.7z"/>
	<path class="st1" d="M27.9,23c-0.2-0.1-0.3-0.1-0.4-0.2c0.1,0,0.3,0,0.4,0l0,0C27.9,22.9,27.9,23,27.9,23z"/>
	<path class="st1" d="M32.7,25.1c-0.4-0.2-0.9-0.4-1.3-0.6c0.3,0.1,0.6,0.2,1,0.3C32.5,24.9,32.6,24.9,32.7,25.1z"/>
	<path class="st1" d="M53.4,39.5c0.2,0.2,0.3,0.3,0.4,0.5L53.4,39.5z"/>
	<path class="st1" d="M51.9,38.2L51.9,38.2z"/>
	<path class="st1" d="M56.1,42.6c-0.7-0.7-1.4-1.3-1.9-2l1.1,1L56.1,42.6z"/>
	<path class="st1" d="M53.9,36L53.9,36c-0.1-0.1-0.2-0.1-0.2-0.2l0,0c-0.1,0-0.1,0-0.2,0s-0.1-0.1-0.2-0.1c0.1,0,0.2,0,0.3,0.1l0,0
		l0.1,0.1l0,0C53.8,35.9,53.8,35.9,53.9,36L53.9,36z"/>
	<path class="st1" d="M56.8,38.8L56.8,38.8L56.8,38.8l-0.1-0.2C56.7,38.7,56.7,38.7,56.8,38.8z"/>
	<path class="st1" d="M58,40.2c-0.1,0-0.1-0.1-0.2-0.1c-0.1,0.1-0.1,0.1-0.2,0.1c0-0.1,0-0.1,0.1-0.2c-0.1,0-0.1-0.1-0.1-0.1l0,0
		C57.8,39.9,57.9,40.1,58,40.2z"/>
	<path class="st1" d="M58.9,41.3L58.9,41.3c-0.1,0.1-0.2,0.1-0.3,0.1c0-0.1,0-0.2,0-0.2c0-0.1,0-0.1,0-0.2v-0.1
		c0.1,0.1,0.1,0.1,0.2,0.2l0,0C58.8,41.1,58.9,41.2,58.9,41.3L58.9,41.3z"/>
	<path class="st1" d="M63.4,47.9c0-0.1-0.1-0.2-0.2-0.3c-0.1-0.2-0.2-0.4-0.3-0.5c-0.3-0.1-0.2-0.4-0.3-0.6c-0.4-0.6-0.7-1.2-1-1.9
		c0.5,0.6,0.9,1.3,1.3,2v0.1L63.4,47.9z"/>
	<path class="st0" d="M44.7,32.9C44.7,32.9,44.7,33,44.7,32.9L44.7,32.9c-0.4-0.4-0.8-0.8-1.2-1.2c0.1,0,0.1,0,0.2,0.1
		c0.2,0.2,0.5,0.4,0.8,0.5C44.8,32.4,44.8,32.7,44.7,32.9z"/>
	<path class="st0" d="M10.5,37c-0.2,0.3-0.5,0.5-0.7,0.8c-0.4,0.4-1-0.1-0.8-0.6c0,0,0-0.1,0.1-0.1c0.2-0.3,0.5-0.5,0.7-0.8
		c0.1-0.1,0.1-0.1,0.2-0.1c0.1-0.1,0.3,0,0.4,0.1C10.6,36.4,10.7,36.7,10.5,37z"/>
	<path class="st0" d="M41.5,26.6L41.5,26.6c0,0.1,0,0.1,0,0.2C41.5,26.7,41.5,26.7,41.5,26.6C41.4,26.6,41.4,26.6,41.5,26.6
		C41.4,26.5,41.4,26.5,41.5,26.6c-0.1-0.3-0.1-0.4-0.1-0.6c0-0.2,0-0.4,0-0.7c0,0.2,0.1,0.4,0.1,0.5C41.6,26.1,41.5,26.3,41.5,26.6z
		"/>
	<path class="st0" d="M32.2,50.5L32.2,50.5c0,0.2-0.1,0.3-0.3,0.4l0,0c-0.1,0.1-0.2,0.2-0.4,0.2c0,0,0,0-0.1,0
		c0.2-0.1,0.2-0.3,0.2-0.5c0.1-0.1,0.2-0.2,0.2-0.3c-0.1,0-0.2-0.1-0.2-0.2l0,0c0,0,0,0-0.1,0h-0.1c0,0-0.1,0-0.1-0.1l0,0
		c0.1,0,0.2-0.1,0.3-0.1C32,49.7,32.3,50.1,32.2,50.5z"/>
	<path class="st0" d="M55.5,34.6C55.5,34.6,55.5,34.7,55.5,34.6c-0.3,0.7-0.7,1.1-1.3,1.4c-0.1,0.1-0.3,0.1-0.4,0l0,0h-0.1
		c-0.1,0-0.1-0.1-0.1-0.1s0,0-0.1-0.1l0,0c-0.1-0.2-0.1-0.5,0.2-0.7c0.3-0.2,0.6-0.5,0.8-0.8C54.8,33.7,55.8,34,55.5,34.6z"/>
	<path class="st1" d="M32.2,50.5L32.2,50.5c-0.2,0-0.3-0.1-0.4-0.2l0,0c-0.1,0-0.2-0.1-0.2-0.2l0,0c0,0,0,0-0.1,0h-0.1
		c0,0-0.1,0-0.1-0.1c0.1,0,0.2-0.1,0.3-0.1C32,49.7,32.3,50.1,32.2,50.5L32.2,50.5z"/>
	<path class="st1" d="M40.3,54.1c0,0.1-0.1,0.2-0.2,0.2c0-0.1,0-0.1,0-0.2C40.2,54.1,40.3,54.1,40.3,54.1z"/>
	<path class="st1" d="M51.8,38L51.8,38z"/>
	<path class="st1" d="M62.2,50.1c-0.1-1.5-1.2-3-2.1-4.2c-0.4-0.5-1.2,0-0.9,0.5c0.4,0.6,0.8,1.2,1.1,1.8c0.3,0.5,0.7,1.1,0.8,1.7
		C61,50,61,50.1,61,50.2c-0.1,2.8-2.7,4.2-5.2,3.8c-0.6-0.1-0.9,0.9-0.3,1c3.1,0.4,6.2-1.2,6.5-4.5C62.1,50.4,62.2,50.3,62.2,50.1z"
		/>
	<path class="st1" d="M53.5,35.7c0.1,0-0.1-0.2-0.1-0.2c-0.1-0.1-0.2-0.2-0.3-0.3c-0.2-0.2-0.5-0.3-0.7-0.5
		c-0.5-0.5-0.8-0.9-1.5-1.1c-0.6-0.3-1.1,0.6-0.5,0.9c0.3,0.1,0.7,0.3,0.9,0.6c0.2,0.2,0.4,0.5,0.6,0.7c0.3,0.2,0.5,0.3,0.8,0.6
		c0.2,0.2,0.3,0.4,0.6,0.4C53.8,36.8,54.1,35.8,53.5,35.7z"/>
</g>
</svg>
