<?xml version="1.0" encoding="iso-8859-1"?>
<!-- Generator: Adobe Illustrator 19.0.0, SVG Export Plug-In . SVG Version: 6.00 Build 0)  -->
<svg version="1.1" id="Layer_1" xmlns="http://www.w3.org/2000/svg" xmlns:xlink="http://www.w3.org/1999/xlink" x="0px" y="0px"
	 viewBox="0 0 485.195 485.195" style="enable-background:new 0 0 485.195 485.195;" xml:space="preserve">
<g>
	<g>
		<path style="fill:#31C0D8;" d="M349.174,214.135V433.81c0,22.945-14.67,43.885-37.616,43.885H179.904
			c-22.946,0-37.616-20.939-37.616-43.885V214.135h206.259H349.174z"/>
		<polygon style="fill:#AFB6BB;" points="349.174,95.27 349.174,214.135 348.547,214.135 142.289,214.135 142.289,95.27 		"/>
		<path style="fill:#FFD248;" d="M393.059,95.27H92.135V20.038c0-6.896,5.642-12.538,12.538-12.538H380.52
			c6.896,0,12.539,5.642,12.539,12.538V95.27z"/>
	</g>
	<g>
		<path d="M400.56,20.039C400.56,8.989,391.57,0,380.521,0H104.673C93.624,0,84.635,8.989,84.635,20.039v82.731h50.154v331.04
			c0,13.249,4.214,25.769,11.865,35.256c8.39,10.401,20.197,16.129,33.25,16.129h131.654c13.053,0,24.86-5.728,33.25-16.129
			c7.652-9.487,11.866-22.007,11.866-35.256V102.77h43.885L400.56,20.039L400.56,20.039z M311.559,470.194H179.904
			c-19.561,0-30.115-18.746-30.115-36.385V221.635h191.886V433.81C341.675,457.442,326.158,470.194,311.559,470.194z
			 M341.675,206.635H149.789V102.77h191.886V206.635z M385.56,87.77H99.635V20.039c0-2.731,2.308-5.039,5.038-5.039h55.193v48.923
			h15V15h60.23v48.923h15V15h60.231v48.923h15V15h55.192c2.731,0,5.039,2.308,5.039,5.039V87.77H385.56z"/>
		<rect x="181.523" y="248.867" width="15" height="110.947"/>
		<rect x="181.523" y="380.616" width="15" height="27.736"/>
	</g>
</g>
<g>
</g>
<g>
</g>
<g>
</g>
<g>
</g>
<g>
</g>
<g>
</g>
<g>
</g>
<g>
</g>
<g>
</g>
<g>
</g>
<g>
</g>
<g>
</g>
<g>
</g>
<g>
</g>
<g>
</g>
</svg>
