<?xml version="1.0" encoding="utf-8"?>
<!-- Generator: Adobe Illustrator 21.0.0, SVG Export Plug-In . SVG Version: 6.00 Build 0)  -->
<svg version="1.1" id="Layer_1" xmlns="http://www.w3.org/2000/svg" xmlns:xlink="http://www.w3.org/1999/xlink" x="0px" y="0px"
	 viewBox="0 0 67.2 72.2" style="enable-background:new 0 0 67.2 72.2;" xml:space="preserve">
<style type="text/css">
	.st0{fill:#EBE9E5;}
	.st1{fill:#F58440;}
	.st2{fill:#DCDCDD;}
	.st3{fill:#D7B21C;}
	.st4{fill:#EE7D08;}
	.st5{fill:#B4EDBA;}
	.st6{fill:#FAC605;}
	.st7{fill:none;}
</style>
<path class="st0" d="M15.1,6.2c0.1-0.8,0.8-0.2,1.2-0.7c0-0.9,0.1-1.8,0.6-2.7c0.4-0.8,1-1.5,1.7-1.9C19.4,0.4,20.3,0,21.4,0
	c10.4,0,20.7,0,31.1,0c2.1,0,3.7,0.9,4.7,2.6c0.4,0.7,0.7,1.6,0.7,2.6c0,5.4,0,16.9,0,17.5c1,0.3,1.9,0.1,2.9,0.1
	c1.1,0,2.1,0.1,3.1,0.7c1.6,0.9,2.4,2.2,2.4,4c0,5.1,0,10.2,0,15.3c0,0.5,0.2,5.8,0.2,6c-0.9,0-1.8-0.6-2.8-0.4
	c-1.3,0.2-2.5,0-3.8,0c-3.6,0-7.2,0-10.8,0c-2,0-4-0.2-6,0.3c-1,0.2-2.1,0.1-3.2,0.1c0.3-2.2,0.2-12.2,0.2-12.9
	c-0.1-1.5,0.1-7.6,0-8.4c-0.3-2.4,2.6-4.8,4.6-4.6c0.5,0,1,0,1.4,0c1.1,0,2.2,0,3.4,0c1.7,0,3.3,0,5,0c0-0.3,0.1-18.1,0.1-18.3
	c-0.1-0.6-0.5-1.1-1.1-1.1c-0.8,0-21.3-0.3-30.8-0.3c-0.5,0-1,0.1-1.5,0.2c-1.4,0.4-1.9,1.3-1.4,2.7c-0.1,0.3-0.5,0.4-0.5,0.8
	c0,0.7,0,1.5,0,2.2c0.5,0.3,1,0.1,1.4,0.2l0,0c-0.1,0.8-0.9,0.2-1.2,0.5c0,3.9,0,7.7,0,11.6c0,0.5,0,1,0.4,1.5
	c0.5,0.1,1.1,0.1,1.7,0c1.6-0.1,2.8,0.6,3.9,1.6c0.8,0.7,1,1.6,1.1,2.5c0.2,1.7,0.3,3.5,0.3,5.2c0,1.1,0,2.2,0,3.4
	c0,0.6,0,1.1-0.2,1.6c-0.2,0.8-0.2,1.6,0.2,2.3c0.1,0.2,0.3,0.4-0.1,0.6c-0.4-0.6-1-0.5-1.5-0.5c-8.3,0-16.6,0-24.9,0
	c0-4.1-0.1-8.2,0-12.3c0.1-2.6,1.9-4.2,4.4-4.5c0.9-0.1,1.8,0,2.8,0s2.1,0,3.1,0c1.8,0,3.6,0,5.5,0c0-4.5,0-8.8,0-13
	c-0.3-0.4-1.1,0.1-1.2-0.7l0,0c0.4,0,0.8,0.2,1.1-0.2c0-0.9,0-1.7,0-2.6C15.8,6.1,15.5,6.2,15.1,6.2L15.1,6.2z M43.8,38.1L43.8,38.1
	z M12.6,35c1.3,0,2.2-0.8,2.2-1.9c0-1.1-0.9-2-2-2.1c-0.9-0.1-2.2,0.9-2.3,2C10.5,33.9,11.7,35.2,12.6,35z M50.8,29
	c0-1.1-0.8-1.9-2-1.9c-1.1,0-2,0.9-2,1.9c0,1.1,0.9,1.9,2.1,1.9C49.9,30.9,50.8,30,50.8,29z M14.1,25.7c0-0.7-0.5-1.2-1.2-1.2
	c-0.6,0-1.2,0.6-1.2,1.2c0,0.7,0.5,1.3,1.1,1.3C13.6,27.1,14.1,26.5,14.1,25.7z M20.4,28.1c-0.7,1-0.8,1.3-0.3,1.9
	c0.4,0.5,0.9,0.6,1.4,0.3c0.5-0.2,0.8-1,0.6-1.5C21.8,28.1,21.2,28,20.4,28.1z"/>
<path class="st1" d="M0.5,39.6c8.3,0,16.6,0,24.9,0c0.5,0,1.1-0.1,1.5,0.5c0,0.2,0,0.3,0,0.5c0,0.6-0.2,1.3,0.1,1.9
	c1.7,0,3.4,0,5.1,0l0,0c0,0.9,0.2,1.9-0.1,2.8c-1.7,0.1-3.4-0.1-5,0.1c-0.3,0.5-0.2,0.9-0.2,1.4c0,2.8,0,5.6,0,8.4
	c0,4.1,0,8.2,0,12.2l0,0c-0.3,0.6-0.5,1.2-0.5,1.9c-0.5,0.5-0.8,1.1-1.4,1.6c-1.1,0.9-2.3,1.2-3.7,1.2c-4.6,0-9.2,0-13.9,0
	c-1,0-2-0.1-3-0.2c-1.8-0.2-3-1.3-3.8-2.9c-0.1-0.2-0.2-0.4-0.3-0.7c0-8.2,0-16.3,0-24.5C0.4,42.5,0.5,41,0.5,39.6L0.5,39.6z
	 M20.2,51.4c0,1.4,1.2,2.5,2.6,2.5c1.3,0,2.6-1.2,2.6-2.4c-0.1-1.4-1-2.5-2.6-2.6C21.4,48.9,20.2,50.1,20.2,51.4z"/>
<path class="st2" d="M49.4,22.8c-1.1,0-2.2,0-3.4,0c0-3.6,0-7.3,0-10.9c0-1-0.2-1.8-1.2-2.4c-0.4-0.2-0.7-0.4-1.1-0.3
	c-7.7,0-15.4,0-23.2,0l0,0c0-1,0-1.9,0-2.9c8,0,16,0,24,0c1.2,0,2,0.5,2.8,1.2c0.5,0.5,0.9,1.1,1.4,1.6C49,9.4,49,9.8,49,10.2
	c-0.4,0.4-0.3,0.6,0.2,0.7C49.4,14.8,49.4,18.8,49.4,22.8z"/>
<path class="st3" d="M39.9,48.7c1.1,0,0.6,0,3.2-0.1c2.2-0.3,4-0.2,6-0.3c3.6-0.1,7.2,0,10.8,0c1.3,0,2.5,0.2,3.8,0
	c1-0.2,1.8,0.4,2.8,0.4l0,0c0,5.7,0,11.4,0,17.1c0,1.4-0.2,2.7-0.7,4c-1.1,1.6-2.5,2.4-4.5,2.4c-5.5-0.1-10.9-0.1-16.4,0
	c-1.7,0-2.9-0.7-4-1.8c-0.3-0.3-0.4-0.7-0.5-1c0-0.4-0.2-0.7-0.4-1c0-0.1,0-0.3,0-0.4C39.8,61.5,39.8,55.1,39.9,48.7L39.9,48.7z
	 M65.7,49.3c-8.5,0-16.9,0-25.4,0c0,0.5,0,1,0,1.4c0,5.3,0,10.6,0,16c0,0.9,0.2,1.6,0.5,2.4c0.2,0.4,0.7,0.6,0.8,1
	c0.4,1.1,1.3,1.3,2.3,1.3c5.3,0,10.6,0,16,0c1.1,0,2.2,0,3.2,0c0.4-0.3,0.7-0.8,1-0.9c1.3-0.4,1.6-1.5,1.6-2.6c0-5.8,0-11.7,0-17.5
	C65.7,49.9,65.7,49.6,65.7,49.3z"/>
<path class="st2" d="M10.8,22.8c-1,0-2.1,0-3.1,0c0-3.8,0-7.5,0-11.3c0-2,0.8-3.6,2.7-4.7c0.8-0.5,1.5-0.6,2.3-0.6s1.6,0,2.4,0l0,0
	c0,1,0,1.9,0,2.9l0,0c-0.6,0-1.2,0-1.8,0c-1,0-1.7,0.5-2.1,1.4c-0.3,0.5-0.4,1.1-0.4,1.7c0,1.3,0.1,2.6,0,4
	C10.7,18.4,10.8,20.6,10.8,22.8z"/>
<path class="st0" d="M26.8,67.4c0-4.1,0-8.2,0-12.2c0-2.8,0-5.6,0-8.4c0-0.4-0.1-0.9,0.2-1.4c1.6-0.2,3.3,0,5-0.1
	c0.3-1,0.1-1.9,0.1-2.8c0.5,0,0.5,0.3,0.5,0.6c0,0.8,0,1.5,0,2.4c-1.7,0.8-3.5,0.1-5.2,0.4c-0.2,0.4-0.1,0.9-0.1,1.3
	c0,6.4,0,12.7,0,19.1C27.3,66.7,27.7,67.3,26.8,67.4z"/>
<path class="st0" d="M0.5,39.6c0,1.4,0,2.9,0,4.3c0,8.2,0,16.3,0,24.5c-0.2,0-0.4-0.1-0.4-0.3c0-0.3,0-0.6,0-0.8
	c0-8.8,0-17.7,0-26.5C0,40.3-0.3,39.7,0.5,39.6z"/>
<path class="st0" d="M65.7,69.8c0.5-1.3,0.7-2.6,0.7-4c0-5.7,0-11.4,0-17.1h0.1c0.1,1.1,0.7,12.5,0.7,17.2c0,0.6-0.5,2.6-0.5,3.1
	C66.4,69.3,66.3,69.8,65.7,69.8z"/>
<path class="st0" d="M39.9,48.7c0,6.4,0,12.8,0,19.1c-0.2,0-0.4,0-0.5-0.3c0-0.3,0-0.6,0-0.8c0-5.7,0-11.3,0-17
	C39.4,49.4,39,48.7,39.9,48.7z"/>
<path class="st0" d="M32.1,42.5c-1.7,0-3.4,0-5.1,0c-0.3-0.7-0.2-1.3-0.1-1.9c0.9,0.1,0.2,0.9,0.6,1.2c0.7,0.3,3.5,0.2,4.2,0.2
	C32,42,32.1,42.1,32.1,42.5z"/>
<path class="st0" d="M26.4,69.3c0-0.7,0.2-1.3,0.5-1.9c0,0.5,0,0.9,0,1.4C26.9,69.2,26.7,69.3,26.4,69.3z"/>
<path class="st0" d="M39.9,68.3c0.3,0.3,0.5,0.6,0.4,1C39.5,69.3,39.9,68.7,39.9,68.3z"/>
<path class="st4" d="M12.6,35c-0.9,0.1-2.1-1.1-2-2.1c0.1-1.1,1.4-2.1,2.3-2c1.1,0.1,2,1,2,2.1C14.8,34.3,13.9,35.1,12.6,35z"/>
<path class="st3" d="M50.8,29c0,1-0.9,1.9-1.9,1.9c-1.2,0-2-0.8-2.1-1.9c0-1.1,0.9-1.9,2-1.9C50,27.1,50.8,27.8,50.8,29z"/>
<path class="st1" d="M14.1,25.7c0,0.8-0.6,1.3-1.2,1.3s-1.1-0.6-1.1-1.3c0-0.6,0.6-1.3,1.2-1.2C13.7,24.5,14.2,25,14.1,25.7z"/>
<path class="st1" d="M20.4,28.1c0.8-0.2,1.4-0.1,1.7,0.7c0.2,0.6-0.1,1.3-0.6,1.5s-1,0.1-1.4-0.3C19.6,29.4,19.6,29.1,20.4,28.1z"/>
<path class="st5" d="M19.7,6c0.2,0,0.3,0,0.5,0c0.1,0.2,0.3,0.2,0.5,0.2l0,0c0,1,0,1.9,0,2.9c-0.4,0-0.9,0.1-1.4-0.2
	c0-0.7,0-1.4,0-2.2C19.2,6.3,19.5,6.2,19.7,6z"/>
<path class="st5" d="M15.1,9.1c0-1,0-1.9,0-2.9c0.4,0,0.7-0.1,1.1,0.1c0,0.8,0,1.7,0,2.6C15.9,9.2,15.5,9.1,15.1,9.1z"/>
<path class="st0" d="M49.2,10.1c0.3,0.2,0.2,0.5,0.2,0.7C48.9,10.7,48.8,10.5,49.2,10.1z"/>
<path class="st6" d="M65.7,49.3c0,0.4,0,0.6,0,0.9c0,5.8,0,11.7,0,17.5c0,1.1-0.3,2.2-1.6,2.6c-0.4,0.1-0.6,0.6-1,0.9
	c-1,0-2.1,0-3.2,0c-5.3,0-10.6,0-16,0c-1,0-1.9-0.2-2.3-1.3c-0.2-0.4-0.6-0.6-0.8-1c-0.3-0.8-0.5-1.5-0.5-2.4c0-5.3,0-10.6,0-16
	c0-0.4,0-0.9,0-1.4C48.8,49.3,57.2,49.3,65.7,49.3z M63.8,56.7c0-1.4-1.2-2.7-2.5-2.6c-1.3,0-2.5,1.3-2.5,2.6c0,1.4,1.3,2.5,2.5,2.5
	C62.8,59.2,63.8,58.3,63.8,56.7z"/>
<path class="st0" d="M20.6,6.2c-0.2,0-0.4,0-0.5-0.2C20.5,5.6,20.6,5.9,20.6,6.2z"/>
<circle class="st3" cx="45.3" cy="36.3" r="2.3"/>
<circle class="st3" cx="56" cy="26.9" r="1.1"/>
<circle class="st3" cx="59.1" cy="33.6" r="1"/>
<circle class="st3" cx="54.2" cy="39.7" r="1.1"/>
<circle class="st3" cx="61.6" cy="44" r="1.6"/>
<circle class="st3" cx="46.2" cy="44.6" r="1.4"/>
<line class="st7" x1="67.2" y1="66" x2="67.2" y2="66.5"/>
<circle class="st4" cx="4.7" cy="28.3" r="0.9"/>
<circle class="st4" cx="6.1" cy="36.9" r="1.4"/>
<circle class="st4" cx="21.5" cy="35.7" r="1.2"/>
</svg>
