<?xml version="1.0" encoding="utf-8"?>
<!-- Generator: Adobe Illustrator 21.0.0, SVG Export Plug-In . SVG Version: 6.00 Build 0)  -->
<svg version="1.1" id="Layer_1" xmlns="http://www.w3.org/2000/svg" xmlns:xlink="http://www.w3.org/1999/xlink" x="0px" y="0px"
	 viewBox="0 0 1348 1345" style="enable-background:new 0 0 1348 1345;" xml:space="preserve">
<style type="text/css">
	.st0{fill:#026247;}
	.st1{fill:#24FAE8;}
	.st2{fill:#016145;}
	.st3{fill:#000101;}
	.st4{fill:#24FAE7;}
	.st5{fill:#026246;}
</style>
<path class="st0" d="M797,1346c-80.7,0-161.3,0-242,0c-1.2-0.8-2.4-1.7-3.7-2.4c-29.4-17-58.8-33.9-88.2-50.9
	c-67.3-38.8-134.6-77.6-201.9-116.4c-63.1-36.4-126.2-72.8-189.4-109.2c-11.2-6.4-21.9-13.2-28.8-24.7c-7.9-13.1-9.8-27.4-9.9-42.3
	c0-167.1,0-334.3,0-501.4c0-53,0.1-106,0-159c0-18.4,6-33.8,20.3-45.9c5.4-4.5,11.1-8.6,17.1-12.1c46.9-27.2,93.9-54.3,140.8-81.4
	c45.4-26.2,90.7-52.4,136.1-78.6C398.8,92,450.3,62.3,501.7,32.6c18.1-10.4,36.2-21,54.3-31.6c80,0,160,0,240,0
	c2.1,1.4,4.1,2.8,6.2,4c46.9,27.1,93.9,54.3,140.9,81.4c85.7,49.5,171.5,99,257.2,148.5c29.4,17,58.8,33.9,88,51.2
	c16.8,10,27.6,24.3,29.5,44.3c1.1,11.7,0.1,23.3,0.1,35c0,207.1,0,414.3-0.1,621.4c0,9-0.2,18-0.9,27c-1.6,20.9-10.6,37.1-29.2,48.2
	c-54.5,32.4-109.9,63.1-164.8,95c-53.7,31.1-107.6,61.9-161.3,93c-47.5,27.5-95,55-142.5,82.7C811.6,1336.9,803.8,1340.6,797,1346z
	 M72.1,670.6c0,99,0,198,0,297c0,9.3,0.1,18.7,0.9,28c1.8,20,9.7,36.5,27.4,47.3c6.5,4,13.1,8,19.7,11.8
	c89.8,50.1,178.7,101.7,268.2,152.5c34.4,19.5,68.8,39.1,103.2,58.8c27.4,15.7,54.9,31.3,82.2,47.3c12.5,7.3,24.4,15.6,38.1,20.6
	c10.3,3.8,20.8,4.8,31.4,1.8c21.8-6.1,36.6-25.4,37.3-49.5c0.6-20.5,0.3-41,0.4-61.5c0.1-60.2,0.1-120.3,0.2-180.5
	c0-6-1.3-11-6.8-13.9c-5.2-2.8-10.2-1.3-15.1,1.6c-13.6,8-27.4,15.8-41,23.8c-2.6,1.5-4.6,1.8-7.3,0.2
	c-11.3-6.7-22.7-13.2-34.2-19.7c-2.6-1.5-3.6-3.3-3.6-6.4c0.2-12.8,0.2-25.7,0-38.5c-0.1-3.4,1.3-5.1,4-6.6c11-6.2,22-12.5,32.9-19
	c3.1-1.9,5.5-1.8,8.7,0c13.9,8.2,27.9,16.3,41.9,24.2c10.6,6,20.4,0.1,20.4-12c0-35.7,0-71.3,0-107c0-12.4-9.8-18.1-20.7-11.9
	c-9.1,5.2-18.1,10.6-27.1,16c-3.1,1.9-4.9,1.8-4.7-2.5c0.2-3.7,0.2-7.3,0-11c-0.1-2.6,0.9-4.1,3.2-5.5c13.3-7.5,26.6-15.2,39.7-23
	c7.7-4.6,15.1-9.8,23.6-13c5.3-2,8.7-0.3,10.2,5.2c0.5,1.8,0.7,3.6,0.8,5.4c1.2,22.3,0.5,44.6,0.6,67c0.5,86,0.7,172,1,258
	c0.1,45.7,0.2,91.3,0.2,137c0,6.7,1,13.3,3.2,19.6c5.9,17.4,23.1,26.3,40.7,21.3c4.9-1.4,9.3-3.7,13.6-6.2
	c28.1-16.6,56.1-33.3,84.2-49.9c65-38.5,130-77,194.9-115.6c31.6-18.8,63.2-37.7,94.8-56.4c34.1-20.2,68.2-40.3,102.3-60.3
	c25-14.7,38.6-36,38.6-65.4c0.2-171.8,0.3-343.7,0.4-515.5c0-33.8,0.6-67.7-0.4-101.5c-0.8-26.4-11.8-47.3-34.8-60.8
	c-46.3-27.2-93-53.9-139.5-80.8c-45.6-26.4-91.3-52.9-136.9-79.3C927,117.3,884.9,93,843,68.6c-19.9-11.6-40-22.7-59.3-35.1
	c-9.5-6.1-19.2-12-30.1-15.5c-15.8-5.1-31.9,0.6-39.9,15c-4.6,8.2-6.1,17.5-6.8,26.9c-1.3,17.3,0.6,34.6,0.5,52
	c-0.3,56.8-0.6,113.7-0.7,170.5c-0.1,44.3,0.2,88.7,0.3,133c0,4.5-0.2,9-1.7,13.3c-1.9,5.3-5.2,7.2-10.4,5.4c-2.8-1-5.6-2.3-8.1-3.8
	c-18.1-10.6-36.1-21.4-54.2-31.9c-2.9-1.7-3.8-3.5-3.8-6.7c0-39-0.2-78-0.2-117c0-36,0.1-72,0.3-108c0.1-26,0.3-52,0.6-78
	c0.1-14.8-2.7-28.6-13-39.8c-16.7-18.4-43.6-22.2-66.2-9c-42,24.5-83.8,49.3-125.6,74c-59,34.9-118,69.8-177,104.7
	c-44.8,26.5-89.7,53-134.5,79.5c-8.2,4.8-16.6,9.3-23.6,15.8c-12.6,11.7-16.7,27-17.5,43.3c-0.6,12.8,0,25.7,0,38.5
	C72.1,487.3,72.1,579,72.1,670.6z"/>
<path class="st1" d="M493,1346c-18.5-10.8-36.9-21.7-55.4-32.4c-39.1-22.6-78.2-45.1-117.4-67.7c-63.5-36.5-127-73-190.4-109.6
	c-27.5-15.8-55-31.5-82.2-47.8c-25.3-15.1-40.7-37.2-44.7-66.6c0-2-0.1-3.9-0.1-5.9c0.1-1.6,0.2-3.3,0.2-5c0-225.2,0-450.3,0-675.5
	c0-2.2-0.1-4.3-0.2-6.5c0-2.3,0.1-4.7,0.1-7c5.2-29.4,22.2-50.5,47.4-65.1c80.9-46.9,162-93.5,243-140.3
	C358.6,79,423.9,41.2,489.2,3.4c1.1-0.6,2.6-0.8,2.8-2.4c21.3,0,42.7,0,64,0c-18.1,10.6-36.2,21.2-54.3,31.7
	c-51.4,29.7-102.8,59.4-154.3,89.1c-45.4,26.2-90.7,52.4-136.1,78.6c-47,27.1-93.9,54.2-140.8,81.4c-6,3.5-11.7,7.6-17.1,12.1
	c-14.2,12-20.3,27.5-20.3,45.9c0.1,53,0,106,0,159c0,167.1,0,334.3,0,501.4c0,14.8,1.9,29.2,9.9,42.3c6.9,11.4,17.7,18.2,28.8,24.7
	c63.1,36.4,126.2,72.8,189.4,109.2c67.3,38.8,134.6,77.6,201.9,116.4c29.4,16.9,58.8,33.9,88.2,50.9c1.3,0.7,2.5,1.6,3.7,2.4
	C534.3,1346,513.7,1346,493,1346z"/>
<path class="st1" d="M1347,1022.9c-0.1,0.6-0.1,1.3-0.2,1.9c-1.3,2.5-1.6,5.3-1.7,8.1c-5.6,28-23.5,46.1-47.5,59.5
	c-62.9,35-124.8,71.6-187.1,107.4c-54,31-107.9,62.2-161.9,93.4c-28.5,16.4-56.9,32.9-85.4,49.4c-1.2,0.7-3.7,0.7-2.2,3.3
	c-0.7,0-1.3,0-2,0c0.1-0.2,0.2-0.4,0.2-0.4c-0.6-0.5-0.8,0.2-1.2,0.4c-20.3,0-40.7,0-61,0c6.8-5.4,14.6-9.1,22-13.4
	c47.4-27.6,94.9-55.2,142.5-82.7c53.7-31.1,107.6-61.9,161.3-93c54.8-31.8,110.3-62.6,164.8-95c18.6-11.1,27.6-27.3,29.2-48.2
	c0.7-9,0.9-18,0.9-27c0.1-207.1,0.1-414.3,0.1-621.4c0-11.7,1-23.3-0.1-35c-1.9-20.1-12.7-34.4-29.5-44.3
	c-29.2-17.3-58.6-34.2-88-51.2c-85.7-49.5-171.4-99-257.2-148.5C896,59.1,849.1,32,802.1,4.8c-2.1-1.2-4.2-2.7-6.2-4
	c20.3,0,40.7,0,61,0c12.7,7.5,25.5,15,38.2,22.5c0.7,0.4,1.3,1,1.9,1.5c0.1,1.3,1,2,2.1,2.6c8,4.5,16.1,8.8,24,13.5
	c5,3,9.6,6.8,15.6,7.9C953.1,57,967.6,65,982,73.3c72.5,41.8,145,83.7,217.4,125.5c34.8,20.1,69.7,40,104.4,60.3
	c17.1,10,30.9,23.5,38,42.6c1.3,3.6,2.2,7.3,3.3,11c0.6,3,1,6,1.7,8.9c0.5,1.9,1.3,2.2,2.1,0.1c0,0.7,0,1.3,0,2
	c-0.7-1.6-1.6-1.8-1.9,0.1c-0.3,1.6,0,3.3,0,4.9c-1.4,3.6,0,7.2,0,10.8c-0.1,222.2-0.1,444.3-0.1,666.5c0,2.7,0.1,5.3,0.2,8
	C1347.1,1017.1,1347.1,1020,1347,1022.9z"/>
<path class="st0" d="M1349,339c0,222,0,444,0,666c-0.2,0-0.5,0-0.7,0c0-2,0-4,0-6c0-213.3,0-426.7,0-640c0-6.7,0.1-13.3,0.1-20
	C1348.6,339,1348.8,339,1349,339z"/>
<path class="st2" d="M2.8,1016.1c0,2,0.1,3.9,0.1,5.9c-0.6-0.7-1.2-1.3-1.9-2c0-216.3,0-432.7,0-649c0.3,0,0.6,0,0.9,0
	c0.1,2.3,0.2,4.7,0.2,7c0,209.1,0,418.1,0,627.2C2.2,1008.8,1.8,1012.5,2.8,1016.1z"/>
<path class="st0" d="M1.9,371c-0.3,0-0.6,0-0.9,0c0-9.7,0-19.3,0-29c0.3,0,0.6,0,0.9,0C1.9,351.7,1.9,361.3,1.9,371z"/>
<path class="st2" d="M1348.3,1005c0.2,0,0.5,0,0.7,0c0,5.7,0,11.3,0,17c-0.7,0.3-1.3,0.6-2,0.9c0-2.9,0.1-5.8,0.1-8.7
	C1348.4,1011.2,1347.6,1008,1348.3,1005z"/>
<path class="st2" d="M1.9,342c-0.3,0-0.6,0-0.9,0c0-6,0-12,0-18c0.6-0.6,1.3-1.3,1.9-1.9c0,2.4-0.1,4.7-0.1,7
	C1.5,333.3,2.6,337.7,1.9,342z"/>
<path class="st2" d="M1349,339c-0.2,0-0.4,0-0.7,0c-0.9-3.3,0.2-6.8-1.2-10c0-1.6-0.3-3.3,0-4.9c0.3-1.9,1.2-1.7,1.9-0.1
	C1349,329,1349,334,1349,339z"/>
<path class="st2" d="M1349,322c-0.8,2.1-1.6,1.8-2.1-0.1c-0.7-2.9-1.2-6-1.7-8.9c3.1,0.9,0.1,5.5,3.8,6C1349,320,1349,321,1349,322z
	"/>
<path class="st3" d="M858,1346c0.3-0.3,0.6-0.9,1.2-0.4c0,0-0.1,0.3-0.2,0.4C858.7,1346,858.3,1346,858,1346z"/>
<path class="st4" d="M72.1,670.6c0-91.7,0-183.3,0-275c0-12.8-0.6-25.7,0-38.5c0.7-16.3,4.9-31.6,17.5-43.3c7-6.5,15.4-11,23.6-15.8
	c44.9-26.5,89.7-53,134.5-79.5c59-34.9,118-69.9,177-104.7c41.8-24.7,83.6-49.5,125.6-74c22.7-13.2,49.5-9.4,66.2,9
	c10.3,11.3,13.1,25.1,13,39.8c-0.3,26-0.5,52-0.6,78c-0.2,36-0.3,72-0.3,108c0,39,0.2,78,0.2,117c0,3.2,0.9,5.1,3.8,6.7
	c18.1,10.5,36.1,21.3,54.2,31.9c2.6,1.5,5.3,2.8,8.1,3.8c5.2,1.8,8.5-0.1,10.4-5.4c1.5-4.3,1.7-8.8,1.7-13.3
	c-0.2-44.3-0.4-88.7-0.3-133c0.1-56.8,0.5-113.7,0.7-170.5c0.1-17.3-1.8-34.6-0.5-52c0.7-9.4,2.2-18.6,6.8-26.9
	c8-14.4,24.1-20.1,39.9-15c10.9,3.5,20.6,9.4,30.1,15.5C803,45.9,823.1,57,843,68.6c42,24.5,84,48.8,126.1,73.1
	c45.6,26.4,91.3,52.9,136.9,79.3c46.5,26.9,93.1,53.6,139.5,80.8c23,13.5,34,34.4,34.8,60.8c1,33.8,0.4,67.7,0.4,101.5
	c-0.1,171.8-0.2,343.7-0.4,515.5c0,29.3-13.6,50.7-38.6,65.4c-34.1,20.1-68.3,40.2-102.3,60.3c-31.6,18.7-63.2,37.6-94.8,56.4
	c-65,38.5-130,77.1-194.9,115.6c-28.1,16.6-56.1,33.3-84.2,49.9c-4.3,2.5-8.7,4.8-13.6,6.2c-17.6,5-34.8-3.9-40.7-21.3
	c-2.1-6.4-3.2-12.9-3.2-19.6c0-45.7-0.1-91.3-0.2-137c-0.3-86-0.4-172-1-258c-0.1-22.3,0.5-44.7-0.6-67c-0.1-1.8-0.3-3.7-0.8-5.4
	c-1.5-5.5-4.9-7.3-10.2-5.2c-8.5,3.2-15.8,8.4-23.6,13c-13.2,7.8-26.4,15.5-39.7,23c-2.4,1.3-3.3,2.8-3.2,5.5c0.1,3.7,0.2,7.3,0,11
	c-0.2,4.3,1.5,4.4,4.7,2.5c9-5.4,18-10.8,27.1-16c10.9-6.2,20.7-0.5,20.7,11.9c0,35.7,0,71.3,0,107c0,12.2-9.9,18-20.4,12
	c-14-7.9-28-16-41.9-24.2c-3.1-1.9-5.6-1.9-8.7,0c-10.9,6.5-21.8,12.7-32.9,19c-2.7,1.5-4.1,3.3-4,6.6c0.2,12.8,0.2,25.7,0,38.5
	c0,3.1,1,4.9,3.6,6.4c11.5,6.4,22.9,13,34.2,19.7c2.7,1.6,4.7,1.3,7.3-0.2c13.6-8,27.4-15.8,41-23.8c4.9-2.9,9.8-4.4,15.1-1.6
	c5.5,2.9,6.8,7.9,6.8,13.9c-0.2,60.2-0.1,120.3-0.2,180.5c0,20.5,0.2,41-0.4,61.5c-0.7,24.1-15.4,43.4-37.3,49.5
	c-10.6,2.9-21.1,2-31.4-1.8c-13.7-5.1-25.6-13.3-38.1-20.6c-27.3-16-54.8-31.6-82.2-47.3c-34.4-19.6-68.7-39.3-103.2-58.8
	c-89.5-50.7-178.4-102.3-268.2-152.5c-6.7-3.7-13.2-7.8-19.7-11.8c-17.7-10.8-25.7-27.2-27.4-47.3c-0.8-9.3-0.9-18.6-0.9-28
	C72.1,868.6,72.1,769.6,72.1,670.6z M1255,668.2L1255,668.2c0.1-100.8,0-201.7,0.1-302.5c0-18-8-31.2-22.7-40.7
	c-8.1-5.2-16.4-10.1-24.8-15c-58.9-34.1-117.8-68.2-176.7-102.3c-57-33-114-66-170.9-99.2c-33-19.3-66.6-37.6-99-58
	c-4.8-3-9.8-5.7-15.5-6.8c-6-1.1-10.2,1.5-11.2,7.5c-0.5,3.1-0.7,6.3-0.8,9.5c-0.2,33.1-0.3,66.3-0.4,99.4
	c-0.1,85.7-0.9,171.3-0.4,257c0,5.5,0,11.1-1.2,16.4c-5.4,23.7-29.3,34.1-51.2,22.5c-15.7-8.3-31.1-17.4-46.5-26.3
	c-4.9-2.8-5.1-2.7-5.1,2.8c0,13.3,0,26.7,0,40c0,7.5,0.1,15,0,22.5c-0.1,6.9-1.1,13.7-5.7,19.2c-8.8,10.7-22.2,12.9-35.7,6
	c-14.8-7.6-29-16.3-43.2-24.9c-33.6-20.3-68.6-38.2-101.3-59.9c-4.8-3.1-9.1-2.9-14.3,0.2c-26,15.4-52.3,30.6-78.6,45.5
	c-25.9,14.7-51.1,30.6-77.7,44.1c-3.2,1.6-5.3,4-5.3,8.2c-0.2,61.2,0.8,122.3-0.5,183.5c-0.1,4,1.4,6.6,4.8,8.5
	c27.9,15.9,55.7,31.9,83.5,48c22.5,13,45.2,25.6,67.1,39.5c8.6,5.5,15.5,8.6,23.7,0.7c0.3-0.3,0.9-0.4,1.3-0.7
	c31.7-18.3,63.3-36.7,95-55c15.4-8.9,30.7-18,46.3-26.5c18.1-9.9,35.7-1.3,39.4,19c0.7,3.7,0.6,7.6,0.6,11.4c0,20.3,0,40.7,0,61
	c0,5.2,0.5,5.5,4.9,3c3.9-2.2,7.8-4.6,11.7-6.7c13.6-7.4,26.3-16.4,40.6-22.4c9.1-3.8,18.3-4.4,27.5,0.1
	c13.7,6.7,18.6,18.5,18.9,32.7c0.5,20.3,0.6,40.6,0.7,61c0.5,80.5,0.3,161,1.2,241.4c0.6,53.3,0.3,106.7,0.5,160
	c0,3.1,0.3,6.3,0.7,9.4c1.1,6.9,5.7,9.6,12.3,7c3.1-1.2,6-2.9,8.9-4.6c12.3-7.3,24.5-14.9,36.8-22.2c59.7-35.4,119.4-70.7,179-106.1
	c71.4-42.4,142.8-84.7,214.1-127.3c16.3-9.7,33.5-17.8,49-28.9c12.5-8.9,19-20.9,20.2-36.1c1.2-14.2-0.3-28.3-0.3-42.5
	C1255,849.8,1255,759,1255,668.2z M602.8,872.8c-15.5,9-30,17.5-44.6,25.8c-33.3,18.8-65.8,39-99.2,57.8c-16,9-30.8,8.6-46.2-0.4
	c-25.3-14.7-50.7-29.3-76.1-43.8c-55.5-31.9-111.1-63.9-166.6-95.8c-4.5-2.6-8.9-5.3-13.2-8.1c-13.4-8.8-17.4-22.3-17.9-37.1
	c-0.5-13.3,0.2-26.6,0.3-40c0.2-82.8-0.9-165.6,0-248.5c0.1-6.5,0.6-13,2.9-19.2c4-10.7,12.6-16.8,22-22.2
	c29.1-16.7,58.3-33.4,87.4-50.2c53.7-31,107.4-62.2,161.1-93.2c5.5-3.2,11.2-5.7,17.6-6.9c11.9-2.3,21.8,2.7,31.6,8.4
	c44.6,25.9,89.2,51.7,133.9,77.5c6.4,3.7,6.7,3.5,6.7-3.8c0.1-47.8,0.3-95.7,0.4-143.5c0.1-35.7,0.2-71.3,0.3-107
	c0-13.5,0.3-27-0.1-40.5C602.7,66.9,591,56.7,576,58c-4.9,0.4-9.4,2.1-13.6,4.5c-13.1,7.6-26.3,15-39.3,22.8
	c-66,39.1-131.9,78.3-197.9,117.4c-68.6,40.6-137.1,81.3-205.9,121.5c-14.9,8.7-21.4,20-21.4,37.2c0.2,161.7,0,323.3,0,485
	c0,46.3,0.6,92.7,0,139c-0.3,18.8,7.7,31.1,23.5,40c38,21.4,75.8,43,113.7,64.6c68.8,39.2,137.6,78.5,206.4,117.7
	c50.7,28.9,101.4,58,152.1,86.8c9.4,5.3,18.3,11.7,28.5,15.4c9.1,3.2,17.4,1.7,24.3-5.5c6.3-6.6,8.4-14.6,8.4-23.4
	c0.1-24.8,0.1-49.7,0.1-74.5c0.1-45.8,0.2-91.7,0.3-137.5c0-3.6-0.5-5-4.3-2.6c-9.5,5.8-19.3,11.2-28.9,16.8c-5.1,3-10,3-15.1,0
	c-17.1-9.9-34.3-19.9-51.5-29.7c-5.5-3.1-8-7.5-8-13.8c0-17.3,0.3-34.7-0.8-52c-0.7-10.9,3.3-19.1,13.3-24.1c1-0.5,2-1.3,3-1.8
	c15.1-6.8,29-15.5,43.3-23.8c5.6-3.3,10.8-3.3,16.4,0.1c9.3,5.6,18.8,10.8,28.1,16.3c3.3,2,4.6,1.7,4.5-2.5c-0.1-18.3-0.1-36.7,0-55
	c0-4-0.9-4.7-4.4-2.5c-9.2,5.7-18.7,10.9-27.9,16.6c-9.4,5.9-21-1.3-20.2-11.7C603.4,890.9,602.8,882.4,602.8,872.8z M165.5,627.7
	c-0.2,0-0.3,0-0.5,0c0,48.2,0.1,96.3-0.1,144.5c0,7.6,2.8,12.9,9.5,16.7c39.7,22.7,79.4,45.4,119,68.4c41.4,24.1,83.6,47,124.1,72.5
	c12.5,7.9,23.4,10.3,35.2-0.1c0.1-0.1,0.3-0.2,0.4-0.3c48.4-27.9,96.9-55.8,145.3-83.7c2.8-1.6,4-3.4,4-6.7c0-25,0.1-50,0.1-75
	c0-11.5-1.2-12.4-11.1-6c-24.3,15.8-49.8,29.5-74.8,44.1c-21.8,12.8-43.5,25.8-65.9,37.6c-11.6,6.2-23.2,6.2-34.7-0.8
	c-4.3-2.6-8.7-4.9-13-7.4c-36.9-21.3-73.8-42.6-110.5-64.1c-12.8-7.5-26.2-13.8-38.3-22.4c-8.6-6.2-13.2-14.4-13.7-25.3
	c-0.9-16.8,0.2-33.6,0.2-50.5c0-45.8,0.1-91.7-0.1-137.5c-0.1-12.5,5.3-21.1,15.9-27.2c29.5-16.9,58.8-33.9,88.2-50.9
	c24-13.9,48-27.9,72-41.9c9.2-5.4,18.8-6.4,28.8-2.6c4.2,1.6,8.3,3.6,12.1,5.9c35.7,21.7,72.3,41.8,108.3,62.9
	c10,5.9,20.4,11.2,30,18c1.6,1.1,3.6,2.7,5.5,1.8c2.4-1.1,1.4-3.8,1.4-5.9c0-3.7-0.4-7.3-0.4-11c0-21.7,0-43.3,0.1-65
	c0-3.6-1.3-5.7-4.5-7.5c-17.8-10.1-35.5-20.3-53.2-30.6c-33.7-19.5-67.4-39-101-58.6c-5.5-3.2-10.6-3.1-16,0
	c-37,21.4-74,42.9-111,64.2c-38.5,22.2-77,44.4-115.4,66.6c-9.6,5.6-19.7,10.5-29,16.5c-5,3.3-7.2,7.7-7.2,13.3c0,4,0.2,8,0.2,12
	C165.5,537.3,165.5,582.5,165.5,627.7z"/>
<path class="st4" d="M938.8,49c-6-1.2-10.6-4.9-15.6-7.9c-7.9-4.7-16-9.1-24-13.5c-1-0.6-2-1.2-2.1-2.6c12.8,6.3,24.7,14.1,37.2,21
	C935.8,46.9,937.3,48,938.8,49z"/>
<path class="st2" d="M1345.1,1033c0.1-2.8,0.4-5.6,1.7-8.1C1346.8,1027.7,1347.8,1030.7,1345.1,1033z"/>
<path class="st4" d="M1.9,342c0.7-4.3-0.4-8.7,0.9-12.9c0.1,2.2,0.2,4.3,0.2,6.5c0,225.2,0,450.3,0,675.5c0,1.7-0.1,3.3-0.2,5
	c-1-3.6-0.6-7.3-0.6-10.9c0-209.1,0-418.1,0-627.2c0-2.3-0.2-4.7-0.2-7C1.9,361.3,1.9,351.7,1.9,342z"/>
<path class="st4" d="M1347.1,329c1.4,3.2,0.3,6.8,1.2,10c0,6.7-0.1,13.3-0.1,20c0,213.3,0,426.7,0,640c0,2,0,4,0,6
	c-0.7,3,0.1,6.2-1.1,9.2c-0.1-2.7-0.2-5.3-0.2-8c0-222.2,0-444.3,0.1-666.5C1347.1,336.2,1345.7,332.5,1347.1,329z"/>
<path class="st2" d="M1255,668.2c0,90.8,0.1,181.7-0.1,272.5c0,14.2,1.4,28.3,0.3,42.5c-1.2,15.3-7.7,27.2-20.2,36.1
	c-15.5,11-32.7,19.1-49,28.9c-71.3,42.6-142.7,84.9-214.1,127.3c-59.6,35.4-119.3,70.7-179,106.1c-12.3,7.3-24.5,14.8-36.8,22.2
	c-2.8,1.7-5.8,3.3-8.9,4.6c-6.6,2.6-11.2-0.1-12.3-7c-0.5-3.1-0.7-6.3-0.7-9.4c-0.2-53.3,0.1-106.7-0.5-160
	c-0.9-80.5-0.7-161-1.2-241.4c-0.1-20.3-0.2-40.7-0.7-61c-0.4-14.1-5.3-26-18.9-32.7c-9.2-4.5-18.4-3.9-27.5-0.1
	c-14.3,6-27,15-40.6,22.4c-3.9,2.2-7.8,4.5-11.7,6.7c-4.4,2.5-4.9,2.2-4.9-3c0-20.3,0-40.7,0-61c0-3.8,0-7.7-0.6-11.4
	c-3.7-20.3-21.3-28.9-39.4-19c-15.6,8.5-30.9,17.6-46.3,26.5c-31.7,18.3-63.3,36.7-95,55c-0.4,0.3-1,0.4-1.3,0.7
	c-8.2,7.9-15,4.8-23.7-0.7c-21.9-13.9-44.6-26.5-67.1-39.5c-27.8-16.1-55.6-32-83.5-48c-3.4-2-4.9-4.5-4.8-8.5
	c1.4-61.2,0.4-122.3,0.5-183.5c0-4.2,2.1-6.6,5.3-8.2c26.6-13.5,51.8-29.4,77.7-44.1c26.3-14.9,52.5-30.1,78.6-45.5
	c5.2-3.1,9.6-3.3,14.3-0.2c32.8,21.7,67.8,39.6,101.3,59.9c14.2,8.6,28.4,17.3,43.2,24.9c13.5,6.9,26.9,4.7,35.7-6
	c4.6-5.6,5.6-12.3,5.7-19.2c0.1-7.5,0-15,0-22.5c0-13.3,0-26.7,0-40c0-5.5,0.2-5.6,5.1-2.8c15.4,8.9,30.7,18,46.5,26.3
	c21.9,11.5,45.8,1.2,51.2-22.5c1.2-5.3,1.3-10.9,1.2-16.4c-0.6-85.7,0.2-171.3,0.4-257c0-33.1,0.2-66.3,0.4-99.4
	c0-3.2,0.3-6.3,0.8-9.5c1-6,5.2-8.6,11.2-7.5c5.7,1.1,10.7,3.8,15.5,6.8c32.4,20.3,66,38.7,99,58C917,141.7,974,174.7,1031,207.7
	c58.9,34.1,117.8,68.1,176.7,102.3c8.3,4.8,16.7,9.7,24.8,15c14.7,9.5,22.7,22.7,22.7,40.7C1255,466.5,1255,567.3,1255,668.2
	L1255,668.2z M888.3,461.1c-0.4-0.5-0.8-0.9-1.1-1.4c-0.7-3.7-3.4-5.6-6.6-6.8c-9.6-3.6-17.7,2.6-17.7,13.4
	c0,75.8-0.1,151.6,0.1,227.4c0,4.8-1.2,6.3-6.1,6.2c-13.8-0.3-27.7-0.2-41.5-0.1c-2.9,0-4.7-0.9-6.1-3.3
	c-6.5-11.4-13-22.8-19.6-34.2c-1.5-2.6-1.5-4.7,0-7.4c6.5-11,13-22.1,19.2-33.3c1.6-2.8,3.5-3.9,6.7-3.8c8.2,0.2,16.3,0.2,24.5,0
	c9.3-0.3,14.1-5.3,14.1-14.5c0-13.5,0-27,0-40.5c0-2,0.1-4-0.7-5.9c-2.1-5.6-7.5-8.6-14.1-7.9c-6.3,0.7-10.5,4.7-10.7,11.1
	c-0.4,9.1-0.3,18.3-0.2,27.5c0,3.2-0.8,4.5-4.2,4.4c-6-0.2-12,0.2-18-0.1c-7-0.4-11.5,2.5-15,8.5c-8.2,14.3-16,28.8-25.6,42.2
	c-7.7,10.8-7.6,21.5,0.1,32.3c9.6,13.6,17.4,28.3,25.7,42.8c2.8,4.9,6.8,7.7,12.5,7.7c23.8,0,47.6,0,71.5-0.1c3.9,0,7.2-1.2,9.4-4.6
	c2.5-1.1,1.5-4.3,3.3-5.8c1.1-1.8,0.7-3.9,0.7-5.9c0-80.7,0-161.4,0-242.1C889,465,889.4,462.9,888.3,461.1z M901.4,834.9
	c0,65.7,0,131.3,0,197c0,10.3-0.1,20.7,0,31c0.1,9.2,5.2,14.2,14.3,14.3c23,0,46-0.1,69,0.1c6.1,0,10.4-2.4,13.5-7.7
	c9.7-16.8,19.6-33.6,29.4-50.4c3.5-5.9,3.6-11.8,0.1-17.5c-9.8-16-19-32.4-28.1-48.9c-3.7-6.7-9.5-9.5-16.9-9.4c-4.8,0-9.7,0-14.5,0
	c-6.7,0-6.7-0.1-6.6-6.5c0-12.5,0.1-25,0-37.5c-0.1-7.7-3.8-11.9-10.6-12.7c-9.3-1.1-15,3.8-15.1,13.3c-0.1,17.8-0.1,35.7-0.1,53.5
	c0,11.3,4.7,15.9,16.2,16c7.7,0.1,15.3,0.1,23,0c2.5,0,4.4,0.5,5.8,2.9c6.7,11.7,13.5,23.4,20.2,35c1.2,2.1,1.2,3.9-0.1,6
	c-6.6,11.3-13.2,22.7-19.7,34.1c-1.6,2.7-3.4,3.9-6.7,3.9c-13.3-0.2-26.7-0.1-40-0.1c-7.1,0-7.1,0-7.1-7c0-48.7,0-97.3,0-146
	c0-97,0-194,0-290.9c0-5.2-1.1-9.6-6-12.2c-4.8-2.4-9.6-2.5-14.3,0.5c-5,3.2-5.5,8.3-5.5,13.6C901.4,684.6,901.4,759.8,901.4,834.9z
	 M1211.2,718.1c-0.1,0-0.1,0-0.2,0c0-37,0-74,0-111c0-9.1-5.1-14-14.3-14c-22.3,0-44.7,0.2-67-0.1c-7.7-0.1-12.4,2.9-16.1,9.3
	c-7.8,13.6-15.2,27.3-24.3,40.1c-6.7,9.4-9.9,19.5-2.9,30.2c10,15.3,19,31.3,28.3,47c2.9,4.8,6.9,7.4,12.7,7.2
	c6.5-0.2,13,0.1,19.5-0.1c3-0.1,4.1,1,4,4.1c-0.2,6.8-0.2,13.7,0.1,20.5c0.3,6.9,5.7,11.6,13.1,11.6c7.5,0,12.9-4.4,13-11.5
	c0.2-12.7,0.3-25.3,0-38c-0.1-7.6-5.5-12.4-13.3-12.5c-8.5-0.1-17-0.1-25.5,0c-2.8,0.1-4.6-0.8-6-3.3c-6.6-11.6-13.3-23.1-20-34.5
	c-1.3-2.2-1.4-4,0-6.4c6.7-11.3,13.3-22.6,19.7-34.1c1.6-2.9,3.6-3.7,6.8-3.7c13.2,0.2,26.3,0,39.5,0.1c8.1,0,7.1-0.7,7.1,6.8
	c0.1,32.2,0.1,64.3,0,96.5c0,40.2,0,80.3-0.1,120.5c0,2.5,0.1,4.6-2.7,6.4c-11.3,7-22.4,14.3-33.5,21.7c-2.4,1.6-4.2,1.8-6.7,0.2
	c-12.7-8.2-25.6-16.2-38.3-24.3c-7-4.5-14.2-3.5-18.4,2.7c-4.2,6.2-3,14.2,3.6,18.4c16.5,10.7,33.2,21,49.8,31.4
	c4.1,2.6,8.8,2.9,12.8,0.4c17-10.8,34.7-20.4,50.8-32.5c4.7-3.5,7.2-8,8.3-13.7c1.6-8.3,0.2-16.6,0.2-24.9
	C1211.1,791.7,1211.2,754.9,1211.2,718.1z M677.5,592.2L677.5,592.2c-8.8,0-17.7,0.4-26.5-0.1c-8.6-0.5-13.9,2.8-18.1,10.3
	c-7.4,13.5-15,27-24,39.7c-6.5,9.3-9.5,19.2-2.5,29.7c10,15.1,18.9,30.9,27.9,46.6c2.9,5.1,7.2,7.6,13.1,7.6c19.8,0,39.6,0,59.4,0
	c6,0,10.5-2.7,13.4-7.9c8.6-15.2,17.3-30.3,27.1-44.8c6.1-9,6.5-18.3,0.5-27.6c-9.9-15-18.8-30.6-27.7-46.2c-2.8-5-7-7.3-12.7-7.2
	C697.5,592.3,687.5,592.2,677.5,592.2z M1072.2,673.3L1072.2,673.3c0.1-12.8-0.4-25.7,0.2-38.5c0.4-10.7-4.2-17.6-13.2-22.6
	c-15.3-8.5-30.4-17.2-45.5-25.9c-5.6-3.2-10.8-3.3-16.4,0c-17.1,10-34.2,19.8-51.4,29.7c-4.5,2.6-7.1,6.4-7.1,11.7
	c-0.1,23.7-0.1,47.3-0.2,71c0,5.2-0.2,10.3,0.2,15.5c0.5,7.7,5.5,12.1,13,12c7.4-0.1,11.9-4.3,12.7-12c0.2-2,0.2-4,0.2-6
	c0-22.8,0.1-45.6,0-68.5c0-3.4,1-5.4,4.1-7.1c11.2-6.2,22.2-12.7,33.2-19.2c2.4-1.4,4.5-1.5,6.9,0c10.2,6,20.2,12.2,30.7,17.7
	c5.2,2.7,6.8,5.9,6.8,11.6c-0.3,23.3-0.1,46.6-0.1,70c0,3.6-0.1,7.4,2,10.6c3,4.7,9,6.7,15,5.1c5.5-1.5,8.9-5.6,9-11.7
	C1072.3,702.3,1072.2,687.8,1072.2,673.3z M876.5,1003.3C876.6,1003.3,876.6,1003.3,876.5,1003.3c0.1-10.7,0.2-21.3,0-32
	c-0.1-7.3-3.6-11.6-10.1-12.9c-9-1.8-15.8,3.5-15.9,12.8c-0.2,17.7-0.2,35.3,0,53c0,4-1.2,6.4-4.7,8.4c-9.2,5-18.3,10.3-27.2,15.7
	c-3.1,1.9-5.6,1.7-8.7-0.1c-9-5.4-18-10.6-27.2-15.7c-3.4-1.8-4.6-4-4.6-7.9c0.2-18,0.2-36,0-54c-0.1-7.8-5.3-12.5-13.2-12.5
	c-7.4,0.1-12.4,4.5-12.4,12c-0.1,22.3,0,44.6-0.1,67c0,5.2,2.4,8.9,6.7,11.4c13.9,8.2,28,16,41.7,24.5c8.9,5.5,17.9,5.5,26.5,0.7
	c14.1-7.8,27.8-16.3,41.6-24.7c5-3.1,7.5-7.8,7.5-13.8C876.5,1024.6,876.5,1013.9,876.5,1003.3z M915,545c-8.7,0-14.9,6.1-15,15.1
	c-0.1,9.2,6.1,15.8,14.9,15.8c8.8,0,15-6.5,15-15.7C929.8,551.2,923.7,545,915,545z"/>
<path class="st2" d="M602.8,872.8c0,9.6,0.5,18.1-0.1,26.5c-0.8,10.4,10.8,17.6,20.2,11.7c9.2-5.7,18.7-10.9,27.9-16.6
	c3.6-2.2,4.5-1.5,4.4,2.5c-0.1,18.3-0.1,36.7,0,55c0,4.2-1.2,4.5-4.5,2.5c-9.3-5.5-18.8-10.7-28.1-16.3c-5.6-3.4-10.8-3.3-16.4-0.1
	c-14.2,8.3-28.2,17-43.3,23.8c-1.1,0.5-2,1.2-3,1.8c-10,5-14,13.3-13.3,24.1c1.1,17.3,0.8,34.6,0.8,52c0,6.3,2.5,10.7,8,13.8
	c17.2,9.8,34.3,19.8,51.5,29.7c5.1,2.9,10,2.9,15.1,0c9.6-5.6,19.4-11,28.9-16.8c3.9-2.4,4.4-1,4.3,2.6
	c-0.1,45.8-0.2,91.7-0.3,137.5c0,24.8,0,49.7-0.1,74.5c0,8.7-2.2,16.8-8.4,23.4c-6.9,7.2-15.2,8.7-24.3,5.5
	c-10.2-3.7-19.1-10-28.5-15.4c-50.8-28.8-101.4-57.9-152.1-86.8c-68.8-39.3-137.6-78.5-206.4-117.7c-37.9-21.6-75.7-43.2-113.7-64.6
	c-15.8-8.9-23.8-21.2-23.5-40c0.6-46.3,0-92.7,0-139c0-161.7,0.2-323.3,0-485c0-17.2,6.5-28.5,21.4-37.2
	c68.8-40.1,137.3-80.9,205.9-121.5c66-39.1,131.9-78.3,197.9-117.4c13-7.7,26.2-15.2,39.3-22.8c4.2-2.5,8.8-4.1,13.6-4.5
	c15-1.4,26.7,8.8,27.1,24.1c0.4,13.5,0.1,27,0.1,40.5c-0.1,35.7-0.2,71.3-0.3,107c-0.1,47.8-0.3,95.7-0.4,143.5
	c0,7.3-0.2,7.5-6.7,3.8c-44.6-25.8-89.3-51.6-133.9-77.5c-9.8-5.7-19.7-10.6-31.6-8.4c-6.3,1.2-12.1,3.8-17.6,6.9
	C359,329,305.3,360.1,251.6,391.1c-29.1,16.8-58.3,33.5-87.4,50.2c-9.4,5.4-18,11.5-22,22.2c-2.3,6.2-2.8,12.6-2.9,19.2
	c-0.9,82.8,0.2,165.6,0,248.5c0,13.3-0.8,26.7-0.3,40c0.6,14.8,4.5,28.4,17.9,37.1c4.3,2.8,8.7,5.5,13.2,8.1
	c55.5,32,111.1,63.9,166.6,95.8c25.4,14.6,50.8,29.1,76.1,43.8c15.4,9,30.2,9.4,46.2,0.4c33.3-18.8,65.8-39,99.2-57.8
	C572.9,890.4,587.3,881.8,602.8,872.8z"/>
<path class="st5" d="M165.5,627.7c0-45.2,0-90.3,0-135.5c0-4-0.3-8-0.2-12c0.1-5.7,2.2-10.1,7.2-13.3c9.4-6.1,19.4-10.9,29-16.5
	c38.4-22.3,76.9-44.4,115.4-66.6c37-21.4,74-42.8,111-64.2c5.4-3.1,10.5-3.2,16,0c33.6,19.6,67.3,39.1,101,58.6
	c17.7,10.3,35.4,20.5,53.2,30.6c3.2,1.8,4.5,3.9,4.5,7.5c-0.1,21.7-0.1,43.3-0.1,65c0,3.7,0.4,7.3,0.4,11c0,2.1,1,4.8-1.4,5.9
	c-1.9,0.9-3.9-0.6-5.5-1.8c-9.5-6.8-19.9-12.1-30-18c-36-21.1-72.6-41.3-108.3-62.9c-3.8-2.3-7.9-4.3-12.1-5.9
	c-9.9-3.8-19.5-2.8-28.8,2.6c-24,14-48,28-72,41.9c-29.4,17-58.7,34-88.2,50.9c-10.6,6.1-16,14.7-15.9,27.2
	c0.2,45.8,0.1,91.7,0.1,137.5c0,16.8-1.1,33.6-0.2,50.5c0.6,10.9,5.1,19.1,13.7,25.3c12.1,8.6,25.6,15,38.3,22.4
	c36.8,21.5,73.7,42.8,110.5,64.1c4.3,2.5,8.8,4.8,13,7.4c11.4,7,23,7,34.7,0.8c22.4-11.8,44.1-24.8,65.9-37.6
	c25-14.7,50.5-28.4,74.8-44.1c9.9-6.4,11.1-5.5,11.1,6c0,25-0.2,50-0.1,75c0,3.3-1.2,5-4,6.7C550,874,501.6,902,453.2,929.9
	c-0.1,0.1-0.3,0.2-0.4,0.3c-11.7,10.4-22.6,7.9-35.2,0.1c-40.6-25.5-82.7-48.3-124.1-72.5c-39.5-23-79.3-45.7-119-68.4
	c-6.6-3.8-9.5-9.1-9.5-16.7c0.1-48.2,0.1-96.3,0.1-144.5C165.2,627.7,165.3,627.7,165.5,627.7z"/>
<path class="st4" d="M901.4,834.9c0-75.2,0-150.3,0-225.5c0-5.3,0.5-10.4,5.5-13.6c4.6-2.9,9.5-2.9,14.3-0.5c4.9,2.5,6,6.9,6,12.2
	c-0.1,97,0,194,0,290.9c0,48.7,0,97.3,0,146c0,6.9,0,7,7.1,7c13.3,0,26.7-0.1,40,0.1c3.3,0,5.2-1.1,6.7-3.9
	c6.5-11.4,13.1-22.8,19.7-34.1c1.2-2.1,1.3-4,0.1-6c-6.8-11.6-13.6-23.3-20.2-35c-1.4-2.4-3.2-2.9-5.8-2.9c-7.7,0.1-15.3,0.1-23,0
	c-11.5-0.1-16.2-4.7-16.2-16c0-17.8,0-35.7,0.1-53.5c0.1-9.5,5.8-14.4,15.1-13.3c6.9,0.8,10.5,5,10.6,12.7c0.1,12.5,0.1,25,0,37.5
	c0,6.5,0,6.5,6.6,6.5c4.8,0,9.7,0.1,14.5,0c7.4-0.1,13.2,2.7,16.9,9.4c9.1,16.5,18.3,32.8,28.1,48.9c3.5,5.7,3.4,11.6-0.1,17.5
	c-9.9,16.8-19.7,33.6-29.4,50.4c-3,5.3-7.3,7.7-13.5,7.7c-23-0.1-46,0-69-0.1c-9.1,0-14.2-5-14.3-14.3c-0.1-10.3,0-20.7,0-31
	C901.4,966.2,901.4,900.6,901.4,834.9z"/>
<path class="st4" d="M1211.2,718.1c0,36.8-0.1,73.6,0.1,110.5c0,8.3,1.4,16.6-0.2,24.9c-1.1,5.7-3.6,10.1-8.3,13.7
	c-16.1,12.2-33.9,21.7-50.8,32.5c-4,2.6-8.7,2.2-12.8-0.4c-16.6-10.4-33.3-20.8-49.8-31.4c-6.6-4.3-7.8-12.2-3.6-18.4
	c4.2-6.2,11.5-7.2,18.4-2.7c12.7,8.2,25.6,16.1,38.3,24.3c2.5,1.6,4.3,1.4,6.7-0.2c11.1-7.4,22.2-14.7,33.5-21.7
	c2.7-1.7,2.7-3.9,2.7-6.4c0-40.2,0-80.3,0.1-120.5c0-32.2,0-64.3,0-96.5c0-7.5,1-6.8-7.1-6.8c-13.2,0-26.3,0.1-39.5-0.1
	c-3.2,0-5.1,0.8-6.8,3.7c-6.4,11.5-13,22.8-19.7,34.1c-1.4,2.4-1.3,4.2,0,6.4c6.7,11.5,13.4,23,20,34.5c1.4,2.5,3.2,3.4,6,3.3
	c8.5-0.2,17-0.1,25.5,0c7.8,0.1,13.1,4.9,13.3,12.5c0.2,12.7,0.2,25.3,0,38c-0.1,7.1-5.5,11.5-13,11.5c-7.3,0-12.8-4.7-13.1-11.6
	c-0.3-6.8-0.2-13.7-0.1-20.5c0.1-3.1-1-4.1-4-4.1c-6.5,0.1-13-0.1-19.5,0.1c-5.8,0.2-9.8-2.4-12.7-7.2c-9.3-15.7-18.3-31.7-28.3-47
	c-7-10.6-3.8-20.8,2.9-30.2c9.1-12.8,16.5-26.5,24.3-40.1c3.7-6.4,8.4-9.5,16.1-9.3c22.3,0.4,44.6,0.1,67,0.1
	c9.2,0,14.3,4.9,14.3,14C1211.1,644.1,1211.1,681.1,1211.2,718.1C1211.1,718.1,1211.1,718.1,1211.2,718.1z"/>
<path class="st1" d="M884.9,720.8c-2.2,3.4-5.6,4.6-9.4,4.6c-23.8,0-47.6,0.1-71.5,0.1c-5.7,0-9.7-2.8-12.5-7.7
	c-8.3-14.4-16-29.2-25.7-42.8c-7.7-10.8-7.8-21.6-0.1-32.3c9.6-13.4,17.4-27.9,25.6-42.2c3.4-6,8-8.9,15-8.5c6,0.3,12-0.1,18,0.1
	c3.4,0.1,4.2-1.2,4.2-4.4c-0.1-9.2-0.2-18.3,0.2-27.5c0.3-6.4,4.4-10.4,10.7-11.1c6.6-0.8,12,2.3,14.1,7.9c0.7,1.9,0.7,3.9,0.7,5.9
	c0,13.5,0,27,0,40.5c0,9.1-4.8,14.2-14.1,14.5c-8.2,0.2-16.3,0.2-24.5,0c-3.3-0.1-5.1,1-6.7,3.8c-6.3,11.2-12.7,22.3-19.2,33.3
	c-1.6,2.6-1.5,4.7,0,7.4c6.6,11.4,13.1,22.8,19.6,34.2c1.4,2.4,3.2,3.4,6.1,3.3c13.8-0.1,27.7-0.3,41.5,0.1c4.9,0.1,6.1-1.4,6.1-6.2
	c-0.1-75.8-0.1-151.6-0.1-227.4c0-10.8,8.1-17,17.7-13.4c3.2,1.2,5.9,3.1,6.6,6.8c0,24.5,0.2,49-0.2,73.5
	C885.8,595.7,889.6,658.3,884.9,720.8z"/>
<path class="st4" d="M677.5,592.2c10,0,20,0.1,30,0c5.7-0.1,9.9,2.2,12.7,7.2c8.9,15.6,17.8,31.2,27.7,46.2
	c6.1,9.3,5.6,18.5-0.5,27.6c-9.8,14.5-18.5,29.6-27.1,44.8c-3,5.3-7.4,7.9-13.4,7.9c-19.8,0-39.6,0-59.4,0c-5.9,0-10.2-2.5-13.1-7.6
	c-9-15.7-17.9-31.5-27.9-46.6c-6.9-10.5-4-20.4,2.5-29.7c8.9-12.7,16.5-26.1,24-39.7c4.1-7.5,9.5-10.8,18.1-10.3
	C659.9,592.6,668.7,592.2,677.5,592.2L677.5,592.2z M677.8,618.1c-6.7,0-13.3,0.1-20,0c-2.6-0.1-4.3,0.7-5.6,3
	c-6.6,11.7-13.4,23.4-20.2,35c-1.2,2.1-1.3,3.9,0,6c6.8,11.6,13.6,23.2,20.3,34.9c1.2,2.1,2.6,3.1,5.1,3.1c13.5-0.1,27-0.1,40.4,0
	c2.2,0,3.7-0.6,4.9-2.6c6.7-11.8,13.6-23.6,20.4-35.4c1.2-2.1,1.3-3.9,0.1-6c-6.8-11.6-13.5-23.3-20.2-34.9c-1.3-2.4-3.1-3-5.7-3
	C690.7,618.1,684.3,618,677.8,618.1z"/>
<path class="st4" d="M1072.2,673.3c0,14.5,0.1,29,0,43.5c-0.1,6.1-3.4,10.3-9,11.7c-6,1.6-12-0.4-15-5.1c-2.1-3.3-2-7-2-10.6
	c-0.1-23.3-0.2-46.6,0.1-70c0.1-5.7-1.6-9-6.8-11.6c-10.5-5.4-20.6-11.6-30.7-17.7c-2.5-1.5-4.5-1.4-6.9,0
	c-11,6.5-22.1,13-33.2,19.2c-3.1,1.7-4.1,3.7-4.1,7.1c0.1,22.8,0.1,45.6,0,68.5c0,2,0,4-0.2,6c-0.8,7.7-5.3,12-12.7,12
	c-7.5,0.1-12.5-4.3-13-12c-0.3-5.1-0.2-10.3-0.2-15.5c0.1-23.7,0.1-47.3,0.2-71c0-5.3,2.6-9.1,7.1-11.7
	c17.1-9.9,34.3-19.7,51.4-29.7c5.6-3.3,10.8-3.3,16.4,0c15.1,8.8,30.3,17.4,45.5,25.9c9,5,13.6,11.9,13.2,22.6
	C1071.8,647.7,1072.2,660.5,1072.2,673.3L1072.2,673.3z"/>
<path class="st4" d="M876.5,1003.3c0,10.7,0,21.3,0,32c0,6-2.5,10.8-7.5,13.8c-13.8,8.4-27.5,16.8-41.6,24.7
	c-8.7,4.8-17.6,4.8-26.5-0.7c-13.7-8.5-27.8-16.3-41.7-24.5c-4.3-2.5-6.7-6.2-6.7-11.4c0.1-22.3-0.1-44.6,0.1-67
	c0.1-7.5,5-12,12.4-12c7.9-0.1,13.2,4.7,13.2,12.5c0.1,18,0.2,36,0,54c0,3.9,1.2,6.1,4.6,7.9c9.2,5,18.3,10.3,27.2,15.7
	c3.1,1.8,5.5,2,8.7,0.1c9-5.4,18-10.7,27.2-15.7c3.5-1.9,4.8-4.4,4.7-8.4c-0.2-17.7-0.2-35.3,0-53c0.1-9.3,6.9-14.7,15.9-12.8
	c6.5,1.3,10,5.6,10.1,12.9C876.7,981.9,876.6,992.6,876.5,1003.3C876.6,1003.3,876.6,1003.3,876.5,1003.3z"/>
<path class="st4" d="M915,545c8.8,0,14.8,6.2,14.9,15.2c0.1,9.2-6.1,15.7-15,15.7c-8.8,0-15-6.6-14.9-15.8
	C900.1,551.1,906.3,545,915,545z"/>
<path class="st4" d="M884.9,720.8c4.7-62.5,0.9-125,2-187.6c0.4-24.5,0.2-49,0.2-73.5c0.4,0.5,0.8,0.9,1.1,1.4c0,2.2,0,4.3,0,6.5
	c0,82.4,0,164.9,0.1,247.3C886.4,716.4,887.4,719.6,884.9,720.8z"/>
<path class="st0" d="M888.3,714.9c0-82.4,0-164.9-0.1-247.3c0-2.2,0-4.3,0-6.5c1.1,1.8,0.7,3.9,0.7,5.9c0,80.7,0,161.4,0,242.1
	C889,711,889.4,713.1,888.3,714.9z"/>
<path class="st0" d="M677.8,618.1c6.5,0,13,0.1,19.5,0c2.6-0.1,4.4,0.6,5.7,3c6.7,11.7,13.4,23.3,20.2,34.9c1.2,2.1,1.1,3.9-0.1,6
	c-6.9,11.8-13.7,23.5-20.4,35.4c-1.2,2-2.7,2.6-4.9,2.6c-13.5-0.1-27-0.1-40.4,0c-2.5,0-3.9-1-5.1-3.1
	c-6.7-11.7-13.4-23.3-20.3-34.9c-1.2-2.1-1.2-3.9,0-6c6.8-11.6,13.6-23.3,20.2-35c1.3-2.4,3-3.1,5.6-3
	C664.5,618.2,671.1,618.1,677.8,618.1z"/>
</svg>
