<?xml version="1.0" encoding="utf-8"?>
<!-- Generator: Adobe Illustrator 21.0.0, SVG Export Plug-In . SVG Version: 6.00 Build 0)  -->
<svg version="1.1" id="Layer_1" xmlns="http://www.w3.org/2000/svg" xmlns:xlink="http://www.w3.org/1999/xlink" x="0px" y="0px"
	 viewBox="0 0 1447.3 1266.8" style="enable-background:new 0 0 1447.3 1266.8;" xml:space="preserve" preserveAspectRatio="none">
<style type="text/css">
	.st0{fill:#B3B5B6;}
	.st1{fill:#3F9595;}
	.st2{fill:none;}
	.st3{fill:#14718B;}
	.st4{fill:#076C8A;}
	.st5{fill:#D8DFE4;}
	.st6{fill:#DEE4E8;}
	.st7{fill:#D01A5E;}
	.st8{fill:#92A42F;}
	.st9{fill:#BABEC1;}
	.st10{fill:#E6EBEE;}
	.st11{fill:#E9BD17;}
	.st12{fill:#E8EDF0;}
</style>
<path class="st0" d="M1314.5,330.4c0.1-88.9,0.1-177.7,0.1-266.6c0-24.9-21.2-51.4-53.1-52.9c-7.5-0.3-15-0.1-22.4-0.1
	c-360.2,0-720.5,0-1080.7,0c-7.4,0-14.6,0.7-22,2C116,16.4,94.9,38.6,94.8,65.1c-0.2,26,0,51.9,0,77.9c0,76.5,0.1,153.1,0.2,229.6
	c0,0.9-0.1,1.8-0.1,2.6c-0.9,22.1,2.6,19,21.1,23.6c2.5,0.6,5.3-0.1,7.9,0.2c11,1.2,18.4,9.1,18.6,19.8c0.4,15.4-3.4,20.4-17.2,22.4
	c-6.9,1-13.5,3-20.7,2.9c-5.2-0.1-9.2,3.7-9.4,9.1c-0.2,4.9,3.7,8.4,8.2,8.9c6,0.8,11.8,2.6,18,3.1c22,2.1,23.5,13.1,20,30.9
	c-1.2,6.2-6.4,9.7-12.2,10.7c-6.8,1.2-13.4,3.9-20.6,3c-2.5-0.3-5.4-0.6-7.7,1.1c-2.7,2.1-6,4.2-5.8,8.2c0.2,4.5,3.4,7.4,7.1,8.7
	c4.9,1.7,10.1,2.5,15.3,3c18.3,1.7,26.5,8.7,27.4,26.6c0.9,17.9,0.2,35.9,0.2,53.3c-4.1,2.9-7.6,1.9-12.1,1.4c0-20.8,0-41.7,0-62.3
	c-8.2-7.1-17-8.5-26.3-8.4c-9.1,0.1-16.1-3.2-20-11.9c-3.7-8.3-3.1-16.3,1.4-23.8c4.9-8.2,14-7.7,22-9c4.3-0.7,8.9,0.3,13.1-0.5
	c5.1-0.9,8.6-4.3,8.8-9.9c0.3-5.4-2.8-7.3-7.7-8.8c-5.2-1.6-10.2-2.1-15.4-2.2c-15-0.3-19.4-3.6-24.5-18.4
	c-1.3-21.9,9.9-23.1,25-26.2c4.2-0.9,8.8,0.1,13.1-0.4c5.3-0.6,8.8-3.8,9.5-9.2c0.8-5.9-2.6-8.1-8.1-9.7c-4.7-1.4-9.3-1.9-14.1-2
	c-18.6-0.6-25.2-7.2-25.3-25.5c-0.1-36.4-0.1-72.8-0.2-109.2c0-71.3,0-142.6,0.1-213.9c3.1-34.7,30.3-60.6,65.4-60.6
	c140.7-0.1,281.4-0.1,422.1-0.1c228.7,0,457.3,0,686-0.1c11.7,0,22.4,2.2,32.7,7.7c21.3,11.4,32.9,29.1,35,53.1
	c0,73,0.1,146.1,0.1,219.1c0,4.4,0,8.8,0,13.2c0,12.3,0,24.6,0,36.9c-0.1,16.6-0.2,33.3-0.1,49.9c0,12.8,0.7,13.3,13.1,16.6
	c3.8,1,7.4,2.1,11.4,2.2c18,0.6,22.4,5.2,23.3,23.7c-2.8,14.4-5.7,17.5-19.1,18.4c-6.5,0.5-12.5,3.2-19.3,3
	c-5.2-0.2-9.1,3.8-9.2,9.2c-0.1,4.8,3.7,8.3,8.2,8.8c6,0.7,11.7,2.7,17.9,3.1c20.9,1.2,25.5,15,18.7,33c-3.6,9.6-13.8,9.4-22,11.3
	c-3.8,0.9-7.9,0-11.8,0.3c-6.1,0.5-11.3,4.6-11.1,9c0.3,5.5,3.9,8.9,9.1,9.4s9.9,2.9,15.3,3c14.9,0.2,20.3,5.5,23.2,20.9
	c-0.1,2.6-0.1,5.3-0.2,7.9c-0.7,11.2-6.5,17.8-17.8,18.3c-6.6,0.3-12.6,3.2-19.3,3c-6-0.2-10.7,5.2-10.3,9.6
	c0.4,4.4,5.4,8.6,11.5,8.6c6.6,0.1,12.9,0.9,19.3,2.6c13.6,3.5,16.4,7.5,16.8,22.2c0.4,14.3-7.6,17.9-17.9,19.9
	c-6.3,1.2-12.5,3.4-19.3,3.2c-6-0.2-10.7,5.1-10.4,9.5c0.3,4.4,5.2,8.9,11.4,8.6c7.6-0.3,14.8,1.3,21.9,3c11.4,2.6,15,9.4,14.2,24.3
	c-0.7,11.1-5.8,17-17.1,17.5c-7,0.3-13.5,3.1-20.6,3.1c-5.7,0-9.5,3.9-9.7,10.2c-0.5,4.4,2,7.3,4.1,9.8c8.6,2.4,16.6,3.5,25,3.7
	c10.1,0.3,17.2,7.1,18.3,15.3c2.1,16.1-1.5,22.3-13.6,27.1c-5.6,2.2-11.1,1.5-16.7,2.2c-7.5,1-15.9,1.3-16.9,11.7
	c5.3,7.5,12.9,8.6,20.8,9.3c4.3,0.4,8.6-0.5,12.9,1.2c11.9,4.6,14.7,13.8,13.6,25.2c-5,14.6-9.3,17.9-24.4,18.4
	c-7.8,0.3-15.9-1.1-22.5,6.3c-1.9,5.3-0.7,11.5-0.8,17.5c-0.2,19.7,0.2,39.4-0.3,59.1c-0.1,5.3,1.2,9.1,5.7,11.8
	c-2.3,1.1-5.3-0.2-7.8,3.4c1.7,8.6-2.6,18.7,2.5,28.1c-2.8,4.7-2.7,9.9-2.7,15.2c0.1,24.5,0.1,49,0,73.5c0,2.9,0.9,6.1-1.4,8.8
	c-2.1,0.9-4.1,1.5-6.8-1.8c0-31.2,0-63.5,0-95.7c0-10.4,0-20.7,0.1-31.1c-0.1-29-0.1-58.1-0.2-87.1c0.9-10.5,7.2-16,17-18.7
	c5.9-1.6,11.8-2.5,18-2.5c9.6-0.1,11.9-3,12.5-14.4c-8.7-5.1-18.6-5.5-28.4-6.7c-11-1.3-18.1-8.9-18.7-20
	c-0.6-11,5.4-19.5,15.7-22.3c6.3-1.7,12.7-2.6,19.3-2.7c9.5-0.1,11.8-3.1,12-14.5c-7-4.2-15-5.8-23.2-6.4
	c-17.1-1.2-23.4-7.3-23.8-23.9c2.8-16.1,10.6-23.3,26-23.6c5.3-0.1,10.3-0.9,15.3-2.5c4.5-1.4,6.5-3.9,6.4-8.5
	c-0.1-4.1-1.9-6.5-5.8-7.6c-5-1.4-9.9-3.2-15.3-2.8c-4.3,0.3-8.5-0.4-12.7-2.1c-9.8-3.9-13.5-8.7-13.7-19.5
	c-0.2-11.8,3.5-16.8,13.6-21c5.6-2.3,11.1-1.9,16.7-2.2c11.6-0.7,13.9-2.6,17.2-14c-6.1-3.8-12.4-7.7-20.2-7
	c-4.6,0.4-8.6-1.3-12.7-2.7c-11.6-3.7-14.7-8.1-14.6-20c0.1-13.6,2.2-15.9,14.9-20.6c5.3-1.9,10.3-1.6,15.5-1.6
	c6.4,0,12.1-1.3,16.6-6.5c2-8.9-0.9-15-10.1-17.5c-5.5-0.9-11-2.3-16.6-2.9c-8.8-1-17.5-4.1-20.1-14c-3.9-14.6,2.1-23.6,16.8-28.7
	c4.3-1.5,8.5-1.7,12.8-1.8c3.9-0.1,7.7-0.2,11.4-2.1c3.9-2,6.5-4.2,6.3-8.9s-3-6.3-7.2-7.9c-6.8-2.6-13.7-1.9-20.7-2.4
	c-10-0.7-17.7-7.2-19.6-16.3c-2.4-11.4,1.8-20,11.4-25.1c5.7-3,11.6-3.6,17.8-3.2c5,0.3,9.5-0.6,13.9-3c3.5-1.9,4.7-4.9,4.4-8.8
	c-0.3-3.4-2.2-5.5-5.4-6.7c-6.2-2.4-12.7-2.6-19.3-2.9c-16.1-0.7-22.8-7.9-22.9-23.8C1314.5,367.3,1314.5,348.9,1314.5,330.4z"/>
<path class="st1" d="M105,629.2c1.5,2.7,3.1,5.3,4.6,8c2.3,5.1,4.5,10.3,6.8,15.4c0,47.8,0,95.5,0,143.1
	c-11.9,5.6-24.1,8.2-33.9,15.7c-31.6,24.1-46.8,55.1-41.2,95.6c1.2,8.8,5.3,16.6,6.3,25.3c-12.4,0.4-24.5,4.3-37.1,3.1
	c-0.8-0.1-1.9,1.5-2.8,2.3c-2.9,0.1-4.9-1.2-7.7-5c11.3,0,21,0,32,0c-8.5-31.2-9.2-60.5,4.4-89.3c13.7-29,36.9-46.9,66.4-58.8
	c0-21.2,0-42.2,0-63.2c0.1-17.9,0.1-35.8,0.3-53.7c0.1-7.7-2.5-14.3-6.4-20.8c-2.6-4.3-7.9-9.2-2-15c3.5-0.8,7-1.7,10.4-2.5
	C105.1,629.1,105,629.2,105,629.2z"/>
<path class="st2" d="M105.1,629.1c-3.5,0.8-7,1.7-10.4,2.5"/>
<path class="st3" d="M1314.5,943c0,10.4,0,20.7-0.1,31.1c-6,0.7-12.3-1.1-17.9,1.2c-3.8,8.8-2.6,17.8-2.2,26.5
	c0.8,15.6-1.7,30.4-6.8,45.1c-20.5,59.2-40.7,118.5-61,177.8c-1.9,5.7-5.3,11.1-4.1,18.4c64.9,0,129.8,0,194.6,0
	c2.1-6.3-1.3-11.1-2.9-15.8c-21.5-64-43.2-127.8-65.1-191.7c-2.5-7.2-3.5-14.4-3.4-22c0.2-12.7,0.1-25.3,0.1-38.1
	c-7.5-2.3-14.2-0.8-20.6-1.3c-5.1-9.4-0.8-19.4-2.5-28.1c2.5-3.7,5.6-2.3,7.8-3.4c5.2,0,10.4,0,15.6,0c0.9,0,1.9,0,2.8,0
	c9.7,0.1,19.4,0.5,29,0.1c12.5-0.5,16.3,7.4,17.3,14.3c1.3,9.2-5,15.5-15.9,17.1c-1.7,0.2-3.5,0.3-5.7,0.4
	c-3.4,7.5-0.8,15.5-1.7,23.2c-2.1,18.8,2.3,36.6,8.7,54c6.2,16.8,10.1,34.4,17.6,50.8c0.6,3.3-0.5,7,2.5,9.8
	c0.8,2.8,0.2,6.2,3.2,8.2c-0.3,0.7-0.2,1.4,0.4,2c-0.6,3.9,2.2,6.9,2.8,10.5c7.9,23.8,15.8,47.6,23.7,71.3
	c0.7,10.1,5.2,19.3,8.4,28.6c3.2,9.3,3.1,17.8-1.4,26.4c-1.3,0.3-2,1.1-2.2,2.4c-1.5,0.5-2.7,1.4-3,3.1c-0.9,2.1-3,1.3-4.5,1.9
	c-4-2.5-8.5-1.5-12.8-1.5c-71.2-0.1-142.3,0-213.5,0c-91.8,0-183.7-0.1-275.5-0.1c0-1.8,0-3.6,0-5.4c8-2.8,16,0.4,24-0.1
	c23.6-1.2,47.3,2.7,70.7-2.1c15.1,6,30.7-0.2,46.1,1.8c15.3,2,30.9-0.1,46.5,0.2c27.2,0.5,54.5,0.2,81.8,0.1c3,0,6.2,0.7,9.7-3.2
	c5.7-10,5.5-22.9,2.9-34.3c-1.5-6.7-4.8-13.2-4.5-20.5c2.3-0.1,4.9,0.3,5-3.1c0.2-4.4,4.1-7.9,3.2-12.6
	c16.7-47.8,32.6-96,50.6-143.3c8.5-22.4,5.9-44.5,6.6-66.3c-4.5-3.5-8.7-1.6-12.4-2.5c-7.2-1.7-13.4-9.5-13.1-16.1
	c0.4-7.5,6.2-13.6,14.3-14.8c2.2-0.3,4.4-0.2,6.6-0.2C1281.2,943,1297.9,943,1314.5,943z"/>
<path class="st2" d="M1349,942.7c-0.9,0-1.9,0-2.8,0"/>
<path class="st4" d="M7.6,937.6c0.9-0.8,1.9-2.4,2.8-2.3c12.6,1.3,24.7-2.7,37.1-3.1c5.1,0.8,10.3,0.9,15.5,0.1
	c49.4,0,98.8,0,148.2,0c5.1,0,10.3,0,15.4,0c10.8-0.5,21.1,4.1,32,3.1c1.7-0.2,2.8,1.8,3.5,3.4c-11.3,10.6-19.8,22.7-22.4,38.4
	c-4.6,3.8-2.3,9-2.3,13.5c-0.2,80.5-0.1,161-0.2,241.4c0,4.6,1.5,9.6-1.5,13.8c-23,0-45.8,0-69,0c-1-5.2-1.2-9.8,0.1-14.6
	c13-1.8,25.8,0.8,38.4-1.8c0.1-2.8,0.4-5,0.4-7.2c-0.1-11.9-0.9-13.3-12.6-12.5c-10.3,0.7-20.5,0.3-30.7-0.1
	c-13.6-0.5-27.3,0.2-40.9-0.2c-13.3-0.4-26.6,2.8-39.9,0.2c-2.4-0.5-5.3-0.7-7.7,2.6c0.5,5.3-1,11.4,1.4,18.3c8.8,0,17.5-0.1,26.2,0
	c12.3,0.2,13.5,2.1,9.9,15.7c-24.9,0-49.9,0-75,0c0-5.2-0.1-10.4-0.1-15.7c0-3.6,0-7.1,0-10.7c0-0.9,0-1.7,0-2.6
	c0.1-42.4,0.3-84.8,0.4-127.3c0-27.1-0.3-54.2-0.4-81.3C40.5,979.7,27.2,957.4,7.6,937.6z M74,1129.8c0,9.4,7.4,28,14.2,35.4
	c11.9,13,26.4,20.4,44.3,20.4c8.9,0,17.4-0.8,26.3-4.3c9.9-3.9,19-7.4,26.2-15.6c7.3-8.4,12.6-18.5,14.4-28.5
	c2.7-15.9,2.4-32.4,0.5-48.6c-0.1-0.6-1-1.1-1.9-2c-2.8,0-2.3,5.1-5.4,4.2c-3.8-0.3-6.1-4.1-6.7-5.7c-3.9-10.8-10.9-19.6-16.4-29.3
	c-6.5-11.3-16.3-18.4-26.3-28.6c0.5,12.7-12.2,15.9-12.3,25c-8.2,5.3-16.6-0.1-24.4,3.3c-0.5,6.3-1,12.3-1.6,18.9
	c-6.2-0.1-10.2,3.7-13.2,7.5c-10.6,13.3-6.8,29.6-7.7,44C80.9,1129.4,77.1,1126.6,74,1129.8z"/>
<path class="st1" d="M248.2,1085.7c-0.1,56.3-0.2,112.6-0.3,168.9c0.1,3.3,0.1,6.6,0.2,9.9c-3.5,0.2-7,0.5-10.5,0.5
	c-68.6-0.1-137.2-0.2-205.8-0.3c-0.1-5.9-0.2-11.8-0.3-17.7c1.6-0.2,3.1-0.3,4.7-0.5h75c3.6-13.7,2.4-15.6-9.9-15.7
	c-8.7-0.1-17.4,0-26.2,0c-2.4-6.9-0.9-13-1.4-18.3c2.4-3.3,5.3-3.1,7.7-2.6c13.3,2.6,26.6-0.5,39.9-0.2c13.6,0.4,27.3-0.3,40.9,0.2
	c10.2,0.3,20.4,0.8,30.7,0.1c11.7-0.8,12.6,0.7,12.6,12.5c0,2.2-0.2,4.3-0.3,7.2c-12.6,2.6-25.3-0.1-38.3,1.8
	c-1.3,4.9-1.1,9.4-0.1,14.6h69c3-4.2,1.5-9.2,1.5-13.9c0.1-80.5,0-161,0.2-241.4c0-4.5-2.3-9.7,2.3-13.5c0.1,4.4,0.3,8.8,0.3,13.2
	c0,80.8,0,161.7,0,242.5c0,4.4-1.4,9.3,2.6,14.3c4.4-4.9,2.9-9.8,3-14.2c0.2-51.4,0.2-102.8,0.3-154.2c0.9-0.2,1.7,0,2.4,0.7
	C248.2,1081.6,248.2,1083.6,248.2,1085.7z"/>
<path class="st5" d="M36.1,1246.6c-1.6,0.2-3.1,0.3-4.7,0.5c4.1-4.7,0.3-11.5,4.6-16.1C36.1,1236.2,36.1,1241.4,36.1,1246.6z"/>
<path class="st5" d="M36.1,1217.7c0,0.9,0,1.7,0,2.6C34,1219.4,34,1218.5,36.1,1217.7z"/>
<path class="st5" d="M1438,1259.5c4.5-8.6,4.6-17.1,1.4-26.4c-3.2-9.4-7.7-18.5-8.4-28.6c7.7,2.9,3.9,12.8,10.2,16.7
	c1.6,12.9,8.3,25.1,5.4,38.7C1443.7,1259.8,1440.8,1259.6,1438,1259.5z"/>
<path class="st5" d="M1432.7,1265c0.4-1.7,1.5-2.5,3-3.1C1435.8,1264,1434.7,1265,1432.7,1265z"/>
<path class="st3" d="M440.3,1249.9c-0.7,0.2-1.5,0.8-1.7,1.4c-0.4,1.4,0.4,2.3,1.7,2.6c1.5,0.3,2.2-0.7,2.3-2.1
	C442.5,1250.5,441.9,1249.5,440.3,1249.9z M414.5,1246.6c-3.8,2.9-3.9,5.2-0.1,8.1C417.9,1251.2,416.8,1249.1,414.5,1246.6z
	 M898.9,1028.6H718.2c4.1,9.1,10.2,9.5,17.1,9.5c50.5-0.2,100.9-0.1,151.4-0.1c2.6,0,5.4,0.4,7.9-0.3
	C898.9,1036.5,901.2,1033.8,898.9,1028.6z M604.2,1223.6c-6.2-18.8-14.8-36.7-19.1-56.2c-0.5-2.4-2.7-4.4-4.1-6.5
	c0.2-4.1-1.1-7.7-2.6-11.4c-6.5-16.4-10.9-33.2-9-51.2c0.2-2.2-0.1-4.4-2.6-6.6c-8.8-1.1-18.2-0.7-28.4-0.2c0,5.1,0,9,0,12.9
	c0.1,11-0.8,21.4-4.7,32.1c-4.3,11.8-9.6,23.5-11.5,36.1c-5.8,4.1-4.6,11-6.6,16.6c-7.4,20.9-14.3,41.9-21.4,62.9
	c-2.1,8.1,4.5,4.9,7.2,4.9c32.9,0.3,65.7,0.2,98.6,0.2c2.4,0,5.4,1,6.4-2.7C607.2,1244.1,607.6,1233.9,604.2,1223.6z"/>
<path class="st1" d="M907.6,1254.5c0.2,2.7,0.4,5.4,0.5,8.2c-1.6,0.2-2.5,1.1-2.9,2.7c-50.3,0.1-100.7,0.1-151,0.2
	c-7.8,0-15.5,0.2-23.3,0.3c-1.8-1.9-4.5-3.1-4.8-6.1c4.2,0.5,8,0.5,8.1-5.3c6.4,4.8,13.4,5.8,21.4,5.7c48.2-0.3,96.4-0.1,144.6-0.1
	c0.5,0.6,1,1.2,1.4,1.7c0.4-0.7,0.8-1.4,1.2-2.1C902.4,1256.2,904,1254.4,907.6,1254.5z"/>
<path class="st1" d="M908.2,1262.6l-0.1,0.2C908.1,1262.7,908.1,1262.7,908.2,1262.6C908.1,1262.6,908.1,1262.6,908.2,1262.6z"/>
<path class="st5" d="M157.3,655.2c0.2,46.8,0.5,93.6,0.7,140.6c9.5,2.8,17.5,6.3,25.1,10.4c35.2,18.8,54.6,57.2,51.3,94.7
	c-1,10.8-4.3,21.3-7.8,31.6c-5.1,0-10.3,0-15.4,0c5.5-11.5,7.7-23.8,9.4-35.3c-2.4-4.3-5.5-4.1-8.6-4.1c-50,0-100.1,0-150.1,0
	c-3.7,0-7.1,0.3-8.4,3.8c1.3,12.7,4.8,24.3,9.5,35.6c-5.2,0.8-10.3,0.7-15.5-0.1c-1-8.7-5.1-16.5-6.3-25.3
	c-5.7-40.4,9.5-71.4,41.2-95.6c9.9-7.5,22.1-10.1,33.9-15.7c0-47.6,0-95.3,0-143.1c0.7,0,1.4,0,2.1,0.1c0,47,0,93.9,0,140.9
	c0.9,0,1.8,0,2.6,0c0-24.1,0-48.1,0-72.2c9.9,0.7,20.1-2,29.3,2.4c4.2-1.9,5.2-5,4.9-8.8L157.3,655.2z"/>
<path class="st1" d="M226.6,932.4c3.5-10.3,6.8-20.8,7.8-31.6c3.3-37.5-16.1-75.9-51.3-94.7c-7.7-4.1-15.6-7.6-25.1-10.4
	c-0.2-47-0.5-93.8-0.7-140.6c3.1-9.3,7.1-18.1,12.8-25.8c5.1-0.2,8.6,2.1,11.9,4.8c0.6,4.5-3,7.9-3.4,12.1c-6,7.4-8,15.9-7.7,25.4
	c0.6,16.5,0.4,33,0.5,49.6c0,20.6,0,41.1,0,63c40.2,8.5,66.7,58.7,68.1,59.4c6.5,10.8,13.7,61.5,4.8,83c-2.5,3.2-2.7,5.6,2.3,5.8
	c2.2,0.1,4.3-0.2,6.5-0.3c4.2,1.1,9-0.6,12.8,1.3c0.2,3.9-2.1,4.4-3.8,5.5c-0.8-1.6-1.9-3.6-3.5-3.4
	C247.7,936.5,237.4,931.9,226.6,932.4z"/>
<path class="st6" d="M121.1,721.3c0,24.1,0,48.1,0,72.2c-0.9,0-1.8,0-2.6,0c0-47,0-93.9,0-140.9c0.9,0,1.7,0,2.6,0c0,3.5,0,7,0,10.6
	c0,1.8,0,3.5,0,5.3C121.1,686,121.1,703.7,121.1,721.3z"/>
<path class="st6" d="M1324,974.1c6.5,0.6,14.3-0.9,21.9,1.4c0,12.8,0.2,25.4-0.1,38.1c-0.1,7.6,0.9,14.8,3.4,22
	c21.8,63.8,43.6,127.7,65.1,191.7c1.6,4.8,4.9,9.5,2.9,15.8c-64.8,0-129.6,0-194.6,0c-1.3-7.2,2.1-12.7,4.1-18.4
	c20.2-59.3,40.4-118.6,61-177.8c5.1-14.7,7.6-29.5,6.8-45.1c-0.5-8.7-1.7-17.6,2.2-26.5c5.7-2.3,11.9-0.5,17.9-1.2
	c0,32.3,0,64.6,0,95.7c2.7,3.2,4.7,2.7,6.8,1.8c2.3-2.6,1.3-5.8,1.4-8.8c0.1-24.5,0.1-49,0-73.5
	C1322.6,984.1,1321.2,978.8,1324,974.1z M1234.4,1233c57.4,0,113.3,0,170.2,0c-13.1-36.6-24.2-72.8-37.7-107.3
	c-32.7,0-63.7,0-95.6,0C1259.1,1161.4,1246.9,1196.7,1234.4,1233z"/>
<path class="st4" d="M921.1,1238.7C921.1,1238.7,921.1,1238.8,921.1,1238.7L921.1,1238.7C921.2,1238.7,921.1,1238.7,921.1,1238.7z
	 M921.1,1186L921.1,1186L921.1,1186L921.1,1186L921.1,1186z"/>
<path class="st4" d="M1208.1,1222.4c-1.5-6.7-4.8-13.2-4.5-20.5v-13.8c-1.5-0.9-2.3-1.8-2.9-1.8c-21.2,3-42.4,4-63.6,0.2
	c-12.8,4.4-26.1,1.3-39.1,1.9c-6,0.3-12,0.5-18.1-1.9c-4.2-1.6-9.6-1.1-14.3-0.4c-24.8,3.8-49.5,3.1-74.3,0.8
	c-5.7-0.5-11.8,1.8-17.9,1.7c-17.4-0.3-34.9,0.9-52.2-2.6l0,0l0,0l0,0c0.1-0.9,0.1-1.8,0.1-2.8c-0.3-0.9-0.7-1.8-1-2.7
	c-3.7-3.7-1.6-8.3-1.7-12.5c-0.2-34.6,0-69.3-0.2-103.9c0-3.2,1.6-7-1.7-9.4c-3.9-0.4-3.2,4.3-6.1,4.6c0,58.4,0,116.7-0.2,175.1
	c0,4.1,2.2,8.8-2,12.3c-0.3,2.6-0.6,5.2-0.9,7.8c0.2,2.7,0.4,5.4,0.5,8.2v0.1c0,0,0,0,0.1,0c5.3,0.6,7-3.1,8.5-7.1
	c0.4-4.1,1.6-7.8,3.9-11.7c6.7,4.2-0.5,12.4,5.9,15.8c8-2.8,16,0.4,24.1-0.1c23.6-1.2,47.3,2.7,70.7-2.1c15.1,6,30.7-0.2,46.1,1.8
	c15.3,2,30.9-0.1,46.5,0.2c27.2,0.5,54.5,0.2,81.8,0.1c3,0,6.2,0.7,9.7-3.2C1210.9,1246.7,1210.6,1233.8,1208.1,1222.4z
	 M921.1,1238.7C921.1,1238.7,921.2,1238.7,921.1,1238.7L921.1,1238.7C921.1,1238.8,921.1,1238.7,921.1,1238.7z M983.1,1239.8
	c-0.3-0.3-0.6-0.7-0.9-1c-0.2-3.3-0.4-8.2-0.4-12.4c0-0.2,0-0.5,0-0.7c-0.5-0.2-0.9-0.4-1.2-0.7c-0.7-0.6-0.4-1.4-0.8-3.8
	c1.7,1,2,2.7,2.2,4.2c3.3,5,3.6,9.5,6.9,14.5C984.5,1245.1,986.9,1244.4,983.1,1239.8z M1028.3,1242.4c-12,3.8-15.2-5.6-19-12.5
	c-1.7-3.1-2.8-6.7-5.4-9.3c-3.1-5-9.4-2.6-13.2-5.9c-8.1-0.6-15.5,1.6-22.4,5.8c-3.5,6.4-7.5,12.6-8.1,20
	c-5.7,0.7-10.4,1.2-15.8-0.6c-0.2-12.3,2.4-23,13.6-30.1c7.3-10.4,18.1-13,29.9-12.9c11.4-0.9,20,5,28.4,11.5
	C1026.5,1217.7,1032,1228.4,1028.3,1242.4z M1105.9,1233.5c-4.3,13.3-14.5,20.2-27.1,18.3c-11.3-1.7-21.4-12.6-22.3-24.1
	c-0.9-11.8,8.6-23.6,21-26.1c13.2-2.7,22.7,2.8,28.2,16.2C1107.2,1223,1107,1228.3,1105.9,1233.5z M1162.6,1245.3
	c-8.8,7.7-21,8.3-31.5,1.8c-0.2-0.2-0.5-0.3-0.7-0.5c-3.5-2.3-6.1-5.2-6.7-9.6c-5.9-10.3-5.5-17.7,1.4-26.1c0.3-0.3,0.5-0.7,0.8-1
	c7.4-8.4,19.8-11.6,29.5-7c5,2.3,10.5,4.7,11.5,11.3C1171.9,1226.8,1170.3,1238.7,1162.6,1245.3z"/>
<path class="st1" d="M1203.7,1201.9c0-4.8,0-9.5,0-13.8c-1.5-0.9-2.3-1.8-2.9-1.8c-21.2,3-42.4,4-63.6,0.2
	c-12.8,4.4-26.1,1.3-39.1,1.9c-6,0.3-12,0.5-18.1-1.9c-4.2-1.7-9.6-1.1-14.4-0.4c-24.8,3.8-49.5,3.1-74.3,0.8
	c-5.7-0.5-11.8,1.8-17.9,1.7c-17.4-0.3-34.9,0.9-52.2-2.6l0,0c0-0.9,0.1-1.9,0.1-2.8c3.8-0.3,7.9,1,11.9-2.2
	c-0.2-9.7-2.4-19.6-0.1-29.1c10.1-3,225.9-4.2,259.3-1.5c2.5,10-0.2,20.6,1.5,30.9c3,4.5,9.9-0.8,12.6,4.8c0.5,4.3-2.2,9.2,2.3,12.8
	C1208.5,1202.2,1205.9,1201.8,1203.7,1201.9z"/>
<path class="st1" d="M916.7,1255.7c0.4-4.1,1.6-7.8,3.9-11.6c6.7,4.2-0.5,12.4,5.9,15.8c0,1.8,0,3.6,0,5.4c-4.8,0.7-5.4-2.3-5.4-5.9
	C921,1256.4,920.1,1254.6,916.7,1255.7z"/>
<path class="st7" d="M74,1129.8c3.2-3.2,7-0.3,9.9-4c0.9-14.4-2.9-30.7,7.7-44c3-3.8,6.9-7.6,13.2-7.5c0.6-6.6,1.1-12.7,1.6-18.9
	c7.8-3.4,16.2,2,24.4-3.3c0.1-9,12.8-12.3,12.3-25c10,10.2,19.8,17.3,26.3,28.6c5.6,9.7,12.5,18.5,16.4,29.3
	c0.6,1.7,2.9,5.4,6.7,5.7c3.1,0.9,2.7-4.2,5.4-4.2c0.9,0.9,1.8,1.4,1.9,2c1.9,16.2,2.2,32.8-0.5,48.6c-1.7,10-7.1,20.1-14.4,28.5
	c-7.2,8.2-16.3,11.8-26.2,15.6c-8.9,3.5-17.3,4.3-26.3,4.3c-17.8,0-32.4-7.4-44.3-20.4C81.3,1157.7,73.9,1139.2,74,1129.8z
	 M97.7,1115.8c0,7-0.4,12.7,0.1,18.3c3.3,36.3,36.7,44.1,59.5,32.5c8-4.1,10.5-12.3,15.4-18.8c3.8-5.1-1-8.4-3.9-12
	c-0.7-0.8-0.4-2.6-0.3-3.9c1.2-9-2.6-16.1-8.7-22.1c-4.1-4.1-6.5-9.1-8-15.4c-2.5,0.9-4.9,2.2-7.4,1.4c-5.9-3.7-8.4-10.8-13.9-14.7
	c-13.9,8.1-18.1,22.8-25.3,35.3C102.6,1116.2,100.6,1116,97.7,1115.8z"/>
<path class="st8" d="M62.9,932.4c-4.6-11.3-8.2-22.9-9.5-35.6c1.4-3.5,4.7-3.8,8.4-3.8c50,0,100.1,0,150.1,0c3.1,0,6.2-0.2,8.6,4.1
	c-1.7,11.5-4,23.8-9.4,35.3C161.8,932.3,112.4,932.4,62.9,932.4z"/>
<path class="st3" d="M277.3,1243.6c-4.3-1.7-6.2-5.7-4.7-9.1c2.8-6.5,1.5-13,1.5-19.4c0.2-40.3,0.1-80.6,0.1-120.9v-12.4
	c-5.6-2-7,2.8-10.2,3.7c-4.3,1.2-5.5-3.2-7.7-4.7c-3.6,1.5-4.3,5.6-8.1,5c0-2.1,0-4.1,0.1-6.2v-1.3c8.6,0,17.3-0.1,25.9-0.1
	c1,0.7,1.9,1.5,2.9,2.2c0,11.8-0.1,23.7-0.1,35.6C277,1158.4,277.2,1201,277.3,1243.6z"/>
<path class="st1" d="M691.5,1264.8c-25.6,0.7-51.1,0.8-76.6,0c1.3-2.3,3.4-2.3,5.6-2.3c21.8,0,43.6,0,65.4,0
	C688.1,1262.5,690.2,1262.5,691.5,1264.8z"/>
<path class="st4" d="M469.7,1264.8h-5.4C466.1,1261.9,467.9,1261.9,469.7,1264.8z"/>
<path class="st4" d="M477.9,1264c-1.1,0.1-2.1,0.2-3.2,0.4c0.4-1.3-0.3-3.3,1.9-3.3C477,1261.1,477.4,1263,477.9,1264z"/>
<path class="st1" d="M255.8,1264.8c-0.9,0-1.9,0-2.8,0C254,1262.7,254.9,1262.7,255.8,1264.8z"/>
<path class="st1" d="M905.2,1265.3c0.4-1.6,1.3-2.5,3-2.7C908.4,1264.9,907,1265.3,905.2,1265.3z"/>
<path class="st6" d="M890.4,1049.5c-28.1,57.1-57.8,112-86.3,167.6c-4.7-4.5-8.8-9.4-12.3-14.9c-1.4-2.2-2.9-4.3-4.7-6.2
	c-7.3-7.3-14.9-6.7-20.5,1.9c-2.8,4.3-4.6,9.2-6.8,13.9c-3.4,7.4-8.7,11.7-17.2,11.4c-3-0.1-6.1,0.3-9.2,0.5
	c-0.6-10.3-1.2-20.7-1.7-30.7c8.9-6,21.6,3.6,28.2-9.2c-6.1-11.7-17.8-2.4-26.6-7.6c-3.2-3.5-1.4-7.9,1-13.6h49.4
	c3.6-3.8,3.4-6.6,1.2-10.4c-16.5-3.1-33.8-2.3-50.8-1.5c-2-6.8-2-6.8-0.7-13.8c4.7-1.9,10-0.9,15.2-1c4.9-0.2,10.9,0.2,10.7-6.5
	c-0.2-6.2-6.1-6.4-11.1-6.5c-4.4-0.1-8.7,0-13.8,0c-1.7-4.1-4.1-7.7-0.6-12.9c12.2-1.8,24.9-0.3,37.5-0.9c3.1-0.1,6.2,0.3,9.2-0.2
	c3.9-0.5,6.5-2.7,6.1-7.1c-0.4-3.6-2.8-5.4-6.3-5.5c-4.8-0.2-9.7-0.1-14.5-0.1c-10.5,0-21.1,0-31.2,0c-3.1-5.1-3.9-9.6-0.3-14.3
	c4-2,8.4-0.8,12.7-0.9c2.2,0,4.4,0.9,6.4,0.5c3.1-0.7,5.9-2.6,5.8-6.2c0-3.6-2.4-5.6-6-5.7c-6.5-0.1-13.1,0-19.2,0
	c-4.9-7.4-0.3-13.5-0.6-20.2L890.4,1049.5L890.4,1049.5z"/>
<path class="st8" d="M908.4,1246.7c-0.3,2.6-0.6,5.2-0.9,7.8c-3.6-0.1-5.1,1.8-4.8,5.3c-0.9,0.1-1.7,0.2-2.6,0.3
	c-48.2,0-96.4-0.2-144.6,0.1c-7.9,0-15-1-21.4-5.7c-0.2-10.2-0.5-20.4-0.7-30.7c3.1-0.2,6.1-0.6,9.2-0.5c8.5,0.3,13.8-4,17.2-11.4
	c2.1-4.7,4-9.6,6.8-13.9c5.6-8.6,13.1-9.2,20.5-1.9c1.8,1.8,3.4,4,4.7,6.2c3.5,5.5,7.6,10.4,12.3,14.9c4.6,0,8.9,3.4,13.6,1
	c0.5,2.1,0.9,4.1,3.8,4.4c8.5,0.9,13.4-1.8,18.3-10.8c6.1-11.4,13-14.6,25.5-9.7c2.4,1,4.8,2.1,7.1,3.2c11.5,5.3,23.2,6.9,35.2,1.5
	C907.9,1220.1,908.2,1233.4,908.4,1246.7z"/>
<path class="st6" d="M908.1,1078.9c-0.3,42.6-0.3,85.3-0.5,127.9c-12,5.3-23.7,3.8-35.2-1.5c-2.4-1.1-4.7-2.3-7.1-3.2
	c-12.5-5-19.3-1.7-25.5,9.7c-4.9,9-9.8,11.7-18.3,10.8c-2.9-0.3-3.3-2.3-3.8-4.4c29.2-55.9,58.3-111.8,87.5-167.7
	c1,0.1,1.9,0.2,2.9,0.2c0.2,1.1,0.4,2.2,0.7,3.2C907.2,1062.2,908.2,1070.6,908.1,1078.9z"/>
<path class="st6" d="M581,1160.9c-1.3,6.3,0.8,13-1.5,19h-56.6c-0.2-3-0.4-5.1-0.6-7.3c1.9-12.6,7.2-24.3,11.5-36.1
	c3.9-10.7,4.8-21.2,4.7-32.1c0-3.9,0-7.8,0-12.9c10.2-0.5,19.6-0.8,28.4,0.2c2.5,2.2,2.8,4.4,2.6,6.6c-2,17.9,2.5,34.8,9,51.2
	C579.9,1153.1,581.2,1156.8,581,1160.9z"/>
<path class="st1" d="M474.8,1061.9c-1.9,0-3.9,0.3-5.1-1.6c-1.6-0.2-3.3-0.3-4.9-0.4c-10.5,4-21.4,0.8-32.1,2
	c-5.4,3.5-1,6.9,0.1,10.4c4.8,3.2,2.5,8,2.5,12c0.2,43.9,0.1,87.8,0.2,131.7c0,8.6-1,17.3,5,24.1c-3,2.8-6.4,1-8,3.8c0,0,0,0,0.1,0
	c3,0.9,6.1,0.5,9.1,0.1c3.2-0.4,6.3-0.9,9.5,0c2.6,0,5.3,0,7.9,0.1c1.6,0.1,3.2,0.1,4.7,0.2c0.3,0,0.5,0,0.6,0
	c1.7,0.2,3.4,0.3,5.1,0.5c0.9-0.2,1.9-0.5,2.8-0.7c-1.4-2.1-4.3-4.2-1.8-6.8c4.8-5.2,3.9-11.3,4-17.4c0-44,0-87.9,0.2-131.9
	c0-6-1-12.1,2.5-17.8C478.6,1067.5,478.3,1063.8,474.8,1061.9z M450.4,1238.7c-5.6-0.2-7.1-3.9-7.6-8.5c-1.9-0.9-2-2.6-2-4.3
	c0-19.6,0-39.3-0.1-58.9c0-1.8,0.3-3.4,1.8-4.6c0.2-1.6,0.4-3.2,0.6-4.7c-0.1-3.8-0.2-7.6-0.3-11.4v-78.7h24.3v81.5
	c0,2.9,0,5.8-0.1,8.8v1.1c0,21.4,0.1,42.8,0.1,64.2c0,3,0.8,6.2-2.4,8.3C462.6,1239,456.6,1238.9,450.4,1238.7z M432.8,1072.3
	L432.8,1072.3L432.8,1072.3L432.8,1072.3z"/>
<polygon class="st8" points="295.2,1233.6 295.3,1233.6 295.3,1233.6 "/>
<path class="st8" d="M321.7,1231.3c0,2.5,0.1,5,0.1,7.6c-3.6,0.1-7.2,0.2-10.8,0.3c-1.7,0-3.5-0.1-5.2-0.1
	c-0.5-7.7-6.2-5.3-10.6-5.4c0.1-31.1,0-62.3,0.4-93.4c0-4-2.5-8.8,2.3-12.1c7.9,0.3,15.7,0.5,23.6,0.7
	C321.6,1163,321.7,1197.2,321.7,1231.3z"/>
<path class="st8" d="M321.9,1238.9L321.9,1238.9L321.9,1238.9z"/>
<path class="st1" d="M412.5,1242.1c-5.5-0.8-11.3,1.4-17.3-1.7c4.2-6.5,3.5-13.6,3.5-20.6c0-43.5,0.1-87,0.1-130.5
	c0-8.2-0.9-16.4,5.9-24.3c-12.9-6.3-25.3-2.5-37.1-3.5c-4.3-0.4-9-0.6-11.8,6.3c7.4,4.2,5.4,11.9,5.4,19.2c0,36.9,0,73.8,0.1,110.7
	c0,15.5-1.8,31.3,5.1,46.1c1.9,0.1,3.7,0.2,5.6,0.3c6.1,0.1,12.3,0.1,18.4,0.2c1.8,0.1,3.6,0.3,5.4,0.4c3.5,0,6.9,0,10.4,0
	c7.2-0.3,14.3-0.6,21.5-0.8C423,1240.2,417.5,1242.8,412.5,1242.1z M390.7,1231.2c-10.6,10.4-10.6,10.4-21.4,0.2v-117.5
	c2.8-4.1,7.5-0.5,9.8-3.8c-3.3-0.3-6.5-0.7-9.7-1c-1.3-0.3-2.5-1-2.5-2.5c0-12.6,0-25.3,0-38.8c8.9-1.1,17-1,24.7-0.4
	c2.7,3.8,1.6,7.4,1.6,10.8c0.1,46.9,0.1,93.9-0.1,140.8C393,1223,395.2,1227.8,390.7,1231.2z"/>
<path class="st9" d="M676.2,1244.2v-63.9h-48.3v63.9c-0.6,0.1-1.2,0.1-1.8,0.1c-4.5-2.4-3.2-6.8-3.6-10.7c0-49.4,0-98.8,0.1-148.3
	c-0.1-8.5-0.1-17-0.2-25.5c0.1-21.3,0.2-42.7,0.3-64c2.1,0.2,3.9-0.2,5.7-1.4c2-1.5,3.7-1,4.7,1.3c-1.3,2.6-5.4,2.8-5.4,6.8
	c0.2,15.2,0.1,30.4,0.1,46.1h47.5c0.1,3.4,0.1,6.7,0.2,10.1c-15.6,0.1-31.3-1-47.7,0.7v46.7c-0.1,18.6-0.2,37.2-0.4,55.8
	c-0.1,4.7,0.4,8.7,6.2,9.3c8.8,3.4,17.9,1,26.9,1.3c4.9,0.2,10.4,2.1,14.9-1.8l0.7-0.7c2.8-1.7,2-4.5,2-7c0.1-9.9,0.1-19.9,0.2-29.8
	h1.2l1.2,0.1c0,19.2,0.1,38.3,0.1,57.5c0,15.2,0,30.5,0,45.7C680.9,1240.1,681.5,1244,676.2,1244.2z"/>
<path class="st9" d="M894.6,1037.7c-2.5,0.7-5.2,0.3-7.9,0.3c-50.4,0-100.9,0-151.4,0.1c-6.9,0-13.1-0.4-17.1-9.5h180.7
	C901.2,1033.8,898.9,1036.5,894.6,1037.7z"/>
<path class="st5" d="M604.2,1223.6c-6.2-18.8-14.8-36.7-19.1-56.2c-0.5-2.4-2.7-4.4-4.1-6.5c-1.3,6.3,0.8,13-1.5,19h-56.6
	c-0.2-3-0.4-5.1-0.6-7.3c-5.8,4.1-4.6,11-6.6,16.6c-7.4,20.9-14.3,41.9-21.4,62.9c2.1,1.5,4.1,3.2,7,2.5c1-2.5,3.1-2.6,5.4-2.6
	c27.2,0,54.4,0,81.5,0c2.3,0,4.4,0.1,5.4,2.6c4.3,0,8.5,0,12.8,0C607.2,1244.1,607.6,1233.9,604.2,1223.6z M501.2,1250
	c8-22.7,15.3-43.7,23.3-66.4c18.7-0.3,37.7,0,56.8-0.1c10.2,21.4,15.3,43.4,24.2,66.4C570.5,1250.1,537,1250,501.2,1250z"/>
<path class="st1" d="M908.4,1246.7c-0.3-13.3-0.5-26.5-0.8-39.8c0.1-42.7,0.2-85.3,0.5-127.9c0.1-8.3-0.9-16.7,0.7-25
	c2.2,1.2,1.7,3.4,1.9,5.3c0,58.4,0,116.7-0.2,175.1C910.5,1238.4,912.6,1243.2,908.4,1246.7z"/>
<path class="st9" d="M609.5,985.5c0,50.9-0.1,101.7-0.2,152.6c0,3,0.7,6.2-2,8.6c-0.1-48.1-0.3-96.2-0.4-144.4
	c0-5.7-0.1-11.4-0.1-17.1c0-1.7-0.1-3.4-0.1-5.2c0.1-1,0.3-1.9,0.4-2.9C610.4,979.2,609.5,982.5,609.5,985.5z"/>
<path class="st5" d="M622.6,1085.3c0,49.4,0,98.9-0.1,148.3c-3.8-3.5-2.7-8.2-2.7-12.3c0.2-42.8,0.6-85.6,1-128.4
	C621,1090.2,620.7,1087.5,622.6,1085.3z"/>
<path class="st9" d="M606.5,1254.5c-1,3.7-4,2.7-6.4,2.7c-32.9,0-65.7,0.1-98.6-0.2c-2.7,0-9.3,3.2-7.2-4.9c2.1,1.5,4.1,3.2,7,2.5
	h92.4C598,1254.6,602.3,1254.6,606.5,1254.5z"/>
<path class="st0" d="M620.6,1047.2c-0.4-25.8-0.6-51.6-0.8-77.4c3.6,0.9,2.9,3.9,2.9,6.3c0.1,6.6,0.1,13.1,0.1,19.7
	c-0.1,21.4-0.2,42.7-0.3,64C619.1,1056.1,620.6,1051.5,620.6,1047.2z"/>
<path class="st1" d="M681,1252.7c-1.9,2.6-4.6,1.9-7.2,1.9c-12.6,0-25.3,0.1-37.9,0c-2.8,0-6.3,1.3-7.8-2.7c0.9,0,1.8-0.1,2.7-0.2
	C647.5,1252.1,664.3,1252.4,681,1252.7z"/>
<path class="st10" d="M684,1249.5c-1,1.1-2,2.2-3,3.2c-16.8-0.3-33.5-0.6-50.3-1c1.8-3.7,5.2-2.4,7.9-2.4
	C653.8,1249.3,668.9,1249.4,684,1249.5z"/>
<path class="st5" d="M926,1037.6l0.4,0.5L926,1037.6c-3.8-0.4-7.7,0.9-11.4-0.7c0.7-8,0.7-8,10.4-7.6
	C928,1031.8,926.1,1034.8,926,1037.6z"/>
<path class="st1" d="M305.9,1239c-1.3,3.8-4.3,5.1-8,5.6v-0.6c0-0.9-0.1-1.8-0.1-2.7c-0.5-2.7-3.6-4.5-2.7-7.7v-0.1h0.1
	C299.7,1233.7,305.4,1231.3,305.9,1239z"/>
<path class="st4" d="M934.4,1038.1c-0.1,2.8-0.5,5.3-4.2,5.2c-3.7-0.1-3.5-3.2-4.2-5.6l0.5,0.4l-0.4-0.5
	C928.8,1037.8,931.6,1037.9,934.4,1038.1L934.4,1038.1z"/>
<path class="st9" d="M598.4,1087.8l-0.1-12.3C599.3,1079.6,599.2,1083.7,598.4,1087.8z"/>
<path class="st5" d="M960.8,937.7c-3.2-2.2-6.5-3.5-10.5-2.3C956.2,930.7,958.3,931.2,960.8,937.7z"/>
<path class="st4" d="M937.7,1038.6v0.5c-1.1-0.3-2.2-0.6-3.3-0.9l0,0c0.5-4-1.6-8.8,3.3-11.6l0.1,0.5c-0.6,1.7,0,2.7,1.6,3.2
	c0,0.9,0.1,1.8,0.1,2.7C936.5,1034,936.9,1036.2,937.7,1038.6z"/>
<path class="st1" d="M322.2,1243.5c-1.1,0.2-2.1,0.4-3.2,0.6c-0.9-4.4-6.7-1-7.9-4.9c3.6-0.1,7.2-0.2,10.8-0.3l0,0l0,0
	C322,1240.4,322.1,1242,322.2,1243.5z"/>
<path class="st1" d="M931.7,1019.6c-2.2,0.1-4.3,0.1-5.2-2.5C928.8,1016.7,930.8,1017,931.7,1019.6z"/>
<path class="st1" d="M908.1,1050.7c-1-0.1-1.9-0.2-2.9-0.2C906.4,1048.4,907.3,1048.7,908.1,1050.7z"/>
<path class="st1" d="M900.1,1260.1c0.8-0.1,1.7-0.3,2.6-0.3c-0.4,0.7-0.8,1.4-1.1,2.1C901.1,1261.2,900.6,1260.6,900.1,1260.1z"/>
<path class="st1" d="M1040.7,1032.8c0-1.6-0.1-3.2-0.1-4.8c2.7-4.6,4.2-9.2-0.7-13.5c-4.1-2.4-2.2-6-1.9-10.1
	c12.4-1.5,24.9-0.6,37.8-0.6c1.6,4.1,2.6,7.6-1.6,10.5c-2.7-0.9-2.4-3.2-2.7-5.3c-8.8-5.7-18.2-1.1-27.8-2.7c3,10-0.5,19.7,2.7,29
	c7.7,0,15,1.5,22.3-1c0.2-2.5,0.3-4.7,0.5-6.9c3,0.6,1.8,4.8,4.7,5.5l0.3-0.1c0.8,2.6,2.8,2.9,5,2.8c12.4-0.2,24.9-0.3,37.3-0.5
	c4.4-7,4.4-14.3,0-20.9c-2.8-4.3-3.9-7.4,0.2-11.1c11.4,0.1,22.8,0.2,34.1,0.3c2.7,1.8,3.4,5,1.7,6.8c-6.5,7.3-3.9,15.5-4,23.7
	c5.9,3.6,12.7-0.2,18,2.9c3.1,8.6,3.8,94.9,0.9,108.8c-5.5-0.5-5.5-4.5-5.5-8.5c0-12.7,0-25.5,0-38.2c0-18,0-36,0-53.5
	c-4.2-3.4-8.1-2.4-12.2-1.8c-0.5,1.1-1.4,2.2-1.4,3.4c-0.1,20.1-0.1,40.2-0.1,60.3c0,2.6,0.2,5.3,0,7.9c-0.6,8-6.7,14.4-14.1,14.8
	c-7.6,0.4-14.9-6.4-15-15c-0.2-18.9,0-37.8,0-56.7c0-4.4,0-8.7,0-12.8c-3.7-3.8-7.7-2.5-11.3-2.1c-1.7,1.3-2.1,2.9-2.1,4.7
	c0,27.7,0,55.4-0.1,83.1c0,4.7,1.2,9.6-1.4,14c-5.8,1.6-5.9-2.2-5.9-5.9c-0.1-12.7-0.1-25.5-0.2-38.2c0-5.2,0-10.3,0-15.5
	c0-13.9,0-27.8,0-42.6c-9.6,0-17.8,0-26,0l-0.3-0.2c-0.1-0.7-0.2-1.5-0.2-2.2c-1.2-3.3-4-2.7-6.6-2.7c-8.3,0-16.7,0.1-25,0.1
	l-0.4-0.4c0.1-0.8,0.1-1.6,0.1-2.4C1041.3,1035,1043.4,1034.6,1040.7,1032.8z M1145,1035.2c1.6-10.1-0.4-19.3,1.8-28.1
	c-9.6,0-18.1,0-26.8,0c3.8,9.3,0.3,18.7,2.9,27.9C1130,1036.2,1136.9,1035.9,1145,1035.2z M1122.1,1043.6
	c-0.4,6.4-1.1,11.8,0.9,18.3c7.4-1.5,14.8,2.4,21.7-3.2c1.5-4.9,1.3-9.8,0.1-15.2C1137.3,1043.6,1130.5,1043.6,1122.1,1043.6z"/>
<path class="st11" d="M1093.3,1101.6c0.5,6.2-9,22.3-18.5,25.2c-34.6,8-45.2-4.9-53.9-22.5c-6.8-13.8-0.2-30.3,18.6-46.7
	c1.5-4.6,0.7-9.5,0.6-14.3l-0.1,0.1c10.7-0.1,21.3-0.2,32-0.4l0.3,0.2c0,4.7,0,9.4,0,13.5c5.2,4.8,10.2,8.6,14.2,13.4
	c3.1,3.7,5.1,4.7,7.1,12.9C1093.4,1089.2,1093.4,1095.4,1093.3,1101.6z"/>
<path class="st11" d="M675.8,1001.1c0,1.8,0,3.5,0,5.3c0,10.6,0.1,21.1,0.1,31.7c0,1.8,0,3.5,0.1,5.3c-0.1,1.8-0.3,3.5-0.4,5.3h-0.2
	c-15.3,0-30.6,0-47.5,0c0-15.7,0.1-30.9-0.1-46.1c0-4,4.1-4.2,5.4-6.8c11.8,0.1,23.7,0.3,35.5,0.2
	C672.6,995.9,675.8,996.2,675.8,1001.1z"/>
<path class="st1" d="M1040.1,1039.3h-25.8c-0.3,0-0.5,0.2-0.5,0.5c0,17.6,0.1,34.5,0,51.3c-0.1,16.2,0.6,32.5-1.9,48.7
	c-0.1,0.5-0.8,0.6-1,0.1c-4-10-2-20.6-2.4-30.9c-0.4-11.9,0.1-23.7-0.1-35.6c-0.2-11.2,0.9-22.4-0.8-33.4c0-0.2-0.2-0.4-0.4-0.4
	c-2.2-0.4-3.8-0.6-5.8,0.9c-0.1,0.1-0.2,0.2-0.2,0.4c-0.4,4.3-0.8,9.2-1.2,14.1c0,0.3-0.3,0.5-0.5,0.5c-0.3,0-0.6-0.1-0.9-0.2
	c-0.2-0.1-0.4-0.3-0.4-0.5c-0.3-4.8-0.6-9.6-0.9-15.3c0-0.3-0.3-0.5-0.5-0.5c-4.4,0-8.1-0.1-11.7,0c-2.5,0.1-5.1-0.6-7.7,1.3
	c-0.1,0.1-0.1,0.1-0.2,0.2c-1.9,3.7-0.6,7.9-1.1,12c-2.5,0-1.7,0-4.1-0.1c-0.3-2.6-0.5-5.2-0.8-7.9v-0.1c0.6-4-0.4-6.3-5-4.7
	c0,0-0.1,0-0.1,0.1c-4.5,2.7-2.1,7.1-2.1,10.6c-0.2,26.4-0.1,52.7-0.2,79.1c0,5.5,0,11.6-2.8,12.6c-4.4-2.8-4.5-57.5-2.3-105.9
	c0-0.1,0-0.2,0.1-0.2c2.5-4.5,8.5-3.8,11.7-7.6l0.1-0.1c2.1-4.5,0.6-9.4,1-14.1c0.4-4.9-7.1-7.1-3.9-13.5c0.1-0.1,0.2-0.3,0.4-0.3
	c11.4-1.8,23.3-0.6,35.3-0.6c0.2,0,0.3,0.1,0.4,0.2c2.8,3.8,3,7.1-0.7,10.2l-0.1,0.1c-4.3,7.1-3.9,14.2,0.1,21.2
	c1.5,3.1,4.4,2.2,6.8,2.2c9.9,0,19.8,0,29.7,0c0.1,0,0.3,0.1,0.4,0.2l0,0c0.2,0.9,0.4,1.6,0.6,2.5
	C1040.3,1037.3,1040.1,1038.3,1040.1,1039.3L1040.1,1039.3z M999,1002.8h-26.3c-0.4,0-0.7,0.5-0.4,0.8c6.9,8.3,1.7,18.4,5.4,27.6
	c0.1,0.2,0.3,0.3,0.5,0.3c6.3-0.5,12.5,1.3,18.6-1.2c0.2-0.1,0.3-0.2,0.3-0.4c1.8-8.8-0.8-17.5,2.4-26.5
	C999.6,1003.2,999.4,1002.8,999,1002.8z"/>
<path class="st7" d="M998.1,1059.3c0.5,0.2,1.1,0.3,1.7,0.3c1.6,18.8,0.7,37.7,0.6,56.6c0,8.8-6.2,14.3-14,14
	c-7.7-0.2-14.6-6.1-14.6-14c-0.2-18.9-1-37.7,0.5-56.6c1.1-0.1,2.1-0.1,3.2-0.2C983,1062.7,990.6,1063,998.1,1059.3z"/>
<path class="st1" d="M321.9,1238.9c0-2.5-0.1-5.1-0.1-7.6c4.8-3.1,2.6-8,2.6-12c0.2-47.2,0.2-94.5,0.1-141.7c0-3.3,1.2-7-2-10.4
	c-5.2,0-10.9,0-16.5,0c-6.6-0.7-8.1,3-8,8.7c0.2,17.4,0,34.8,0,52.2c-4.8,3.2-2.3,8.1-2.3,12c-0.3,31.2-0.3,62.3-0.4,93.5l-1.2,0.1
	l-1.1-0.4c-0.1-49.6-0.1-99.2-0.4-148.8c0-4,2.5-8.9-2.4-12c-1-2.7-4.3-4.7-1.6-9.7c14.6-4.8,29.9-4.9,44,0.4
	c3.5,5.5-1.7,8-0.5,11.5l0,0c-4,3-2.1,7.3-2.1,10.9c-0.2,45.1-0.2,90.1-0.2,135.2c0,5.2,0.3,10.5-2.7,15.2
	C325.8,1238.2,324.4,1239.4,321.9,1238.9z"/>
<path class="st9" d="M298,1244c-2.6,0.1-5.3,0.3-7.9,0.4c-4.3-0.3-8.7-0.5-13-0.7l0.2-0.1c-0.1-42.6-0.3-85.1-0.3-127.7
	c0-11.9,0.1-23.7,0.1-35.6c4.6,3.3,2.3,8.1,2.3,12.1c0.2,43.8,0.1,87.6,0.1,131.5v15.9c6.3,3,12.5,1,18.4,1.6
	C297.9,1242.2,298,1243.1,298,1244z"/>
<path class="st9" d="M290.2,1072.5c4.8,3.2,2.4,8,2.4,12c0.3,49.6,0.3,99.2,0.4,148.8c-5.3-2.9-2.7-7.9-2.7-11.8
	C290.1,1171.9,290.1,1122.2,290.2,1072.5z"/>
<path class="st0" d="M1073.9,1033c-2.9-0.7-1.7-4.9-4.7-5.5c0.7-6.2-2.8-12.9,2.3-18.5c0.2,2.1,0,4.5,2.7,5.3
	C1074.1,1020.6,1074,1026.8,1073.9,1033z"/>
<path class="st9" d="M274.1,1078.1c-8.6,0-17.3,0.1-25.9,0.1C255.6,1074,266.1,1074,274.1,1078.1z"/>
<path class="st9" d="M1039.9,1014.5c4.9,4.2,3.4,8.8,0.7,13.5C1040.4,1023.5,1040.1,1019,1039.9,1014.5z"/>
<path class="st3" d="M937.7,1038.6c-0.8-2.3-1.2-4.6,1.8-5.7C939.9,1035,940.5,1037.3,937.7,1038.6z"/>
<polygon class="st5" points="958.8,925.8 959.7,925.5 959.6,926.3 "/>
<path class="st3" d="M939.4,1030.2c-1.6-0.5-2.3-1.5-1.6-3.2C939.5,1027.4,939.6,1028.7,939.4,1030.2z"/>
<path class="st7" d="M1234.4,1233c12.5-36.3,24.6-71.6,36.9-107.3c31.9,0,63,0,95.6,0c13.5,34.5,24.6,70.6,37.7,107.3
	C1347.8,1233,1291.8,1233,1234.4,1233z"/>
<path class="st9" d="M1105.6,1217.8c-5.5-13.4-15-18.9-28.2-16.2c-12.4,2.5-22,14.4-21,26.1c0.9,11.5,11,22.5,22.3,24.1
	c12.6,1.8,22.8-5.1,27.1-18.3C1107,1228.3,1107.2,1223,1105.6,1217.8z M1099.3,1234.7c-5.6,8.6-12.7,10.3-21.7,9.8
	c-8.1-0.4-11.4-6.2-13.3-12.5c-2.3-7.8-1.5-15.5,6.1-20.9c1.4-1,2.4-2.4,2.7-2.8c15.6-5.3,21.8,2.9,28.1,14.3c0,2.9-0.2,4.7-0.2,7.6
	C1099.8,1231.3,1100.2,1233.4,1099.3,1234.7z"/>
<path class="st7" d="M1016.4,1208.4c10.1,9.2,15.6,20,11.9,34c-12,3.8-15.2-5.6-19-12.5c-1.7-3.1-2.8-6.6-5.4-9.3
	C1010.2,1218.8,1014.2,1214.5,1016.4,1208.4z"/>
<path class="st12" d="M968.3,1220.4c-3.5,6.4-7.5,12.6-8.1,20c-5.7,0.7-10.3,1.2-15.7-0.6c-0.2-12.3,2.4-23,13.6-30.1
	C960.8,1214,964.5,1217.3,968.3,1220.4z"/>
<path class="st11" d="M1016.4,1208.4c-2.2,6.1-6.1,10.4-12.5,12.1c-3.1-5-9.4-2.6-13.2-5.9c-5.3-5.3-2.9-11.7-2.6-17.8
	C999.4,1196,1008,1201.9,1016.4,1208.4z"/>
<path class="st1" d="M988,1196.9c-0.3,6.1-2.6,12.5,2.6,17.8c-8.1-0.6-15.5,1.6-22.4,5.8c-3.8-3.2-7.5-6.4-10.2-10.6
	C965.4,1199.4,976.2,1196.8,988,1196.9z"/>
<path class="st9" d="M1166.9,1214.2c-0.9-6.7-6.5-9-11.5-11.3c-9.7-4.6-22.1-1.4-29.5,7c-7.7,8.8-9.6,16.6-3.5,27.2
	c0.6,4.7,4.8,7.6,8.7,10c10.5,6.5,22.7,5.9,31.5-1.8C1170.3,1238.7,1171.9,1226.8,1166.9,1214.2z M1156.5,1242.1
	c-8.1,7.5-21.1,5.2-27.2-4.1c-1.7-2.6-1.9-5.3-3.4-7.9c0.6-8.5,2.4-15.7,9.9-20.4c8.6-5.4,19.4-3,25.8,5.9c1.7,2.4,1.5,5,3.1,7.5
	C1165,1231.2,1161.8,1237.2,1156.5,1242.1z"/>
<path class="st4" d="M918.6,1235.4c0,0.4,0.1,0.8,0.3,1.1C918.8,1236.2,918.7,1235.8,918.6,1235.4z"/>
<path class="st4" d="M921.2,1238.7L921.2,1238.7C921.1,1238.8,921.1,1238.7,921.2,1238.7C921.1,1238.7,921.2,1238.7,921.2,1238.7z"
	/>
<path class="st1" d="M982,1225.5c3.3,5,1.7,18.5,0.2,13.3c-1.1-4.1-0.4-8.7-0.5-13.1L982,1225.5z"/>
<path class="st1" d="M981.8,1225.7c-2.2-0.9-2.1-1.7-2-4.4c1.7,1,2,2.7,2.2,4.2L981.8,1225.7z"/>
<path class="st4" d="M921.1,1238.8c0.6,0.4,1.2,0.7,1.8,1.1C921.2,1241.4,921.7,1239.3,921.1,1238.8L921.1,1238.8z"/>
<path class="st11" d="M97.7,1115.8c2.9,0.3,5,0.5,7.5,0.7c7.2-12.5,11.5-27.2,25.3-35.3c5.5,4,8,11,13.9,14.7
	c2.6,0.7,4.9-0.6,7.4-1.4c1.5,6.3,3.8,11.2,8,15.4c6.1,6.1,9.8,13.1,8.7,22.1c-0.2,1.3-0.4,3,0.3,3.9c2.9,3.6,7.7,6.9,3.9,12
	c-4.8,6.4-7.4,14.7-15.4,18.8c-22.7,11.6-56.2,3.8-59.5-32.5C97.2,1128.5,97.7,1122.8,97.7,1115.8z"/>
<path class="st4" d="M414.4,1254.7c-3.8-3-3.7-5.2,0.1-8.1C416.8,1249.1,417.9,1251.2,414.4,1254.7z M440.4,1254
	c-1.4-0.2-2.1-1.2-1.7-2.6c0.2-0.6,1-1.3,1.7-1.4c1.5-0.4,2.2,0.6,2.4,1.9C442.6,1253.3,441.9,1254.2,440.4,1254z M606.5,1254.5
	c-1,3.7-4,2.7-6.4,2.7c-32.9,0-65.7,0.1-98.6-0.2c-2.7,0-9.3,3.2-7.2-4.9c7.1-21,14-42.1,21.4-62.9c2-5.6,0.8-12.5,6.6-16.6
	c1.9-12.6,7.2-24.3,11.5-36.1c3.9-10.7,4.8-21.2,4.7-32.1c0-3.9,0-7.8,0-12.9c10.2-0.5,19.6-0.8,28.4,0.2c2.5,2.2,2.8,4.4,2.6,6.6
	c-2,17.9,2.5,34.8,9,51.2c1.5,3.7,2.8,7.4,2.6,11.4c1.4,2.2,3.6,4.2,4.1,6.5c4.3,19.4,12.9,37.4,19.1,56.2
	C607.6,1233.9,607.2,1244.1,606.5,1254.5z M894.6,1037.7c-2.5,0.7-5.2,0.3-7.9,0.3c-50.4,0-100.9,0-151.4,0.1
	c-6.9,0-13.1-0.4-17.1-9.5h180.7C901.2,1033.8,898.9,1036.5,894.6,1037.7z"/>
<g id="XMLID_2_">
	<g>
		<path class="st4" d="M960.8,937.7c0.8,5.2-2,9.3-4.2,13.5c-10.1,19.4-20.2,38.8-30.3,58.2c-1.3,2.5-4.3,5.2,0.2,7.6
			c0.9,2.6,3.1,2.6,5.2,2.5c2.9,1.5,5.6,3.2,6,6.9c-4.9,2.8-2.8,7.5-3.3,11.6c-2.8-0.2-5.6-0.3-8.4-0.5c0.1-2.8,2-5.8-1-8.3
			c-9.7-0.4-9.7-0.4-10.4,7.6c3.7,1.6,7.5,0.2,11.3,0.7c0.7,2.4,0.5,5.5,4.2,5.6c3.7,0.2,4.2-2.4,4.2-5.2c1.1,0.3,2.2,0.6,3.3,0.9
			c-0.5,10.6-11.2,7.7-16.7,12.4c0,31.1,0.1,62.3-0.1,93.5c-0.1,11.8,0.9,23.7-0.7,35.5c-3.7-3.7-1.6-8.3-1.7-12.5
			c-0.2-34.6-0.1-69.3-0.2-103.9c0-3.2,1.6-7-1.7-9.4c-3.9-0.4-3.2,4.3-6.1,4.6c-0.2-1.9,0.3-4.1-1.9-5.3c-0.2-1.1-0.4-2.2-0.6-3.2
			c-0.8-1.9-1.7-2.3-2.9-0.2c-29.2,55.9-58.3,111.8-87.5,167.7c-4.8,2.4-9.1-1.1-13.6-1c28.5-55.5,58.2-110.5,86.3-167.6H733.7
			c0.3,6.7-4.3,12.8,0.6,20.2c6.1,0,12.6-0.1,19.2,0c3.6,0.1,5.9,2.1,6,5.7s-2.8,5.5-5.8,6.2c-2,0.4-4.3-0.5-6.4-0.5
			c-4.3,0-8.7-1.1-12.7,0.9c-3.5,4.7-2.7,9.1,0.3,14.3c10.2,0,20.7,0,31.2,0c4.8,0,9.7-0.1,14.5,0.1c3.5,0.1,5.9,1.9,6.3,5.5
			c0.4,4.4-2.2,6.5-6.1,7.1c-3,0.4-6.1,0-9.2,0.2c-12.6,0.6-25.3-0.9-37.5,0.9c-3.5,5.2-1,8.8,0.6,12.9c5.1,0,9.5-0.1,13.8,0
			c4.9,0.1,10.8,0.3,11.1,6.5c0.2,6.7-5.8,6.3-10.7,6.5c-5.1,0.2-10.4-0.9-15.2,1c-1.3,6.9-1.3,6.9,0.7,13.8
			c17-0.8,34.3-1.6,50.8,1.5c2.2,3.8,2.4,6.5-1.2,10.4h-49.4c-2.5,5.7-4.3,10.1-1.1,13.6c8.8,5.2,20.5-4.1,26.6,7.6
			c-6.5,12.8-19.3,3.2-28.2,9.2c0.6,10,1.1,20.4,1.7,30.7c0.2,10.2,0.5,20.4,0.7,30.7c0,5.8-3.9,5.8-8,5.3c-1-0.8-1.9-1.7-2.9-2.5
			c-2.8-7.5-3.2-15.3-3.2-23.3c0.1-15.4,0-30.8,0-46.2c0-42.6,0-85.3,0-127.9c0-4.7,1.2-9.8-3.1-13.6c-6.4-5.9-12.7-11.9-20.8-19.5
			c0,8.9,0.1,15.4,0,21.9c-0.8,50.1,3,100.1,3.4,150.1c0.1,16.7,2.3,55.4,2.6,58.4c-0.7,2.8-1.3,5.5-2,8.3l-0.7,0.1
			c-2.7-0.3-5.4-0.5-8.1-0.8c-1.2-2.3-3.3-2.3-5.6-2.3c-21.8,0-43.6,0-65.4,0c-2.2,0-4.4,0-5.6,2.3c-43.9,0.1-87.9,0.3-131.8,0.3
			c-1.7,0-3.4-0.7-5.1-1.1c-0.4-1-0.9-2.9-1.3-2.9c-2.2,0-1.5,2-1.9,3.3c-1.7,0.1-3.3,0.3-5,0.4c-1.8-2.9-3.6-2.9-5.4,0H255.8
			c-0.9-2.1-1.9-2.1-2.8,0c-1.7-0.1-3.3-0.2-5-0.2c0-3.3-0.1-6.6-0.2-9.9c0.1-56.3,0.2-112.6,0.3-168.9c3.8,0.7,4.5-3.5,8.1-5
			c2.2,1.5,3.4,5.9,7.7,4.7c3.3-0.9,4.7-5.7,10.2-3.7v12.4c0,40.3,0.1,80.6-0.1,120.9c0,6.4,1.3,12.9-1.5,19.4
			c-1.5,3.5,0.4,7.5,4.7,9.1l-0.2,0.1c4.3,0.3,8.7,0.5,13,0.7c2.6-0.1,5.3-0.3,7.9-0.4v0.5c3.6-0.5,6.7-1.8,8-5.6
			c1.7,0,3.5,0.1,5.2,0.1c1.2,4,7,0.5,7.9,4.9c1.1-0.2,2.1-0.4,3.2-0.6l-0.3,0.3c1.7,0.2,3.4,0.3,5.1,0.5c1.8,0,3.5,0,5.3,0
			c11.3-0.1,22.7-0.3,34.1-0.4c1.9,0.1,3.7,0.2,5.6,0.3c6.1,0.1,12.3,0.1,18.4,0.2c1.8,0.1,3.6,0.3,5.4,0.4c3.5,0,6.9,0,10.4,0
			c7.2-0.3,14.3-0.6,21.5-0.8c0.3,0,2.2,0,4.9,0c3,0.9,6.1,0.5,9.1,0.1c3.1,0,6.4,0.1,9.5,0.1c5.8,0.1,10.9,0.1,12.6,0.1
			c0.3,0,0.5,0,0.6,0c1.7,0.2,3.4,0.3,5.1,0.5c0.9-0.2,1.9-0.5,2.8-0.7c2.5-0.8,4.5,2.8,6.9,1.3c12.4-35.8,24.3-71.5,37.3-106.7
			c5.7-15.3,6.5-30.4,5.4-45.5c-2.5-2.3-4.9-1.6-6.9-2.1c-5.4-1.4-8.5-4.9-7.8-10.4c0.6-4.8,4.2-7.5,9-8.2c1.7-0.2,3.5-0.2,5.3-0.2
			c21.5,0,43,0,64.5,0c4.5,0,8.8,0.1,12.3,3.4l0.1,12.3c-2.9,4.1-8.2,2.2-12.7,5c0,7,0.3,14.4-0.1,21.8c-0.4,7.7,2.6,14.5,5,21.5
			c2.4,7.5,3.9,15.4,7.1,22.4c2.8,6.1,1.7,14.3,9.6,19.6v-31.5c2.7-2.4,2-5.6,2-8.6c0.1-50.9,0.2-101.7,0.2-152.6
			c0-3,0.9-6.3-2.4-8.3c0.2-2.6-2.5-4.6-1.3-7.5c4.7-1.4,9.5-0.7,14.2,0l-0.3,0.2c0.2,25.8,0.4,51.6,0.8,77.4
			c0.1,4.2-1.5,8.8,1.9,12.6c0,8.5,0.1,17,0.2,25.5c-1.9,2.2-1.7,4.9-1.7,7.5c-0.4,42.8-0.8,85.6-1,128.5c0,4.2-1.1,8.9,2.7,12.3
			c0.4,3.8-0.9,8.2,3.6,10.7c-0.9,3,1.3,5.1,1.9,7.7c1.5,4,5,2.7,7.8,2.7c12.6,0.1,25.3,0.1,37.9,0c2.5,0,5.3,0.6,7.2-1.9
			c1-1.1,2-2.2,3-3.2c5.7,0.1,4.7-4.1,4.6-7.4c-0.3-15.8-1-31.5-1.8-47.3c-1.8-31.5-1.2-63.1-2.6-94.7c-1.8-38.6-1.1-77.3-1.4-115.9
			c0-4.7-0.9-9.7,2.3-14.8c4.3-0.4,8.9-1.5,13.6,0.5c1.5,3.8-2.8,6.4-1.9,10c-0.8,12.1-1.1,24.2,0.3,36.1h211.1
			c14.2-27.2,28.2-53.9,42.1-80.6C954.2,934.2,957.6,935.6,960.8,937.7z"/>
	</g>
</g>
<path class="st4" d="M414.5,1246.6c2.3,2.5,3.4,4.6-0.1,8.1C410.7,1251.8,410.7,1249.5,414.5,1246.6z"/>
<path class="st4" d="M441.7,1244c-3,0.5-6.1,0.9-9.1-0.1C435,1243.9,438.2,1244,441.7,1244z"/>
<path class="st4" d="M442.7,1251.9c-0.1,1.4-0.8,2.3-2.3,2.1c-1.4-0.2-2.1-1.2-1.7-2.6c0.2-0.6,1-1.3,1.7-1.4
	C441.9,1249.5,442.5,1250.5,442.7,1251.9z"/>
<path class="st4" d="M472.3,1244c-0.9,0.2-1.9,0.5-2.8,0.7c-1.7-0.2-3.4-0.3-5.1-0.5C466.1,1244.4,471.4,1244.2,472.3,1244z"/>
<path class="st4" d="M598.4,1087.8l-0.1-12.3C599.3,1079.6,599.2,1083.7,598.4,1087.8z"/>
<path class="st4" d="M604.2,1223.6c3.4,10.4,3,20.6,2.4,31c-1,3.7-4,2.7-6.4,2.7c-32.9,0-65.7,0.1-98.6-0.2c-2.7,0-9.3,3.2-7.2-4.9
	c7.1-21,14-42.1,21.4-62.9c2-5.6,0.8-12.5,6.6-16.6c1.9-12.6,7.2-24.3,11.5-36.1c3.9-10.7,4.8-21.2,4.7-32.1c0-3.9,0-7.8,0-12.9
	c10.2-0.5,19.6-0.8,28.4,0.2c2.5,2.2,2.8,4.4,2.6,6.6c-2,17.9,2.5,34.8,9,51.2c1.5,3.7,2.8,7.4,2.6,11.4c1.4,2.2,3.6,4.2,4.1,6.5
	C589.4,1186.8,598,1204.8,604.2,1223.6z"/>
<path class="st4" d="M894.6,1037.7c-2.5,0.7-5.2,0.3-7.9,0.3c-50.4,0-100.9,0-151.4,0.1c-6.9,0-13.1-0.4-17.1-9.5h180.7
	C901.2,1033.8,898.9,1036.5,894.6,1037.7z"/>
<path class="st6" d="M442.8,1146.2c0-26.1,0-52.2,0-78.7c8.1,0,16.7,0,24.3,0c0,27.5,0,54.5,0,81.5c-4-2.9-6.6-8.3-15.7-7.6
	C450,1141.5,448.1,1147.9,442.8,1146.2z"/>
<path class="st11" d="M467,1157.8l0.1,1.1c-3.6,1.8-2.6,5.3-2.6,8.1c0,21.5,0.2,43,0.3,64.4c-2.2,7.6-8.2,7.5-14.4,7.3
	c-5.6-0.2-7.1-3.9-7.6-8.5c0.4-22.6,0.8-45.2-0.2-67.8c0.2-1.6,0.4-3.2,0.6-4.7C451.1,1156.6,459.1,1156.2,467,1157.8z"/>
<path class="st5" d="M464.8,1231.4c-0.1-21.5-0.3-43-0.3-64.4c0-2.9-1-6.3,2.6-8.1c0,21.4,0.1,42.8,0.1,64.2
	C467.2,1226.1,468,1229.3,464.8,1231.4z"/>
<path class="st0" d="M442.5,1162.3c1,22.6,0.6,45.2,0.2,67.8c-1.9-0.9-2-2.6-2-4.3c0-19.6,0-39.3-0.1-58.9
	C440.7,1165.1,441,1163.5,442.5,1162.3z"/>
<path class="st10" d="M298,1128.1c0-17.4,0.1-34.8,0-52.2c-0.1-5.7,1.4-9.4,8-8.7c3.7,5.9,11.1-0.5,15.6,4.9c0,18.6,0,37.7,0,56.8
	C313.7,1128.6,305.8,1128.4,298,1128.1z M313.3,1105.8c0.9-4.6,0.9-8.9,0-13.1c-5.8-3.1-5.8-3.1-12.4-3c0,7.2-1.1,14.4,0.8,21.8
	C306.3,1111.1,309.6,1109.5,313.3,1105.8z"/>
<path class="st9" d="M321.5,1128.9c0-19.1,0-38.2,0-56.8c-4.5-5.4-11.8,1-15.6-4.9c5.6,0,11.3,0,16.5,0c3.2,3.4,2,7.1,2,10.4
	c0.1,47.2,0.1,94.5-0.1,141.7c0,4,2.2,8.9-2.6,12C321.7,1197.2,321.6,1163,321.5,1128.9z"/>
<path class="st7" d="M390.7,1231.1c-10.6,10.4-10.6,10.4-21.4,0.2c0-39.2,0-78.7,0-117.5c2.8-4.1,7.5-0.5,9.8-3.8
	c3.7-0.9,7.4-0.9,11.2-0.4C390.4,1150.2,390.6,1190.7,390.7,1231.1z"/>
<path class="st10" d="M390.3,1109.7c-3.7-0.5-7.5-0.5-11.2,0.4c-3.2-0.3-6.5-0.7-9.7-1c0-12.9,0-25.8,0-40c8.1,2,14.6-1.1,20.9,2.6
	C390.3,1084.5,390.3,1097.1,390.3,1109.7z"/>
<path class="st5" d="M390.3,1109.7c0-12.6,0-25.2,0-38.1c-6.3-3.7-12.9-0.6-20.9-2.6c0,14.2,0,27.1,0,40c-1.3-0.4-2.5-1-2.5-2.5
	c0-12.6,0-25.3,0-38.8c8.9-1.1,17-1,24.7-0.4c2.7,3.8,1.6,7.4,1.6,10.8c0.1,46.9,0.1,93.9-0.1,140.8c0,4.1,2.2,8.9-2.4,12.2
	C390.6,1190.7,390.4,1150.2,390.3,1109.7z"/>
<path class="st11" d="M633.7,1171.3c-5.8-0.6-6.3-4.6-6.2-9.3c0.2-18.6,0.3-37.2,0.4-55.8c16,0,31.9,0,47.9,0
	c0.2,1.9,0.4,3.8,0.6,5.8c-1,5.3-0.9,10.6,0,15.9c-1,14.1-0.6,28.1-0.1,42.2l-0.7,0.7C661.6,1170.5,647.7,1169.6,633.7,1171.3z"/>
<path class="st11" d="M676.2,1244.2c-16.1,0-32.2,0-48.2,0c0-20.9,0-41.8,0-63.9c6.4,0,11.5,0,16.7,0c10,0,19.9,0,31.5,0
	C676.2,1202.4,676.2,1223.3,676.2,1244.2z"/>
<path class="st11" d="M677.4,1065.8c-3.7,10.1-0.4,20.6-1.7,30.8c-15.9,0.1-31.8,0.1-47.7,0.2c0-12.2,0-24.4,0-37.4
	c16.4-1.7,32.1-0.6,47.7-0.7c0.6,1,1.2,1.9,1.8,2.9C677.4,1063,677.4,1064.4,677.4,1065.8z"/>
<path class="st0" d="M627.9,1096.8c15.9-0.1,31.8-0.1,47.7-0.2c0,0.8,0.1,1.5,0.2,2.3c0,1.8,0.1,3.6,0.1,5.4
	c-0.2,0.6-0.3,1.3-0.2,1.9c-16,0-31.9,0-47.9,0C627.9,1103.1,627.9,1099.9,627.9,1096.8z"/>
<path class="st0" d="M678.4,1133.3c-0.1,9.9-0.1,19.9-0.2,29.8c0,2.5,0.8,5.3-2,7c-0.5-14.1-0.9-28.1,0.1-42.2h0.8L678.4,1133.3z"/>
<path class="st0" d="M633.7,1171.3c13.9-1.6,27.9-0.7,41.8-0.5c-4.5,3.9-10,2-14.9,1.8C651.7,1172.3,642.5,1174.7,633.7,1171.3z"/>
<path class="st7" d="M501.2,1250c8-22.7,15.3-43.7,23.3-66.4c18.6-0.3,37.7,0,56.8-0.1c10.2,21.4,15.3,43.4,24.2,66.4
	C570.5,1250.1,536.9,1250,501.2,1250z"/>
<path class="st6" d="M593.7,1254.6c-30.8,0-61.6,0-92.4,0c1-2.5,3.1-2.6,5.4-2.6c27.2,0,54.4,0,81.5,0
	C590.6,1252,592.7,1252.1,593.7,1254.6z"/>
<path class="st6" d="M639.7,861.2c7.2-0.1,14.9,7,14.7,13.5c-0.2,8-7.2,15.5-14.5,15.5c-7.2,0-14.2-6.6-14.5-13.7
	C625,868.6,631.9,861.3,639.7,861.2z"/>
<path class="st5" d="M1145,1035.2c-8.1,0.7-14.9,1.1-22.1-0.1c-2.7-9.2,0.8-18.6-2.9-27.9c8.7,0,17.3,0,26.8,0
	C1144.6,1015.9,1146.6,1025.1,1145,1035.2z"/>
<path class="st5" d="M1071.5,1009.1c-5.2,5.6-1.6,12.3-2.3,18.5c-0.1,2.2-0.3,4.3-0.5,6.9c-7.3,2.5-14.6,1.1-22.3,1
	c-3.3-9.4,0.2-19-2.7-29C1053.3,1008,1062.7,1003.4,1071.5,1009.1z"/>
<path class="st5" d="M1122.1,1043.6c8.3,0,15.2,0,22.7,0c1.2,5.4,1.4,10.3-0.1,15.2c-6.9,5.5-14.3,1.7-21.7,3.2
	C1121.1,1055.5,1121.8,1050,1122.1,1043.6z"/>
<path class="st0" d="M1040,1043.4c0-0.8,0.2-1.6,0.4-2.4c10.4,0,20.9-0.1,31.3-0.1c0.1,0.7,0.1,1.5,0.2,2.2
	C1061.3,1043.2,1050.6,1043.3,1040,1043.4z"/>
<path class="st8" d="M1071.7,1040.8c-10.4,0-20.9,0.1-31.3,0.1c-0.1-0.9-0.1-1.8-0.2-2.7c8.3,0,16.7-0.1,25-0.1
	C1067.6,1038.1,1070.5,1037.5,1071.7,1040.8z"/>
<path class="st5" d="M999.7,1006.9c-3.6,9.3-0.7,18.3-2.7,27.4c-6.3,2.7-12.7,0.7-19.2,1.4c-4.1-9.6,1.8-20.3-6.3-28.8
	C981.2,1006.9,989.9,1006.9,999.7,1006.9z"/>
<path class="st5" d="M998.1,1059.3c-7.5,3.8-15.1,3.5-22.7,0.1c1.8-4.9-0.7-10.3,1.8-14.8c2.6-2,5.3-1.3,7.8-1.4
	c3.8-0.1,7.6,0,12.2,0C997.5,1049.2,997.8,1054.2,998.1,1059.3z"/>
<path class="st10" d="M534.3,1019.6c10.3,0,17,6.6,17.1,16.9c0.1,8-8.2,14.8-18.2,14.8c-9.2,0.1-16.2-6.5-16.1-14.9
	C517.3,1026.2,524,1019.6,534.3,1019.6z"/>
<path class="st10" d="M299.7,995.8c-4.7-0.4-6.8-3-6.9-7.6c-0.1-4.4,1.6-7.8,6.3-8s6.7,2.9,6.9,7.4
	C306.1,992.1,304.3,995,299.7,995.8z"/>
<path class="st6" d="M609.6,921.3c0.3-5,3.6-7.8,8.8-7.3c4.8,0.4,7,3.1,7,7.8c0,5.3-2.8,8.1-8.2,8
	C612,929.7,609.3,926.6,609.6,921.3z"/>
<path class="st6" d="M467,1053.9c-0.4,0.7-0.9,1.3-1.3,2c-0.4-0.7-0.9-1.3-1.3-2C465.2,1053.9,466.1,1053.9,467,1053.9z"/>
<path class="st1" d="M1101.2,1222.6c0,2.9-1.3,10.6-1.9,12c-4.1,10.6-12.7,10.3-21.7,9.8c-8.1-0.4-11.4-6.2-13.3-12.5
	c-2.3-7.8-1.5-15.5,6.1-20.9c1.4-1,2.4-2.5,2.7-2.8C1088.7,1203,1096.7,1212.1,1101.2,1222.6z"/>
<path class="st7" d="M1164.7,1223.1c0.3,8.1-2.9,14.1-8.2,19c-8.1,7.5-21.1,5.2-27.2-4.1c-1.7-2.6-1.9-5.3-3.4-7.9
	c0.6-8.5,2.4-15.7,9.9-20.4c8.6-5.4,19.4-3,25.8,5.9C1163.3,1218,1163.1,1220.6,1164.7,1223.1z"/>
<path class="st1" d="M1074.5,1033.2L1074.5,1033.2c0-0.1,0-0.2,0-0.3c0.1-0.2,0.1-0.4,0.1-0.6c0.2-6.3,0.1-12.5-0.2-18.8
	c0-0.2-0.1-0.4-0.1-0.6c0.1-0.6,0.3-1.1,0.6-1.6c0-0.1,0.1-0.1,0.1-0.2c1.4-1.8-1.2-4.3-3-2.6c-2.6,2.4-3.2,5.8-3,9.2
	c0,0.2,0,0.5,0,0.7c0,2.9,0.2,5.7,0.4,8.5c0,0.2,0,0.5,0,0.7c0,0.4,0.1,0.7,0.2,0.9c0.2,1.6,0.4,3.3,0.7,4.9
	c0.1,0.5,0.3,0.9,0.6,1.1c0,0.1,0.1,0.3,0.2,0.4c0.4,1,1.3,1.8,2.5,1.4c0.9-0.3,1.8-1.4,1.4-2.5
	C1074.6,1033.8,1074.5,1033.5,1074.5,1033.2z"/>
<path class="st1" d="M1041.6,1010.6c-1-2-3.8-0.7-3.7,1.3c-0.1,0.3-0.1,0.7,0,1.1c2.2,6.8,2.8,13.6,2,20.6c0,0.1,0,0.1,0,0.2
	c-0.1,0.2-0.2,0.4-0.3,0.6c-1.2,2.3,2.3,4.3,3.5,2C1047.1,1028.8,1045.2,1017.9,1041.6,1010.6z"/>
<path class="st1" d="M987.3,1243.7c-2.8,0.9-4.9-3.3-5.3-6.4c-0.4-3.2-0.3-10.5-0.2-11.6c0.1-1.1,5.8,7.5,6.3,9.1
	S990.1,1242.8,987.3,1243.7z"/>
<path class="st8" d="M311.1,1235.1c-1.3,0-2.6,0.1-3.9,0.1l0,0c-0.5-0.1-1-0.1-1.5-0.2c0-0.4-0.1-0.7-0.3-1.1c-1-1.9-3-1.9-4.9-1.9
	c-0.4,0-0.8,0.1-1.1,0.3c0,0,0,0,0-0.1c0.2-1.4,0.5-2.7,0.8-4c0.5-2.5-3.4-3.6-3.9-1.1c-0.5,2.9-1.2,5.7-1.1,8.6c0,0.2,0,0.4,0,0.7
	c0,0.1,0,0.1,0,0.2c-0.3,1,0,2.1,1,2.5c0.7,0.5,1.7,0.7,2.5,0.1c4.1-0.1,8.2-0.2,12.3-0.2C313.6,1239,313.7,1235,311.1,1235.1z"/>
<line class="st2" x1="31.9" y1="932.6" x2="47.5" y2="932.3"/>
<path class="st4" d="M226.6,932.4l37.9,0.5c0,0,4.2-0.1-0.3,4.7"/>
<circle class="st10" cx="432.9" cy="1046.1" r="5.3"/>
<circle class="st10" cx="454.2" cy="1034.3" r="8.5"/>
<circle class="st6" cx="671.7" cy="853.5" r="6.4"/>
<circle class="st6" cx="683.5" cy="897.7" r="7.5"/>
<circle class="st6" cx="666.5" cy="939.3" r="9.5"/>
<circle class="st10" cx="585.6" cy="997.7" r="9.9"/>
<g id="XMLID_1_">
	<g>
		<path class="st4" d="M698,1098.6c0.5,13.4,0.5,26.8,0.1,40.3c0,0.2,0,0.4-0.1,0.6c-0.1-13.9-0.3-28.1-0.4-41.9l0,0
			C697.8,1097.8,697.9,1098.2,698,1098.6z"/>
		<path class="st4" d="M696.9,1112.1c0,1.5-1.4,2.2-2.6,1.9c-0.1-5.1-0.2-10.3-0.4-15.4c-0.1-2.2,2.7-2.5,3.7-1.1l0,0
			C697.3,1102.4,696.9,1107.3,696.9,1112.1z"/>
		<path class="st4" d="M697.6,1097.5c-1-1.4-3.8-1.1-3.7,1.1c0.2,5.1,0.3,10.3,0.4,15.4c-0.8-0.2-1.5-0.8-1.4-1.9
			c0.1-10.7,2-21.4,1.2-32c1,0.3,2.1,0,2.4-1.3c0.3-1.6,0.6-3.1,0.8-4.7c0.1,0.4,0.1,0.8,0.2,1.2
			C697.5,1082.5,697.6,1090,697.6,1097.5z"/>
		<path class="st4" d="M697.6,1097.6c0.1,13.8,0.2,28,0.4,41.9c-0.6,2-4,1.8-3.9-0.6c0.2-8.3,0.3-16.6,0.2-24.9
			c1.1,0.3,2.5-0.3,2.6-1.9C696.9,1107.3,697.3,1102.4,697.6,1097.6z"/>
		<path class="st4" d="M698.2,1065l2.9,168.6c0,0,1.1,23.7-0.9,32c-0.8,3.3-1.6-58.9-2.2-126.1c0.1-0.2,0.1-0.4,0.1-0.6
			c0.4-13.4,0.3-26.8-0.1-40.3c0-0.4-0.1-0.8-0.3-1.1c0.5-7.4,0.9-14.8-0.2-22.3c0-0.8,0-1.6,0-2.4
			C697.8,1070.3,698.1,1067.6,698.2,1065z"/>
		<path class="st4" d="M697.5,1075.3c1.1,7.4,0.7,14.8,0.2,22.3C697.6,1090,697.5,1082.5,697.5,1075.3z"/>
		<path class="st4" d="M696.4,1078.8c-0.3,1.3-1.4,1.7-2.4,1.3c-0.2-2-0.4-4-0.8-5.9c0.1-0.6,0.2-1.2,0.3-1.8
			c0.9-1.3,3.2-1.4,3.5,0.5c0.1,0.4,0.2,0.8,0.2,1.2C697,1075.6,696.7,1077.2,696.4,1078.8z"/>
		<path class="st4" d="M696.8,982.1c0.1,9.1,0.3,46.2,0.6,90.8c-0.1,0.4-0.1,0.8-0.2,1.2c-0.1-0.4-0.2-0.8-0.2-1.2
			c-0.4-1.9-2.6-1.8-3.5-0.5c1.9-13.7,0.9-27.9,0.5-41.7c-0.4-16-0.8-32.1-1.2-48.1C692.8,980.1,696.3,980,696.8,982.1L696.8,982.1z
			"/>
		<path class="st4" d="M693.5,1072.3c-0.1,0.6-0.2,1.2-0.3,1.8c0-0.1,0-0.2-0.1-0.3C693,1073.3,693.2,1072.7,693.5,1072.3z"/>
		<path class="st4" d="M693.2,1074.2c0.4,2,0.6,4,0.8,5.9c-0.9-0.3-1.7-1.2-1.4-2.4C692.8,1076.5,693,1075.3,693.2,1074.2z"/>
		<path class="st4" d="M696.8,982.3C696.8,982.2,696.8,982.2,696.8,982.3L696.8,982.3c0-1.5,0-2.2,0-2.2V982.3z"/>
		<path class="st4" d="M696.8,982.3l1.4,82.7c-0.2,2.7-0.4,5.3-0.8,7.9c-0.3-44.5-0.6-81.7-0.6-90.8
			C696.8,982.2,696.8,982.2,696.8,982.3z"/>
		<path class="st4" d="M698.1,1032.6c0.3,10.7,0.9,21.6,0.1,32.3l-1.4-82.7c0,0.1,0,0.2,0,0.3
			C697.3,999.3,697.7,1015.9,698.1,1032.6z"/>
	</g>
</g>
<path class="st9" d="M629.4,1244.9c-0.9-1.1-1.6-2.3-2.2-3.5c0-0.2-0.1-0.3-0.2-0.5c-0.7-1.8-1.1-3.7-1.1-5.7c0-1.3-0.8-2-1.8-2.3
	c-0.7-4.6-0.2-9.6-0.2-14.1v-9.4c0.9-3.7,0.4-7.8,0-11.6c0-0.7,0-1.4,0-2.1c0-0.3-0.1-0.6-0.2-0.8c0.1-0.2,0.1-0.4,0.1-0.7
	c0-9.5,0-19,0.1-28.5c0.4-0.3,0.7-0.8,0.7-1.5c0.3-13.4,0.1-26.8-0.1-40.2c0.1-0.2,0.2-0.5,0.3-0.9c0.5-4.8,0.6-9.7,0.4-14.5
	c0-0.5-0.2-0.9-0.4-1.2c0-5.4,0-10.7,0.1-16.1c0-0.2,0-0.3,0-0.5s0.1-0.3,0.1-0.5c0.1-11.6,0-23.2-0.5-34.8c0.1-0.1,0.1-0.1,0.2-0.2
	c0.1-0.2,0.2-0.3,0.3-0.5c0.4-0.7,0.3-1.7-0.2-2.3c0.1-0.2,0.2-0.4,0.2-0.7c0.4-7.8,0.5-15.7,0.2-23.5c-0.1-2.6-4.1-2.6-4,0
	c0.2,7.8,0.2,15.7-0.2,23.5c0,0.3,0,0.6,0.1,0.8c-0.4,0.3-0.6,0.8-0.6,1.4c0.5,12.1,0.7,24.2,0.6,36.2c0,0.2,0,0.3,0,0.5
	s-0.1,0.3-0.1,0.5c-0.1,6.3-0.1,12.5-0.1,18.8c0,0.3,0.1,0.5,0.1,0.7c-0.3,0.3-0.5,0.8-0.5,1.3c0.1,7.5,0.2,15.1,0.2,22.6
	c-0.2,0.3-0.4,0.7-0.4,1.1c-0.3,19.4-0.5,38.8-0.5,58.3c0,0.1,0,0.1,0,0.2c-0.2,0.3-0.3,0.6-0.2,1.1c0.1,0.7,0.1,1.5,0.2,2.3
	c0,3.7,0,7.4,0,11.1c-0.1,0.5-0.3,1-0.5,1.5c-0.3,0.9-0.1,1.5,0.5,2c0,3.4,0,6.9,0,10.3c0,4.9-0.2,9.9,1.1,14.6
	c0.4,4.2,2.1,8,4.8,11.2C628,1250.9,631.5,1247.3,629.4,1244.9z"/>
<path class="st9" d="M689,1236.9c-0.6-2.6-0.9-5.2-0.8-7.8c0-0.6-0.1-1-0.4-1.4c0.1-4.3,0-8.5-0.5-12.8c0.2-4.1,0-8.4-0.4-12.6
	c0-0.1,0-0.2,0-0.3v-8.5c0-0.7-0.3-1.3-0.7-1.7c0.1-5.5,0.1-11,0.1-16.5c0-0.8-0.3-1.4-0.8-1.8c0.3-3.6,0.4-7.3,0.2-11
	c0.1-0.3,0.2-0.6,0.2-0.9v-4c0-0.6-0.2-1.1-0.6-1.6c0.1-6.4,0.2-12.8,0.1-19.2c0-0.7-0.3-1.2-0.6-1.6c0.1-7.3,0.1-14.6,0.1-21.9
	c0-0.7-0.2-1.2-0.6-1.6v-5.9c0-0.3-0.1-0.6-0.2-0.9c0-5.9,0-11.8-0.2-17.7c0-0.6-0.3-1.1-0.6-1.5c0-5.8,0-11.6,0-17.4
	c0-0.4-0.1-0.8-0.3-1.1c0.1-1.5,0.3-3,0.4-4.5c0.1-2.3,0.6-5.9-0.3-8.5c0-0.2,0.1-0.4,0.1-0.6c-0.2-14.2-0.4-28.5-0.5-42.7
	c0.6-0.4,1-1.1,0.9-2c-0.3-3.3-0.6-6.6-1-9.9c0-1.4,0-2.7,0-4.1c-0.1-3-4.4-3.2-4.9-0.6c-1-0.1-2.1,0.6-2,1.9
	c0.2,5,0.4,10.1,0.5,15.1c-0.1,0.3-0.2,0.6-0.2,0.9c0.1,8.2,0.1,16.4,0.2,24.7c0,0.2,0,0.4,0,0.6s0,0.4,0,0.6c0,2.6,0,5.2,0,7.8l0,0
	c-0.3,2.5-1.3,4.5-1.2,7.1c0.1,2.6,0.5,5.1,0.8,7.7c0,0.4,0.2,0.7,0.3,0.9c-0.1,7.6-0.1,15.2-0.3,22.8c0,0.6,0.2,1.1,0.6,1.4
	c-0.9,15.3-1.5,30.7-1.7,46.1c0,0.7,0.3,1.2,0.6,1.5c0.6,2.6,0.9,5.1,0.8,7.8c0,2.2,2.9,2.5,3.8,0.9c-0.2,17.4-0.5,34.7-0.9,52.1
	c0,1.1,0.5,1.8,1.3,2.2c0.2,1.9,0.4,3.8,0.6,5.7c-1.6,2.4-2,5.5-1.1,8.3c0.2,0.6,0.6,1.1,1,1.4c-0.5,9.6-1.2,19.2-2.1,28.7
	c0,0.2,0,0.3,0,0.4c-1,0.3-1.6,1.3-1.7,2.4c-0.4,4,3.4,6.3,6.7,7.1c1.8,0.5,4,0.3,4.8-1.6c0.4-0.4,0.7-1,0.7-1.8
	c-0.2-2.6-0.4-5.1-0.5-7.7C688.9,1238.6,689.2,1237.9,689,1236.9z"/>
</svg>
