<?xml version="1.0" encoding="utf-8"?>
<!-- Generator: Adobe Illustrator 21.0.0, SVG Export Plug-In . SVG Version: 6.00 Build 0)  -->
<svg version="1.1" id="Layer_1" xmlns="http://www.w3.org/2000/svg" xmlns:xlink="http://www.w3.org/1999/xlink" x="0px" y="0px"
	 viewBox="0 0 1165.9 1432.9" style="enable-background:new 0 0 1165.9 1432.9;" xml:space="preserve">
<style type="text/css">
	.st0{fill:#D4AA88;}
	.st1{fill:#963C23;}
	.st2{fill:#CBD5DC;}
	.st3{fill:#67757F;}
	.st4{fill:#C0694F;}
	.st5{fill:#E4CBB6;}
	.st6{fill:#A47B73;}
</style>
<path class="st0" d="M454.4,1088.3c-5.2-32.2-19.1-61.8-28.1-92.9c-1.3-4.5-21.2-73-52.7-99.1c-83-68.8-123.5-163-140.5-267.8
	c-69.3-42.9-79.3-147.9-19.8-204.5c8.8,20,12.9,43.1,35.1,54.4c0.2,18.7,1.6,37.6,0.3,56.2c-4,59.9,27.4,82.4,71,96.2
	c62.6,19.8,124.9,21.2,186.1-6.5c6.7-3,13.2-8.8,21.7-5.1c-14.1,41-3,57.3,39.4,57.8c13.1,0.1,26.2,0.4,39.3-0.1
	c27.4-1,37.4-10.5,39.5-37c0.4-5.4,0.3-10.9,0.4-16.3c16.1-1.3,29.1,8.4,43.7,12.2c62.4,16,123.3,12.3,181.9-15.7
	c30.5-14.5,46.1-38.8,45.4-73.3c-0.4-20.8,0.6-41.6,1-62.4c13,2.9,20-4.4,24.5-15c5.4-12.6,10.4-25.4,15.5-38.1
	c34,32.1,37.1,73.3,30.2,115.3c-5.6,34-18.4,66-55.5,80.2c-11.4,77.5-38.9,148.1-85.1,211.4c-19.7,27-102.3,109.3-101.3,137.3
	c0.2,4.4-21.9,71.9-33.7,100.9c-1.6,3.9-1.3,8.6-5,11.7c-3,1.1-6.2,2-9.1,3.4c-73.9,34.5-148,39.9-222.3,1.8
	C469.2,1089.6,462.4,1086.9,454.4,1088.3z M584.1,842.5c43.9,2.5,87-2.6,128.6-18.8c7.3-2.9,14-5.7,19.8-11
	c11.7-10.6,18.7-22.4,8.3-37.3c-9.7-13.8-22.4-15.9-37.5-7.9c-10.6,5.6-21.5,12.4-33,14.4c-53.1,9.5-106.1,11.7-159.9,2.1
	c-19.1-3.4-35.2-11.2-52.1-18.7c-14.6-6.5-26.2-0.9-34.1,11.4c-7.6,11.8-4.2,22.9,5.8,32.5c7.2,7,15.4,11.1,24.9,14.9
	C496.6,840.8,539.7,844.7,584.1,842.5z"/>
<path class="st1" d="M248.4,478.3c-22.3-11.3-26.4-34.4-35.1-54.4C203,365,195.5,306.3,212,247.1c25.6-91.6,81.2-160.3,166.3-199.2
	C523.5-18.6,670.1-19.4,808,67.6c115,72.6,170.3,178.5,152.3,317.5c-2,15.2-1.5,30.8-2.2,46.2c-5.2,12.7-10.1,25.5-15.5,38.1
	c-4.6,10.6-11.5,17.9-24.5,15c-4.6-17.4-2.2-35.1-2.3-52.7c-0.3-67.5-4.9-72.8-70.9-79.4c-3.7-7.7-10.9-6-17.2-6
	c-69.6-0.7-136.9-12.6-200.8-41.4c-1.4-1.4-3.8-4.2-4.1-4c-4.4,3.2-1.1,4.9,1.6,6.6c-1.2,16,10.5,29.6,8.5,45.8c-13.3,0-26.6,0-40,0
	c-20.7-19.2-41.5-38.3-62.8-58c-8.2,40.6-21.2,47.1-58.4,29.7c-20.9-9.8-40.2-22.1-58.4-36.3c-11.8-9.1-23.1-19.6-37.7-24.5
	c-34.3,24.1-55.1,57.7-76.8,90.5c-39.3,7.1-47.4,16.5-48.6,55.5C249.5,432.8,252.2,455.6,248.4,478.3z"/>
<path class="st2" d="M761.3,1432.5c22-34.9,44.1-69.8,67.2-106.5c-22.2-37.5-44.2-74.7-67.1-113.3c22.3-18.8,52.1-15.5,78.5-29.9
	c5.3-54.7-12.2-110.9-5.3-167.4c50.5-1.7,101,0.2,149.9,13.2c86,22.9,160.3,96,174.6,186.2c1.9,11.8,7,22.7,6.8,35.3
	c-0.7,59.4-0.3,118.7-0.3,182.5C1029.4,1432.5,895.3,1432.5,761.3,1432.5z"/>
<path class="st3" d="M454.4,1088.3c8-1.4,14.8,1.3,21.8,4.9c74.4,38.1,148.5,32.8,222.3-1.8c2.9-1.4,6.1-2.3,9.1-3.4
	c-17.4,70.4-35.2,140.7-52.2,211.2c-10.6,43.8-20.1,87.8-30.1,131.7c-28.2,3.6-56.5,1.2-84.7,1.4
	C513.3,1317.3,487.9,1201.8,454.4,1088.3z"/>
<path class="st4" d="M584.1,842.5c-44.4,2.1-87.5-1.7-129.2-18.2c-9.5-3.8-17.7-7.9-24.9-14.9c-10-9.6-13.3-20.7-5.8-32.5
	c7.9-12.3,19.5-17.9,34.1-11.4c16.9,7.5,32.9,15.3,52.1,18.7c53.8,9.5,106.8,7.4,159.9-2.1c11.5-2.1,22.4-8.8,33-14.4
	c15.1-8,27.8-5.9,37.5,7.9c10.5,14.9,3.4,26.7-8.3,37.3c-5.8,5.3-12.4,8.1-19.8,11C671.1,839.9,628.1,845,584.1,842.5z"/>
<path class="st4" d="M527.6,619.1c40.3-19.5,79.9-19.1,118.6,4.4c-0.1,5.4,0,10.9-0.4,16.3c-2.1,26.4-12.1,36-39.5,37
	c-13.1,0.5-26.2,0.2-39.3,0.1C524.5,676.5,513.4,660.1,527.6,619.1z"/>
<path class="st0" d="M592.9,353.1c-4,4.8-9.4,4.7-15,4.7c-87.7-0.1-175.4,0-263.1-0.3c-5.3,0-10.7-2-16-3
	c21.7-32.8,42.5-66.3,76.8-90.5c14.6,4.9,25.9,15.4,37.7,24.5c18.3,14.2,37.6,26.5,58.4,36.3c37.2,17.4,50.2,10.9,58.4-29.7
	C551.4,314.7,572.1,333.9,592.9,353.1z"/>
<path class="st0" d="M844.8,352.2c-4.3,6.8-11.2,5.5-17.6,5.5c-59.9,0.1-119.8,0-179.7,0.1c-5.5,0-10.9,0.2-14.8-4.7
	c2-16.1-9.7-29.8-8.5-45.8c0.8-0.8,1.7-1.7,2.5-2.6c63.8,28.8,131.1,40.8,200.8,41.4C833.9,346.2,841.1,344.5,844.8,352.2z"/>
<path class="st0" d="M624.4,307.3c-2.7-1.7-6-3.4-1.6-6.6c0.2-0.2,2.7,2.6,4.1,4C626,305.6,625.2,306.5,624.4,307.3z"/>
<path class="st5" d="M294.4,399.1c194.1,0,382.8,0,570.6,0c8.4,6.2,6.4,14.5,6.4,21.9c0.2,35.3,0.4,70.7,0,106
	c-0.4,33-17.3,54.4-49.6,65.3c-52.1,17.5-102.9,14.9-153.4-6.9c-24-10.3-48.2-20.2-75.3-21.7c-31.8-1.7-61.1,6.2-89.1,19.1
	c-48.8,22.6-98.7,26.5-150.6,13.8c-38.1-9.3-58.7-35.4-58.9-76.1C294.3,481.1,294.4,441.6,294.4,399.1z M460.1,502.1
	c-0.5-11.9,0.5-23.6-4.8-35.4c-8-17.6-18.9-29.1-39.4-28.5c-18.9,0.6-29,11.6-36.5,27.9c-5.4,11.7-5,23.4-5,35.3
	c0,36.6,19.1,63.3,44.1,62C443,562.2,459.9,537.2,460.1,502.1z M791.5,500c-0.7-9.8,0.6-21.4-4.8-33.2
	c-8.1-17.6-18.9-29.1-39.4-28.5c-18.9,0.6-28.9,11.7-36.4,28c-5.4,11.7-5,23.4-5,35.3c0,36.6,19.1,63.3,44.2,61.9
	C774.6,562.2,791.4,537.2,791.5,500z"/>
<path class="st6" d="M460,502.1c-0.1,35.1-17,60.1-41.5,61.4c-25.1,1.3-44.2-25.4-44.1-62c0-12-0.4-23.6,5-35.3
	c7.5-16.3,17.6-27.4,36.5-27.9c20.5-0.6,31.4,10.9,39.4,28.5C460.6,478.6,459.6,490.2,460,502.1z"/>
<path class="st6" d="M791.5,500c-0.1,37.3-17,62.2-41.5,63.5c-25.1,1.3-44.2-25.4-44.2-61.9c0-11.9-0.4-23.6,5-35.3
	c7.5-16.3,17.5-27.5,36.4-28c20.5-0.6,31.3,10.8,39.4,28.5C792.1,478.5,790.9,490.2,791.5,500z"/>
<path class="st2" d="M0.3,1432.6c0-63.8,0.4-123.1-0.3-182.5c-0.2-12.6,4.9-23.5,6.8-35.3c14.3-90.2,88.6-163.3,174.6-186.2
	c48.9-13,99.4-14.9,149.9-13.2c6.9,56.5-10.6,112.7-5.3,167.4c26.4,14.4,56.2,11.1,78.5,29.9c-22.9,38.6-44.9,75.8-67.1,113.3
	c23.1,36.7,45.2,71.6,67.2,106.5C270.6,1432.5,136.5,1432.5,0.3,1432.6z"/>
</svg>
