<?xml version="1.0" encoding="utf-8"?>
<!-- Generator: Adobe Illustrator 21.0.0, SVG Export Plug-In . SVG Version: 6.00 Build 0)  -->
<svg version="1.1" id="Layer_1" xmlns="http://www.w3.org/2000/svg" xmlns:xlink="http://www.w3.org/1999/xlink" x="0px" y="0px"
	 viewBox="0 0 1113.6 1425.1" style="enable-background:new 0 0 1113.6 1425.1;" xml:space="preserve">
<style type="text/css">
	.st0{fill:#CBD5DC;}
	.st1{fill:#67767F;}
	.st2{fill:#FEAC34;}
	.st3{fill:#FEDB5D;}
	.st4{fill:#F9CB56;}
	.st5{fill:#DF2433;}
	.st6{fill:#C16B4F;}
	.st7{fill:#FDE89D;}
	.st8{fill:#A17870;}
</style>
<path class="st0" d="M819.5,1001.6c69.8-3.2,132.8,18.1,191,55c43.9,27.9,75.8,66.5,94.9,115c5.7,14.5,8.4,29.9,8.2,46.2
	c-0.8,69.1-0.4,138.2-0.4,207.3c-120.6,0-241.2,0-361.8,0c-1.7-11,4.1-18.7,9.5-27.8c16.7-27.9,39.1-52.4,52.3-83.1
	c-23.1-39.3-45.8-77.8-69.2-117.5c27.2-13.8,56.4-15.1,82.5-29.5c0-11.2-0.1-22.4,0-33.7C827,1089.4,815,1045.9,819.5,1001.6z"/>
<path class="st1" d="M512.3,1425.1c-13.3-74.4-34.2-147-51.1-220.5c-10.3-44.9-27-88.3-31.1-134.6c7.4-1.8,12.6,3.1,18.8,5.7
	c51.2,22.1,103.2,35.2,159.7,22.2c28.5-6.6,54.8-18.5,82.3-27.2c-3.4,46.5-21.7,89.5-31.8,134.5c-16.6,73.4-38,145.7-51.2,219.9
	C576.1,1425.1,544.2,1425.1,512.3,1425.1z"/>
<path class="st2" d="M100,817.8c0,0-4.5-20.5-10.2-76.8c2.5-39.7,2.5-39.7,0.3-78.8c0-47.7-0.8-95.5,0.2-143.2
	c2.3-119.1,27.6-231.8,101.3-328.6C270.8,86.4,375.8,24.3,505.3,4.6C627.2-14,734.3,25.1,830,96.2
	c111.3,82.6,170.6,196.6,189.1,333.6c7.7,56.8,5.5,113.3,6.1,170c0.7,61.4,0,122.8-0.8,184.2c-0.6,47.7-4.7,95.1-13.5,142
	c-2.7,14.4-7.3,28.3-15.1,41.2c-11.6,19.2-27.8,28-50.3,29.1c-49.2,2.3-93-17.1-137.8-32.6c-29.9-10.3-59-23-90.2-29.2l0.1-1.4
	c-0.1-6.6-0.2-13.3-0.3-19.9c37.1-29.3,75-57.6,101.4-97.9c31.6-48.1,61.3-97,68.6-155.8c4.6-6.5,9.3-13.1,13.9-19.6
	c21.8,0.7,41.8-7.4,53.1-24.4c32.6-49.1,35.9-102.9,12.8-156.6c-12.8-29.7-35.6-49.5-71.8-44.1c-11-11.1-24.5-13.8-39.7-13.7
	c-27.9,0.3-55.8-0.5-83.6-0.9c-17.1-8.6-35.4-10.7-54.2-13.2c-32.4-4.3-65.5-2.3-97.1-8.3c-50.4-9.5-99.5-25.9-145.2-50.6
	c-20.6-11.2-42.1-20.7-59.5-29.1c-37.8,35.3-73.1,68.3-108.5,101.3c-11.2,0.3-22.4,1.8-33.5,0.7c-18.1-1.7-32.7,4.4-45.9,15.9
	c-28.2-8-47.4,4.5-62.7,27c-30.9,45.1-28.3,94.5-13.1,142.4c10.3,32.3,34.1,56,73.3,53.7v-0.1c-0.5,35.9,15.2,67.2,29,98.7
	c31.8,72.9,83.5,129.5,148.6,174.4c0.1,4.6,0.2,9.2,0.3,13.9c-0.2,2.3-0.3,4.6-0.5,6.9c-21.7,1.7-41.2,11.1-61.3,17.9
	c-41.5,14.2-82.2,31.1-125,41.2c-49.2,11.6-71.3,0.1-90.2-46.6c-2.1-5.2-3.3-10.8-5.1-16.1C108.7,893.8,105,855.7,100,817.8z"/>
<path class="st3" d="M403,933.8c0.2-2.3,0.3-4.6,0.5-6.9c29.3,22.5,57.9,47.4,96.3,51c30.4,2.8,59.6,9.8,92.1,5.6
	c41.1-5.3,75.1-20,107.3-42.8c5.8-4.1,11.1-7.5,18.1-7.8l-0.1,1.4c0.3,17.9,0.6,35.8,0.9,53.7c-6.7,28.3-13.7,56.5-27.3,82.6
	c-27.6,8.7-53.9,20.7-82.3,27.2c-56.5,13-108.6-0.1-159.7-22.2c-6.1-2.6-11.4-7.5-18.8-5.7l0.4,0.4c0.4-4.2-2-6-5.7-6.7
	c-7.7-27.4-19.1-53.8-22.1-82.5C402.8,965.4,402.9,949.6,403,933.8z"/>
<path class="st1" d="M424.8,1063.7c3.7,0.7,6.1,2.5,5.7,6.7C425.6,1070.7,425,1067.4,424.8,1063.7z"/>
<path class="st3" d="M403.1,913C338,868.1,286.3,811.5,254.5,738.6c-13.7-31.5-29.4-62.9-29-98.7c14.9,20.9,35.6,34,59.3,42.4
	c62.4,22,124.8,27.5,187.7,0.8c26.9-11.4,53.7-22.5,84-23.9c34.2-1.5,64.3,10.2,94.6,22.3c28.5,11.3,57.2,20.1,88.3,19.5
	c52.9-0.9,102.7-12.6,147.5-41.8c-7.3,58.8-37.1,107.7-68.6,155.8c-26.4,40.3-64.4,68.6-101.4,97.9c-12,0.1-20.8,7.9-30.9,12.4
	c-79.4,35.4-159.2,40.4-240.7,6.1C431.2,925.6,419.1,914.8,403.1,913z M566.2,851.6c28.7,0,62-9.6,88.8-27.8
	c19.1-12.9,25.5-30.9,16.4-45.8c-10.2-16.8-24.8-19.2-46.8-5c-17.7,11.4-36.2,17.4-57.2,18.4c-29.2,1.4-55.4-4-80-21.7
	c-20-14.4-42.2-2.5-44.4,20.7c-1.5,16,8,25.6,19.3,33.5C491.3,843.9,523.8,852.1,566.2,851.6z M608.1,682.9
	c-27.3-4.9-53.3-1.4-79.2-2.4c-13.2-0.5-22.3,4.7-23.1,18.8c-0.9,15.6,7.8,22.6,22.9,22.6c19.2,0,38.5,0.5,57.7-0.1
	C614.4,721,617.5,715.7,608.1,682.9z"/>
<path class="st3" d="M771.8,400.1c-154.8,0-309.6,0.1-464.4,0.1c35.3-33,70.6-66,108.5-101.3c17.4,8.5,38.9,18,59.5,29.1
	c45.7,24.8,94.8,41.1,145.2,50.6c31.5,5.9,64.7,4,97.1,8.3C736.4,389.3,754.8,391.5,771.8,400.1z"/>
<path class="st3" d="M228.1,416.8c-7.5,19.1-9.2,38.8-8.7,59.2c0.8,35.9,0.6,71.8,0.1,107.7c-0.3,19.1,0.6,37.9,6.2,56.2
	c-39.2,2.3-63.1-21.5-73.3-53.7c-15.2-47.9-17.8-97.3,13.1-142.4C180.8,421.3,199.9,408.8,228.1,416.8z"/>
<path class="st3" d="M901,639.6c6.3-17.4,6.8-35.4,6.6-53.6c-0.4-39.8-0.8-79.7,0.2-119.5c0.4-18.8-3.1-35.9-12.6-52
	c36.3-5.4,59.1,14.4,71.8,44.1c23.1,53.6,19.8,107.4-12.8,156.6C942.8,632.3,922.8,640.4,901,639.6z"/>
<path class="st4" d="M403.1,913c15.9,1.8,28.1,12.6,42.3,18.5c81.5,34.3,161.3,29.3,240.7-6.1c10.2-4.5,19-12.4,30.9-12.4
	c0.1,6.6,0.2,13.3,0.3,19.9c-7,0.4-12.4,3.8-18.1,7.8c-32.3,22.8-66.2,37.5-107.3,42.8c-32.4,4.1-61.7-2.8-92.1-5.6
	c-38.5-3.6-67.1-28.5-96.3-51C403.4,922.3,403.3,917.6,403.1,913z"/>
<path class="st5" d="M566.2,851.6c-42.4,0.4-74.9-7.7-103.8-27.7c-11.3-7.9-20.9-17.4-19.3-33.5c2.2-23.2,24.4-35.1,44.4-20.7
	c24.6,17.7,50.8,23.1,80,21.7c20.9-1,39.5-7,57.2-18.4c22-14.2,36.6-11.8,46.8,5c9.1,15,2.6,32.9-16.4,45.8
	C628.2,842,594.9,851.6,566.2,851.6z"/>
<path class="st6" d="M608.1,682.9c9.3,32.8,6.3,38.1-21.6,38.9c-19.2,0.5-38.5,0.1-57.7,0.1c-15.1,0-23.8-7-22.9-22.6
	c0.8-14.1,9.9-19.3,23.1-18.8C554.8,681.5,580.8,678,608.1,682.9z"/>
<path class="st7" d="M266.4,443.9c200.2,0,395.5,0,593.9,0c0,51.3,3.1,101.3-1.1,150.7c-2.9,34.3-30.1,53.5-74.1,57.9
	c-48.1,4.8-97,5.2-142.9-18c-19.7-10-43-12.9-64.4-19.8c-20-6.4-37.6,4.4-56.2,7.4c-12.1,2-24.4,6-35.2,11.7
	c-44.3,23.3-92,22.4-139.4,19.3c-42.4-2.8-85.1-25.5-81.1-84.1C268.6,528.4,266.4,487.4,266.4,443.9z M451.3,556.6
	C451.2,556.6,451.2,556.6,451.3,556.6c-0.1-6.8,0.6-13.6-0.2-20.3c-2.4-20.6-16.9-33.8-35.7-33.1c-19.9,0.7-32.2,13.3-33.2,34.7
	c-0.6,11.3-0.6,22.6,0,33.9c1.2,25.4,11.4,35.2,35.4,34.9c23.3-0.3,32.6-10.4,33.8-36.5C451.4,565.6,451.3,561.1,451.3,556.6z
	 M738.4,553.9c0-6.8,0.2-13.6,0-20.3c-0.7-17.1-10.2-27-26.5-30.1c-16.5-3.1-33.4,4.8-38.6,20.1c-7,20.5-7,42.3-0.1,62.8
	c6,17.9,17.7,23.3,37.7,20.4c16.7-2.4,26.2-12.1,27.5-29.1C738.9,569.8,738.4,561.9,738.4,553.9z"/>
<path class="st8" d="M451.3,556.6c0,4.5,0.2,9.1,0,13.6c-1.2,26.2-10.5,36.2-33.8,36.5c-23.9,0.3-34.2-9.5-35.4-34.9
	c-0.5-11.3-0.5-22.6,0-33.9c1.1-21.4,13.4-34,33.2-34.7c18.8-0.7,33.3,12.5,35.7,33.1C451.9,542.9,451.2,549.8,451.3,556.6
	C451.2,556.6,451.2,556.6,451.3,556.6z"/>
<path class="st8" d="M738.4,553.9c0,7.9,0.5,15.9-0.1,23.7c-1.2,17-10.7,26.7-27.5,29.1c-19.9,2.9-31.6-2.5-37.7-20.4
	c-6.9-20.6-7-42.3,0.1-62.8c5.2-15.3,22.2-23.3,38.6-20.1c16.3,3.1,25.7,13.1,26.5,30.1C738.7,540.4,738.4,547.2,738.4,553.9z"/>
<path class="st0" d="M287.1,1133.5c0.1,11.3,0,22.5,0,33.7c26.1,14.4,55.3,15.7,82.5,29.5c-23.4,39.7-46.1,78.2-69.2,117.5
	c13.2,30.7,35.6,55.2,52.3,83.1c5.4,9.1,11.2,16.8,9.5,27.8c-120.6,0-241.2,0-361.8,0c0-69.1,0.4-138.2-0.4-207.3
	c-0.2-16.3,2.5-31.7,8.2-46.2c19.1-48.5,51-87.1,94.9-115c58.2-36.9,121.2-58.2,191-55C298.6,1045.9,286.6,1089.4,287.1,1133.5z"/>
</svg>
